AndadaDeva HT-Bold.ufo
<glyph name="numbersign" format="1">
  <advance width="570"/>
  <unicode hex="0023"/>
  <outline>
    <contour>
      <point x="379" y="572" type="line"/>
      <point x="459" y="562" type="line"/>
      <point x="368" y="-15" type="line"/>
      <point x="288" y="-5" type="line"/>
    </contour>
    <contour>
      <point x="207" y="572" type="line"/>
      <point x="287" y="562" type="line"/>
      <point x="196" y="-15" type="line"/>
      <point x="116" y="-5" type="line"/>
    </contour>
    <contour>
      <point x="52" y="327" type="line"/>
      <point x="52" y="418" type="line"/>
      <point x="547" y="418" type="line"/>
      <point x="547" y="332" type="line"/>
    </contour>
    <contour>
      <point x="527" y="231" type="line"/>
      <point x="527" y="140" type="line"/>
      <point x="32" y="140" type="line"/>
      <point x="32" y="226" type="line"/>
    </contour>
  </outline>
</glyph>
<glyph name="dollar" format="1">
  <advance width="542"/>
  <unicode hex="0024"/>
  <outline>
    <contour>
      <point x="503" y="404"/>
      <point x="205" y="392"/>
      <point x="205" y="511" type="curve" smooth="yes"/>
      <point x="205" y="554"/>
      <point x="242" y="580"/>
      <point x="293" y="580" type="curve" smooth="yes"/>
      <point x="339" y="580"/>
      <point x="365" y="571"/>
      <point x="384" y="554" type="curve"/>
      <point x="385" y="549"/>
      <point x="386" y="545"/>
      <point x="386" y="542" type="curve" smooth="yes"/>
      <point x="386" y="488" type="line"/>
      <point x="459" y="484" type="line"/>
      <point x="472" y="636" type="line"/>
      <point x="425" y="648"/>
      <point x="371" y="659"/>
      <point x="320" y="664" type="curve"/>
      <point x="324" y="756" type="line"/>
      <point x="260" y="759" type="line"/>
      <point x="256" y="667" type="line"/>
      <point x="136" y="665"/>
      <point x="45" y="604"/>
      <point x="45" y="492" type="curve" smooth="yes"/>
      <point x="45" y="259"/>
      <point x="342" y="280"/>
      <point x="342" y="148" type="curve" smooth="yes"/>
      <point x="342" y="99"/>
      <point x="299" y="78"/>
      <point x="252" y="78" type="curve" smooth="yes"/>
      <point x="181" y="78"/>
      <point x="144" y="99"/>
      <point x="137" y="104" type="curve"/>
      <point x="134" y="121"/>
      <point x="130" y="139"/>
      <point x="131" y="143" type="curve"/>
      <point x="130" y="153"/>
      <point x="130" y="187"/>
      <point x="130" y="187" type="curve"/>
      <point x="59" y="192" type="line"/>
      <point x="44" y="34" type="line"/>
      <point x="44" y="34"/>
      <point x="115" y="-6"/>
      <point x="228" y="-14" type="curve"/>
      <point x="225" y="-89" type="line"/>
      <point x="290" y="-92" type="line"/>
      <point x="293" y="-14" type="line"/>
      <point x="412" y="-4"/>
      <point x="503" y="63"/>
      <point x="503" y="181" type="curve" smooth="yes"/>
    </contour>
  </outline>
</glyph>
<glyph name="ampersand" format="1">
  <advance width="758"/>
  <unicode hex="0026"/>
  <outline>
    <contour>
      <point x="733" y="71" type="line"/>
      <point x="683" y="76" type="line"/>
      <point x="672" y="84"/>
      <point x="626" y="120"/>
      <point x="609" y="134" type="curve" smooth="yes"/>
      <point x="584" y="156" type="line"/>
      <point x="599" y="189"/>
      <point x="609" y="226"/>
      <point x="613" y="267" type="curve" smooth="yes"/>
      <point x="619" y="330" type="line"/>
      <point x="684" y="336" type="line"/>
      <point x="679" y="407" type="line"/>
      <point x="679" y="407"/>
      <point x="636" y="402"/>
      <point x="581" y="402" type="curve" smooth="yes"/>
      <point x="526" y="402"/>
      <point x="461" y="407"/>
      <point x="461" y="407" type="curve"/>
      <point x="456" y="336" type="line"/>
      <point x="505" y="330" type="line"/>
      <point x="506" y="316"/>
      <point x="509" y="290"/>
      <point x="509" y="272" type="curve" smooth="yes"/>
      <point x="509" y="256"/>
      <point x="507" y="241"/>
      <point x="503" y="227" type="curve"/>
      <point x="335" y="374"/>
      <point x="270" y="440"/>
      <point x="270" y="510" type="curve" smooth="yes"/>
      <point x="270" y="544"/>
      <point x="286" y="569"/>
      <point x="330" y="569" type="curve" smooth="yes"/>
      <point x="354" y="569"/>
      <point x="382" y="562"/>
      <point x="391" y="560" type="curve"/>
      <point x="391" y="560"/>
      <point x="405" y="526"/>
      <point x="405" y="521" type="curve" smooth="yes"/>
      <point x="405" y="478" type="line"/>
      <point x="470" y="474" type="line"/>
      <point x="482" y="631" type="line"/>
      <point x="454" y="641"/>
      <point x="384" y="662"/>
      <point x="314" y="662" type="curve" smooth="yes"/>
      <point x="204" y="662"/>
      <point x="102" y="611"/>
      <point x="102" y="506" type="curve" smooth="yes"/>
      <point x="102" y="457"/>
      <point x="124" y="408"/>
      <point x="160" y="361" type="curve"/>
      <point x="83" y="315"/>
      <point x="40" y="257"/>
      <point x="40" y="174" type="curve" smooth="yes"/>
      <point x="40" y="44"/>
      <point x="146" y="-10"/>
      <point x="283" y="-10" type="curve" smooth="yes"/>
      <point x="364" y="-10"/>
      <point x="433" y="9"/>
      <point x="487" y="44" type="curve"/>
      <point x="501" y="30"/>
      <point x="514" y="15"/>
      <point x="527" y="0" type="curve"/>
      <point x="543" y="0" type="line" smooth="yes"/>
      <point x="656" y="0"/>
      <point x="728" y="-5"/>
      <point x="728" y="-5" type="curve"/>
    </contour>
    <contour>
      <point x="203" y="214"/>
      <point x="210" y="242"/>
      <point x="237" y="274" type="curve"/>
      <point x="290" y="222"/>
      <point x="352" y="170"/>
      <point x="410" y="118" type="curve"/>
      <point x="381" y="103"/>
      <point x="348" y="95"/>
      <point x="318" y="95" type="curve" smooth="yes"/>
      <point x="262" y="95"/>
      <point x="203" y="122"/>
      <point x="203" y="190" type="curve" smooth="yes"/>
    </contour>
  </outline>
</glyph>
<glyph name="parenleft" format="1">
  <advance width="318"/>
  <unicode hex="0028"/>
  <outline>
    <contour>
      <point x="167" y="449"/>
      <point x="194" y="544"/>
      <point x="224" y="624" type="curve" smooth="yes"/>
      <point x="231" y="644"/>
      <point x="288" y="725"/>
      <point x="288" y="725" type="curve"/>
      <point x="234" y="769" type="line"/>
      <point x="99" y="644"/>
      <point x="40" y="487"/>
      <point x="40" y="317" type="curve"/>
      <point x="40" y="147"/>
      <point x="99" y="-10"/>
      <point x="234" y="-135" type="curve"/>
      <point x="288" y="-91" type="line"/>
      <point x="288" y="-91"/>
      <point x="231" y="-10"/>
      <point x="224" y="10" type="curve" smooth="yes"/>
      <point x="194" y="90"/>
      <point x="167" y="185"/>
      <point x="167" y="317" type="curve"/>
    </contour>
  </outline>
</glyph>
<glyph name="asterisk" format="1">
  <advance width="409"/>
  <unicode hex="002A"/>
  <outline>
    <contour>
      <point x="292" y="573" type="line"/>
      <point x="372" y="630" type="line"/>
      <point x="329" y="689" type="line"/>
      <point x="284" y="663" type="line"/>
      <point x="247" y="648" type="line"/>
      <point x="237" y="746" type="line"/>
      <point x="164" y="738" type="line"/>
      <point x="164" y="685" type="line" smooth="yes"/>
      <point x="164" y="682"/>
      <point x="162" y="665"/>
      <point x="159" y="647" type="curve"/>
      <point x="69" y="687" type="line"/>
      <point x="39" y="620" type="line"/>
      <point x="85" y="593" type="line"/>
      <point x="88" y="592"/>
      <point x="101" y="581"/>
      <point x="116" y="570" type="curve"/>
      <point x="36" y="512" type="line"/>
      <point x="79" y="453" type="line"/>
      <point x="125" y="479" type="line"/>
      <point x="128" y="481"/>
      <point x="144" y="487"/>
      <point x="161" y="494" type="curve"/>
      <point x="171" y="396" type="line"/>
      <point x="244" y="404" type="line"/>
      <point x="244" y="456" type="line" smooth="yes"/>
      <point x="244" y="459"/>
      <point x="246" y="477"/>
      <point x="249" y="496" type="curve"/>
      <point x="339" y="455" type="line"/>
      <point x="369" y="522" type="line"/>
      <point x="324" y="548" type="line"/>
    </contour>
  </outline>
</glyph>
<glyph name="plus" format="1">
  <advance width="581"/>
  <unicode hex="002B"/>
  <outline>
    <contour>
      <point x="548" y="208" type="line"/>
      <point x="548" y="308" type="line"/>
      <point x="340" y="308" type="line"/>
      <point x="338" y="511" type="line"/>
      <point x="238" y="511" type="line"/>
      <point x="238" y="308" type="line"/>
      <point x="33" y="308" type="line"/>
      <point x="33" y="203" type="line"/>
      <point x="238" y="205" type="line"/>
      <point x="238" y="0" type="line"/>
      <point x="343" y="0" type="line"/>
      <point x="341" y="206" type="line"/>
    </contour>
  </outline>
</glyph>
<glyph name="hyphen" format="1">
  <advance width="282"/>
  <unicode hex="002D"/>
  <outline>
    <contour>
      <point x="252" y="301" type="line"/>
      <point x="30" y="301" type="line"/>
      <point x="32" y="206" type="line"/>
      <point x="247" y="206" type="line"/>
    </contour>
  </outline>
</glyph>
<glyph name="slash" format="1">
  <advance width="396"/>
  <unicode hex="002F"/>
  <outline>
    <contour>
      <point x="313" y="773" type="line"/>
      <point x="7" y="-35" type="line"/>
      <point x="101" y="-65" type="line"/>
      <point x="406" y="743" type="line"/>
    </contour>
  </outline>
</glyph>
<glyph name="zero" format="1">
  <advance width="572"/>
  <unicode hex="0030"/>
  <outline>
    <contour>
      <point x="26" y="506"/>
      <point x="99" y="662"/>
      <point x="286" y="662" type="curve" smooth="yes"/>
      <point x="473" y="662"/>
      <point x="546" y="506"/>
      <point x="546" y="326" type="curve"/>
      <point x="546" y="146"/>
      <point x="473" y="-10"/>
      <point x="286" y="-10" type="curve" smooth="yes"/>
      <point x="99" y="-10"/>
      <point x="26" y="146"/>
      <point x="26" y="326" type="curve"/>
    </contour>
    <contour>
      <point x="382" y="442"/>
      <point x="366" y="577"/>
      <point x="286" y="577" type="curve" smooth="yes"/>
      <point x="206" y="577"/>
      <point x="190" y="442"/>
      <point x="190" y="326" type="curve"/>
      <point x="190" y="210"/>
      <point x="206" y="75"/>
      <point x="286" y="75" type="curve" smooth="yes"/>
      <point x="366" y="75"/>
      <point x="382" y="210"/>
      <point x="382" y="326" type="curve" smooth="yes"/>
    </contour>
  </outline>
</glyph>
<glyph name="three" format="1">
  <advance width="491"/>
  <unicode hex="0033"/>
  <outline>
    <contour>
      <point x="138" y="662"/>
      <point x="76" y="652"/>
      <point x="19" y="633" type="curve"/>
      <point x="33" y="465" type="line"/>
      <point x="112" y="470" type="line"/>
      <point x="112" y="523" type="line"/>
      <point x="112" y="527"/>
      <point x="120" y="562"/>
      <point x="120" y="562" type="curve"/>
      <point x="141" y="569"/>
      <point x="168" y="574"/>
      <point x="193" y="574" type="curve" smooth="yes"/>
      <point x="244" y="574"/>
      <point x="272" y="546"/>
      <point x="272" y="493" type="curve" smooth="yes"/>
      <point x="272" y="411"/>
      <point x="216" y="357"/>
      <point x="110" y="339" type="curve"/>
      <point x="124" y="266" type="line"/>
      <point x="124" y="266"/>
      <point x="160" y="270"/>
      <point x="186" y="270" type="curve" smooth="yes"/>
      <point x="254" y="270"/>
      <point x="288" y="234"/>
      <point x="288" y="163" type="curve" smooth="yes"/>
      <point x="288" y="65"/>
      <point x="181" y="-11"/>
      <point x="19" y="-29" type="curve"/>
      <point x="41" y="-105" type="line"/>
      <point x="277" y="-87"/>
      <point x="452" y="32"/>
      <point x="452" y="174" type="curve" smooth="yes"/>
      <point x="452" y="247"/>
      <point x="392" y="315"/>
      <point x="313" y="332" type="curve"/>
      <point x="384" y="368"/>
      <point x="424" y="424"/>
      <point x="424" y="487" type="curve" smooth="yes"/>
      <point x="424" y="602"/>
      <point x="346" y="662"/>
      <point x="199" y="662" type="curve" smooth="yes"/>
    </contour>
  </outline>
</glyph>
<glyph name="five" format="1">
  <advance width="486"/>
  <unicode hex="0035"/>
  <outline>
    <contour>
      <point x="417" y="662" type="line"/>
      <point x="174" y="652" type="line"/>
      <point x="86" y="652" type="line"/>
      <point x="67" y="634" type="line"/>
      <point x="42" y="320" type="line"/>
      <point x="89" y="266" type="line"/>
      <point x="127" y="277"/>
      <point x="156" y="280"/>
      <point x="178" y="280" type="curve" smooth="yes"/>
      <point x="259" y="280"/>
      <point x="294" y="237"/>
      <point x="294" y="164" type="curve" smooth="yes"/>
      <point x="294" y="65"/>
      <point x="220" y="9"/>
      <point x="43" y="-31" type="curve"/>
      <point x="65" y="-105" type="line"/>
      <point x="318" y="-66"/>
      <point x="450" y="31"/>
      <point x="450" y="187" type="curve" smooth="yes"/>
      <point x="450" y="308"/>
      <point x="371" y="383"/>
      <point x="224" y="383" type="curve" smooth="yes"/>
      <point x="207" y="383"/>
      <point x="182" y="382"/>
      <point x="162" y="379" type="curve"/>
      <point x="171" y="521" type="line"/>
      <point x="265" y="521" type="line" smooth="yes"/>
      <point x="295" y="521"/>
      <point x="423" y="535"/>
      <point x="423" y="535" type="curve"/>
    </contour>
  </outline>
</glyph>
<glyph name="eight" format="1">
  <advance width="543"/>
  <unicode hex="0038"/>
  <outline>
    <contour>
      <point x="432" y="386"/>
      <point x="489" y="445"/>
      <point x="489" y="519" type="curve" smooth="yes"/>
      <point x="489" y="626"/>
      <point x="378" y="682"/>
      <point x="271" y="682" type="curve" smooth="yes"/>
      <point x="164" y="682"/>
      <point x="52" y="628"/>
      <point x="52" y="522" type="curve" smooth="yes"/>
      <point x="52" y="433"/>
      <point x="99" y="381"/>
      <point x="157" y="342" type="curve"/>
      <point x="98" y="305"/>
      <point x="30" y="246"/>
      <point x="30" y="164" type="curve" smooth="yes"/>
      <point x="30" y="43"/>
      <point x="149" y="-10"/>
      <point x="270" y="-10" type="curve" smooth="yes"/>
      <point x="385" y="-10"/>
      <point x="511" y="42"/>
      <point x="511" y="156" type="curve" smooth="yes"/>
      <point x="511" y="255"/>
      <point x="451" y="308"/>
      <point x="383" y="350" type="curve"/>
    </contour>
    <contour>
      <point x="319" y="600"/>
      <point x="345" y="565"/>
      <point x="345" y="518" type="curve" smooth="yes"/>
      <point x="345" y="471"/>
      <point x="320" y="431"/>
      <point x="293" y="400" type="curve"/>
      <point x="239" y="432"/>
      <point x="196" y="465"/>
      <point x="196" y="521" type="curve" smooth="yes"/>
      <point x="196" y="565"/>
      <point x="226" y="600"/>
      <point x="271" y="600" type="curve" smooth="yes"/>
    </contour>
    <contour>
      <point x="213" y="72"/>
      <point x="177" y="108"/>
      <point x="177" y="165" type="curve" smooth="yes"/>
      <point x="177" y="218"/>
      <point x="212" y="259"/>
      <point x="250" y="289" type="curve"/>
      <point x="311" y="255"/>
      <point x="363" y="222"/>
      <point x="363" y="162" type="curve" smooth="yes"/>
      <point x="363" y="104"/>
      <point x="328" y="72"/>
      <point x="271" y="72" type="curve" smooth="yes"/>
    </contour>
  </outline>
</glyph>
<glyph name="less" format="1">
  <advance width="481"/>
  <unicode hex="003C"/>
  <outline>
    <contour>
      <point x="401" y="60" type="line"/>
      <point x="336" y="-15" type="line"/>
      <point x="40" y="249" type="line"/>
      <point x="336" y="513" type="line"/>
      <point x="401" y="438" type="line"/>
      <point x="186" y="249" type="line"/>
    </contour>
  </outline>
</glyph>
<glyph name="greater" format="1">
  <advance width="481"/>
  <unicode hex="003E"/>
  <outline>
    <contour>
      <point x="80" y="437" type="line"/>
      <point x="145" y="512" type="line"/>
      <point x="441" y="248" type="line"/>
      <point x="145" y="-16" type="line"/>
      <point x="80" y="59" type="line"/>
      <point x="295" y="248" type="line"/>
    </contour>
  </outline>
</glyph>
<glyph name="question" format="1">
  <advance width="422"/>
  <unicode hex="003F"/>
  <outline>
    <contour>
      <point x="288" y="595"/>
      <point x="255" y="653"/>
      <point x="181" y="653" type="curve" smooth="yes"/>
      <point x="154" y="653"/>
      <point x="129" y="647"/>
      <point x="114" y="637" type="curve"/>
      <point x="110" y="623"/>
      <point x="108" y="588"/>
      <point x="108" y="581" type="curve"/>
      <point x="110" y="545" type="line"/>
      <point x="42" y="540" type="line"/>
      <point x="30" y="688" type="line"/>
      <point x="83" y="712"/>
      <point x="131" y="727"/>
      <point x="191" y="727" type="curve" smooth="yes"/>
      <point x="334" y="727"/>
      <point x="422" y="653"/>
      <point x="422" y="520" type="curve" smooth="yes"/>
      <point x="422" y="398"/>
      <point x="337" y="325"/>
      <point x="212" y="321" type="curve"/>
      <point x="215" y="241" type="line"/>
      <point x="198" y="225" type="line"/>
      <point x="189" y="226"/>
      <point x="140" y="229"/>
      <point x="98" y="229" type="curve"/>
      <point x="95" y="232" type="line"/>
      <point x="95" y="362" type="line"/>
      <point x="126" y="396" type="line"/>
      <point x="143" y="394"/>
      <point x="172" y="393"/>
      <point x="185" y="393" type="curve" smooth="yes"/>
      <point x="250" y="393"/>
      <point x="288" y="450"/>
      <point x="288" y="521" type="curve" smooth="yes"/>
    </contour>
    <contour>
      <point x="197" y="144"/>
      <point x="225" y="114"/>
      <point x="225" y="64" type="curve" smooth="yes"/>
      <point x="225" y="17"/>
      <point x="199" y="-15"/>
      <point x="151" y="-15" type="curve" smooth="yes"/>
      <point x="103" y="-15"/>
      <point x="77" y="17"/>
      <point x="77" y="64" type="curve" smooth="yes"/>
      <point x="77" y="111"/>
      <point x="103" y="144"/>
      <point x="151" y="144" type="curve" smooth="yes"/>
    </contour>
  </outline>
</glyph>
<glyph name="at" format="1">
  <advance width="954"/>
  <unicode hex="0040"/>
  <outline>
    <contour>
      <point x="566" y="0" type="line"/>
      <point x="639" y="0" type="line"/>
      <point x="823" y="14"/>
      <point x="924" y="163"/>
      <point x="924" y="287" type="curve" smooth="yes"/>
      <point x="924" y="527"/>
      <point x="750" y="667"/>
      <point x="482" y="667" type="curve" smooth="yes"/>
      <point x="152" y="667"/>
      <point x="30" y="447"/>
      <point x="30" y="232" type="curve" smooth="yes"/>
      <point x="30" y="25"/>
      <point x="127" y="-213"/>
      <point x="487" y="-213" type="curve" smooth="yes"/>
      <point x="542" y="-213"/>
      <point x="701" y="-127"/>
      <point x="701" y="-127" type="curve"/>
      <point x="685" y="-89" type="line"/>
      <point x="685" y="-89"/>
      <point x="524" y="-131"/>
      <point x="487" y="-131" type="curve" smooth="yes"/>
      <point x="245" y="-132"/>
      <point x="151" y="23"/>
      <point x="151" y="232" type="curve" smooth="yes"/>
      <point x="151" y="362"/>
      <point x="200" y="598"/>
      <point x="482" y="598" type="curve" smooth="yes"/>
      <point x="686" y="598"/>
      <point x="809" y="471"/>
      <point x="809" y="287" type="curve" smooth="yes"/>
      <point x="809" y="201"/>
      <point x="778" y="87"/>
      <point x="695" y="66" type="curve"/>
      <point x="696" y="67" type="line"/>
      <point x="696" y="67"/>
      <point x="687" y="143"/>
      <point x="687" y="193" type="curve" smooth="yes"/>
      <point x="687" y="323" type="line" smooth="yes"/>
      <point x="687" y="432"/>
      <point x="618" y="503"/>
      <point x="483" y="503" type="curve" smooth="yes"/>
      <point x="404" y="503"/>
      <point x="305" y="476"/>
      <point x="305" y="476" type="curve"/>
      <point x="320" y="309" type="line"/>
      <point x="395" y="312" type="line"/>
      <point x="394" y="361" type="line"/>
      <point x="398" y="400" type="line"/>
      <point x="412" y="407"/>
      <point x="447" y="422"/>
      <point x="477" y="422" type="curve" smooth="yes"/>
      <point x="535" y="422"/>
      <point x="547" y="377"/>
      <point x="547" y="323" type="curve" smooth="yes"/>
      <point x="547" y="293" type="line"/>
      <point x="405" y="270" type="line" smooth="yes"/>
      <point x="313" y="254"/>
      <point x="273" y="207"/>
      <point x="273" y="132" type="curve" smooth="yes"/>
      <point x="273" y="43"/>
      <point x="330" y="-10"/>
      <point x="420" y="-10" type="curve" smooth="yes"/>
      <point x="477" y="-10"/>
      <point x="524" y="11"/>
      <point x="558" y="72" type="curve"/>
    </contour>
    <contour>
      <point x="547" y="228" type="line"/>
      <point x="547" y="173" type="line"/>
      <point x="544" y="119"/>
      <point x="518" y="93"/>
      <point x="475" y="93" type="curve" smooth="yes"/>
      <point x="438" y="93"/>
      <point x="421" y="111"/>
      <point x="421" y="152" type="curve" smooth="yes"/>
      <point x="421" y="190"/>
      <point x="436" y="207"/>
      <point x="473" y="214" type="curve" smooth="yes"/>
    </contour>
  </outline>
</glyph>
<glyph name="A" format="1">
  <advance width="667"/>
  <unicode hex="0041"/>
  <outline>
    <contour>
      <point x="668" y="65" type="line"/>
      <point x="612" y="74" type="line"/>
      <point x="589" y="128" type="line"/>
      <point x="389" y="716" type="line"/>
      <point x="277" y="705" type="line"/>
      <point x="88" y="161" type="line"/>
      <point x="46" y="75" type="line"/>
      <point x="1" y="68" type="line"/>
      <point x="6" y="-5" type="line"/>
      <point x="6" y="-5"/>
      <point x="60" y="0"/>
      <point x="145" y="0" type="curve" smooth="yes"/>
      <point x="192" y="0"/>
      <point x="251" y="-5"/>
      <point x="251" y="-5" type="curve"/>
      <point x="256" y="65" type="line"/>
      <point x="198" y="77" type="line"/>
      <point x="204" y="115" type="line"/>
      <point x="221" y="179" type="line"/>
      <point x="410" y="179" type="line"/>
      <point x="424" y="129" type="line"/>
      <point x="429" y="77" type="line"/>
      <point x="370" y="68" type="line"/>
      <point x="375" y="-5" type="line"/>
      <point x="375" y="-5"/>
      <point x="460" y="0"/>
      <point x="579" y="0" type="curve" smooth="yes"/>
      <point x="614" y="0"/>
      <point x="663" y="-5"/>
      <point x="663" y="-5" type="curve"/>
    </contour>
    <contour>
      <point x="320" y="498" type="line"/>
      <point x="384" y="263" type="line"/>
      <point x="248" y="261" type="line"/>
    </contour>
    <contour>
      <point x="615" y="10" type="move" name="ogonek"/>
    </contour>
    <contour>
      <point x="320" y="0" type="move" name="bottom"/>
    </contour>
    <contour>
      <point x="344" y="705" type="move" name="top"/>
    </contour>
  </outline>
</glyph>
<glyph name="B" format="1">
  <advance width="633"/>
  <unicode hex="0042"/>
  <outline>
    <contour>
      <point x="308" y="715"/>
      <point x="192" y="705"/>
      <point x="149" y="705" type="curve"/>
      <point x="102" y="705"/>
      <point x="57" y="710"/>
      <point x="57" y="710" type="curve"/>
      <point x="52" y="635" type="line"/>
      <point x="111" y="623" type="line"/>
      <point x="116" y="600"/>
      <point x="120" y="552"/>
      <point x="120" y="512" type="curve" smooth="yes"/>
      <point x="120" y="163" type="line" smooth="yes"/>
      <point x="120" y="143"/>
      <point x="114" y="91"/>
      <point x="111" y="77" type="curve"/>
      <point x="51" y="65" type="line"/>
      <point x="56" y="-5" type="line"/>
      <point x="56" y="-5"/>
      <point x="101" y="0"/>
      <point x="148" y="0" type="curve"/>
      <point x="206" y="0"/>
      <point x="308" y="-5"/>
      <point x="369" y="-5" type="curve" smooth="yes"/>
      <point x="498" y="-5"/>
      <point x="608" y="56"/>
      <point x="608" y="189" type="curve" smooth="yes"/>
      <point x="608" y="293"/>
      <point x="536" y="349"/>
      <point x="438" y="364" type="curve"/>
      <point x="438" y="371" type="line"/>
      <point x="519" y="391"/>
      <point x="577" y="455"/>
      <point x="577" y="543" type="curve" smooth="yes"/>
      <point x="577" y="653"/>
      <point x="472" y="715"/>
      <point x="352" y="715" type="curve" smooth="yes"/>
    </contour>
    <contour>
      <point x="294" y="631"/>
      <point x="310" y="633"/>
      <point x="327" y="633" type="curve" smooth="yes"/>
      <point x="389" y="633"/>
      <point x="432" y="588"/>
      <point x="432" y="531" type="curve" smooth="yes"/>
      <point x="432" y="448"/>
      <point x="391" y="407"/>
      <point x="326" y="407" type="curve" smooth="yes"/>
      <point x="320" y="407" type="line"/>
      <point x="313" y="320" type="line"/>
      <point x="323" y="320" type="line" smooth="yes"/>
      <point x="398" y="320"/>
      <point x="455" y="292"/>
      <point x="455" y="203" type="curve" smooth="yes"/>
      <point x="455" y="124"/>
      <point x="406" y="77"/>
      <point x="334" y="77" type="curve" smooth="yes"/>
      <point x="315" y="77"/>
      <point x="296" y="78"/>
      <point x="278" y="80" type="curve"/>
      <point x="277" y="94"/>
      <point x="275" y="149"/>
      <point x="275" y="193" type="curve" smooth="yes"/>
      <point x="275" y="542" type="line" smooth="yes"/>
      <point x="275" y="561"/>
      <point x="277" y="621"/>
      <point x="278" y="629" type="curve"/>
    </contour>
  </outline>
</glyph>
<glyph name="C" format="1">
  <advance width="637"/>
  <unicode hex="0043"/>
  <outline>
    <contour>
      <point x="594" y="191" type="line"/>
      <point x="519" y="189" type="line"/>
      <point x="516" y="142" type="line"/>
      <point x="516" y="134"/>
      <point x="502" y="100"/>
      <point x="500" y="93" type="curve"/>
      <point x="455" y="83"/>
      <point x="419" y="78"/>
      <point x="376" y="78" type="curve" smooth="yes"/>
      <point x="253" y="78"/>
      <point x="207" y="200"/>
      <point x="207" y="353" type="curve" smooth="yes"/>
      <point x="207" y="506"/>
      <point x="254" y="627"/>
      <point x="377" y="627" type="curve" smooth="yes"/>
      <point x="416" y="627"/>
      <point x="448" y="622"/>
      <point x="489" y="613" type="curve"/>
      <point x="494" y="600"/>
      <point x="501" y="578"/>
      <point x="501" y="572" type="curve"/>
      <point x="504" y="511" type="line"/>
      <point x="581" y="507" type="line"/>
      <point x="593" y="686" type="line"/>
      <point x="528" y="702"/>
      <point x="463" y="720"/>
      <point x="377" y="720" type="curve" smooth="yes"/>
      <point x="145" y="720"/>
      <point x="27" y="570"/>
      <point x="27" y="352" type="curve" smooth="yes"/>
      <point x="27" y="134"/>
      <point x="145" y="-15"/>
      <point x="377" y="-15" type="curve" smooth="yes"/>
      <point x="462" y="-15"/>
      <point x="537" y="3"/>
      <point x="602" y="19" type="curve"/>
    </contour>
  </outline>
</glyph>
<glyph name="D" format="1">
  <advance width="739"/>
  <unicode hex="0044"/>
  <outline>
    <contour>
      <point x="311" y="715"/>
      <point x="199" y="705"/>
      <point x="151" y="705" type="curve"/>
      <point x="104" y="705"/>
      <point x="51" y="710"/>
      <point x="51" y="710" type="curve"/>
      <point x="46" y="635" type="line"/>
      <point x="111" y="623" type="line"/>
      <point x="111" y="623"/>
      <point x="120" y="562"/>
      <point x="120" y="512" type="curve" smooth="yes"/>
      <point x="120" y="163" type="line" smooth="yes"/>
      <point x="120" y="143"/>
      <point x="111" y="77"/>
      <point x="111" y="77" type="curve"/>
      <point x="45" y="65" type="line"/>
      <point x="50" y="-5" type="line"/>
      <point x="50" y="-5"/>
      <point x="103" y="0"/>
      <point x="150" y="0" type="curve" smooth="yes"/>
      <point x="210" y="0"/>
      <point x="297" y="-6"/>
      <point x="360" y="-6" type="curve" smooth="yes"/>
      <point x="592" y="-6"/>
      <point x="712" y="141"/>
      <point x="712" y="352" type="curve" smooth="yes"/>
      <point x="712" y="567"/>
      <point x="592" y="715"/>
      <point x="360" y="715" type="curve" smooth="yes"/>
    </contour>
    <contour>
      <point x="493" y="632"/>
      <point x="545" y="506"/>
      <point x="545" y="354" type="curve" smooth="yes"/>
      <point x="545" y="199"/>
      <point x="494" y="77"/>
      <point x="344" y="77" type="curve" smooth="yes"/>
      <point x="317" y="77"/>
      <point x="290" y="79"/>
      <point x="279" y="80" type="curve"/>
      <point x="278" y="92"/>
      <point x="275" y="149"/>
      <point x="275" y="193" type="curve" smooth="yes"/>
      <point x="275" y="542" type="line" smooth="yes"/>
      <point x="275" y="558"/>
      <point x="278" y="607"/>
      <point x="279" y="624" type="curve"/>
      <point x="302" y="628"/>
      <point x="326" y="632"/>
      <point x="346" y="632" type="curve" smooth="yes"/>
    </contour>
    <contour>
      <point x="370" y="353" type="move" name="center"/>
    </contour>
    <contour>
      <point x="350" y="705" type="move" name="top"/>
    </contour>
  </outline>
</glyph>
<glyph name="E" format="1">
  <advance width="616"/>
  <unicode hex="0045"/>
  <outline>
    <contour>
      <point x="46" y="635" type="line"/>
      <point x="111" y="623" type="line"/>
      <point x="116" y="602"/>
      <point x="120" y="562"/>
      <point x="120" y="512" type="curve" smooth="yes"/>
      <point x="120" y="163" type="line" smooth="yes"/>
      <point x="120" y="143"/>
      <point x="114" y="87"/>
      <point x="111" y="77" type="curve"/>
      <point x="45" y="65" type="line"/>
      <point x="50" y="-5" type="line"/>
      <point x="50" y="-5"/>
      <point x="103" y="-1"/>
      <point x="151" y="0" type="curve" smooth="yes"/>
      <point x="433" y="0" type="line" smooth="yes"/>
      <point x="453" y="0"/>
      <point x="547" y="-4"/>
      <point x="547" y="-4" type="curve"/>
      <point x="566" y="14" type="line"/>
      <point x="581" y="190" type="line"/>
      <point x="511" y="195" type="line"/>
      <point x="509" y="179"/>
      <point x="503" y="153"/>
      <point x="499" y="138" type="curve" smooth="yes"/>
      <point x="496" y="128"/>
      <point x="490" y="113"/>
      <point x="480" y="95" type="curve"/>
      <point x="460" y="91"/>
      <point x="432" y="87"/>
      <point x="403" y="87" type="curve" smooth="yes"/>
      <point x="278" y="87" type="line"/>
      <point x="277" y="107"/>
      <point x="275" y="155"/>
      <point x="275" y="193" type="curve" smooth="yes"/>
      <point x="275" y="315" type="line"/>
      <point x="282" y="316"/>
      <point x="303" y="316"/>
      <point x="306" y="316" type="curve" smooth="yes"/>
      <point x="337" y="316" type="line" smooth="yes"/>
      <point x="357" y="316"/>
      <point x="401" y="310"/>
      <point x="401" y="310" type="curve"/>
      <point x="410" y="250" type="line"/>
      <point x="474" y="256" type="line"/>
      <point x="474" y="256"/>
      <point x="471" y="333"/>
      <point x="471" y="383" type="curve" smooth="yes"/>
      <point x="472" y="466" type="line"/>
      <point x="410" y="471" type="line"/>
      <point x="401" y="407" type="line"/>
      <point x="401" y="407"/>
      <point x="377" y="398"/>
      <point x="357" y="398" type="curve" smooth="yes"/>
      <point x="301" y="398" type="line" smooth="yes"/>
      <point x="296" y="398"/>
      <point x="285" y="398"/>
      <point x="275" y="399" type="curve"/>
      <point x="275" y="542" type="line" smooth="yes"/>
      <point x="275" y="558"/>
      <point x="278" y="605"/>
      <point x="279" y="623" type="curve"/>
      <point x="389" y="623" type="line" smooth="yes"/>
      <point x="419" y="623"/>
      <point x="448" y="621"/>
      <point x="468" y="619" type="curve"/>
      <point x="473" y="611"/>
      <point x="477" y="599"/>
      <point x="478" y="595" type="curve" smooth="yes"/>
      <point x="482" y="580"/>
      <point x="485" y="552"/>
      <point x="487" y="536" type="curve"/>
      <point x="559" y="541" type="line"/>
      <point x="552" y="697" type="line"/>
      <point x="533" y="715" type="line"/>
      <point x="533" y="715"/>
      <point x="439" y="705"/>
      <point x="419" y="705" type="curve" smooth="yes"/>
      <point x="151" y="705" type="line" smooth="yes"/>
      <point x="115" y="705"/>
      <point x="51" y="710"/>
      <point x="51" y="710" type="curve"/>
    </contour>
  </outline>
</glyph>
<glyph name="F" format="1">
  <advance width="569"/>
  <unicode hex="0046"/>
  <outline>
    <contour>
      <point x="552" y="697" type="line"/>
      <point x="559" y="541" type="line"/>
      <point x="487" y="536" type="line"/>
      <point x="485" y="552"/>
      <point x="482" y="580"/>
      <point x="478" y="595" type="curve"/>
      <point x="477" y="599"/>
      <point x="473" y="608"/>
      <point x="469" y="618" type="curve"/>
      <point x="449" y="620"/>
      <point x="419" y="623"/>
      <point x="389" y="623" type="curve" smooth="yes"/>
      <point x="279" y="623" type="line"/>
      <point x="278" y="605"/>
      <point x="275" y="558"/>
      <point x="275" y="542" type="curve" smooth="yes"/>
      <point x="275" y="388" type="line"/>
      <point x="286" y="387"/>
      <point x="293" y="387"/>
      <point x="299" y="387" type="curve" smooth="yes"/>
      <point x="357" y="387" type="line" smooth="yes"/>
      <point x="377" y="387"/>
      <point x="401" y="396"/>
      <point x="401" y="396" type="curve"/>
      <point x="410" y="460" type="line"/>
      <point x="472" y="455" type="line"/>
      <point x="472" y="455"/>
      <point x="471" y="392"/>
      <point x="471" y="372" type="curve" smooth="yes"/>
      <point x="471" y="322"/>
      <point x="474" y="245"/>
      <point x="474" y="245" type="curve"/>
      <point x="410" y="239" type="line"/>
      <point x="401" y="299" type="line"/>
      <point x="401" y="299"/>
      <point x="357" y="305"/>
      <point x="337" y="305" type="curve" smooth="yes"/>
      <point x="300" y="305" type="line" smooth="yes"/>
      <point x="294" y="305"/>
      <point x="283" y="305"/>
      <point x="275" y="304" type="curve"/>
      <point x="275" y="190" type="line" smooth="yes"/>
      <point x="275" y="140"/>
      <point x="280" y="94"/>
      <point x="284" y="77" type="curve"/>
      <point x="379" y="71" type="line"/>
      <point x="374" y="-5" type="line"/>
      <point x="374" y="-5"/>
      <point x="263" y="0"/>
      <point x="150" y="0" type="curve" smooth="yes"/>
      <point x="103" y="0"/>
      <point x="50" y="-5"/>
      <point x="50" y="-5" type="curve"/>
      <point x="45" y="65" type="line"/>
      <point x="111" y="77" type="line"/>
      <point x="114" y="87"/>
      <point x="120" y="143"/>
      <point x="120" y="163" type="curve" smooth="yes"/>
      <point x="120" y="512" type="line" smooth="yes"/>
      <point x="120" y="562"/>
      <point x="115" y="609"/>
      <point x="111" y="623" type="curve"/>
      <point x="46" y="635" type="line"/>
      <point x="51" y="710" type="line"/>
      <point x="51" y="710"/>
      <point x="104" y="705"/>
      <point x="151" y="705" type="curve" smooth="yes"/>
      <point x="419" y="705" type="line" smooth="yes"/>
      <point x="439" y="705"/>
      <point x="533" y="715"/>
      <point x="533" y="715" type="curve"/>
    </contour>
  </outline>
</glyph>
<glyph name="G" format="1">
  <advance width="699"/>
  <unicode hex="0047"/>
  <outline>
    <contour>
      <point x="151" y="720"/>
      <point x="27" y="570"/>
      <point x="27" y="352" type="curve" smooth="yes"/>
      <point x="27" y="134"/>
      <point x="151" y="-15"/>
      <point x="394" y="-15" type="curve" smooth="yes"/>
      <point x="484" y="-15"/>
      <point x="563" y="3"/>
      <point x="632" y="19" type="curve"/>
      <point x="632" y="196" type="line" smooth="yes"/>
      <point x="632" y="246"/>
      <point x="641" y="341"/>
      <point x="641" y="341" type="curve"/>
      <point x="613" y="366" type="line"/>
      <point x="613" y="366"/>
      <point x="531" y="363"/>
      <point x="498" y="363" type="curve" smooth="yes"/>
      <point x="387" y="363" type="line"/>
      <point x="382" y="265" type="line"/>
      <point x="488" y="257" type="line"/>
      <point x="488" y="257"/>
      <point x="498" y="216"/>
      <point x="498" y="196" type="curve" smooth="yes"/>
      <point x="498" y="128" type="line" smooth="yes"/>
      <point x="498" y="120"/>
      <point x="495" y="104"/>
      <point x="491" y="86" type="curve"/>
      <point x="458" y="81"/>
      <point x="427" y="78"/>
      <point x="393" y="78" type="curve" smooth="yes"/>
      <point x="259" y="78"/>
      <point x="207" y="200"/>
      <point x="207" y="353" type="curve" smooth="yes"/>
      <point x="207" y="506"/>
      <point x="260" y="627"/>
      <point x="394" y="627" type="curve" smooth="yes"/>
      <point x="436" y="627"/>
      <point x="472" y="622"/>
      <point x="516" y="613" type="curve"/>
      <point x="521" y="600"/>
      <point x="528" y="578"/>
      <point x="528" y="572" type="curve"/>
      <point x="531" y="525" type="line"/>
      <point x="610" y="521" type="line"/>
      <point x="623" y="686" type="line"/>
      <point x="554" y="702"/>
      <point x="485" y="720"/>
      <point x="394" y="720" type="curve" smooth="yes"/>
    </contour>
  </outline>
</glyph>
<glyph name="I" format="1">
  <advance width="405"/>
  <unicode hex="0049"/>
  <outline>
    <contour>
      <point x="355" y="629" type="line"/>
      <point x="350" y="710" type="line"/>
      <point x="350" y="710"/>
      <point x="269" y="705"/>
      <point x="156" y="705" type="curve" smooth="yes"/>
      <point x="109" y="705"/>
      <point x="56" y="710"/>
      <point x="56" y="710" type="curve"/>
      <point x="51" y="635" type="line"/>
      <point x="116" y="623" type="line"/>
      <point x="118" y="607"/>
      <point x="125" y="562"/>
      <point x="125" y="512" type="curve" smooth="yes"/>
      <point x="125" y="163" type="line" smooth="yes"/>
      <point x="125" y="143"/>
      <point x="117" y="87"/>
      <point x="116" y="77" type="curve"/>
      <point x="50" y="65" type="line"/>
      <point x="55" y="-5" type="line"/>
      <point x="55" y="-5"/>
      <point x="108" y="0"/>
      <point x="155" y="0" type="curve" smooth="yes"/>
      <point x="268" y="0"/>
      <point x="349" y="-5"/>
      <point x="349" y="-5" type="curve"/>
      <point x="354" y="71" type="line"/>
      <point x="289" y="77" type="line"/>
      <point x="287" y="91"/>
      <point x="280" y="143"/>
      <point x="280" y="193" type="curve" smooth="yes"/>
      <point x="280" y="542" type="line" smooth="yes"/>
      <point x="280" y="562"/>
      <point x="286" y="608"/>
      <point x="289" y="623" type="curve"/>
    </contour>
  </outline>
</glyph>
<glyph name="J" format="1">
  <advance width="371"/>
  <unicode hex="004A"/>
  <outline>
    <contour>
      <point x="338" y="629" type="line"/>
      <point x="333" y="710" type="line"/>
      <point x="333" y="710"/>
      <point x="252" y="705"/>
      <point x="139" y="705" type="curve" smooth="yes"/>
      <point x="92" y="705"/>
      <point x="39" y="710"/>
      <point x="39" y="710" type="curve"/>
      <point x="34" y="635" type="line"/>
      <point x="99" y="623" type="line"/>
      <point x="102" y="608"/>
      <point x="108" y="562"/>
      <point x="108" y="512" type="curve" smooth="yes"/>
      <point x="108" y="11" type="line" smooth="yes"/>
      <point x="108" y="-9"/>
      <point x="32" y="-169"/>
      <point x="32" y="-169" type="curve"/>
      <point x="86" y="-200" type="line"/>
      <point x="182" y="-111"/>
      <point x="263" y="-23"/>
      <point x="263" y="10" type="curve" smooth="yes"/>
      <point x="263" y="542" type="line" smooth="yes"/>
      <point x="263" y="562"/>
      <point x="270" y="614"/>
      <point x="272" y="623" type="curve"/>
    </contour>
    <contour>
      <point x="186" y="705" type="move" name="top"/>
    </contour>
  </outline>
</glyph>
<glyph name="K" format="1">
  <advance width="751"/>
  <unicode hex="004B"/>
  <outline>
    <contour>
      <point x="347" y="629" type="line"/>
      <point x="284" y="623" type="line"/>
      <point x="281" y="608"/>
      <point x="275" y="562"/>
      <point x="275" y="542" type="curve" smooth="yes"/>
      <point x="275" y="193" type="line" smooth="yes"/>
      <point x="275" y="143"/>
      <point x="282" y="91"/>
      <point x="284" y="77" type="curve"/>
      <point x="345" y="71" type="line"/>
      <point x="340" y="-5" type="line"/>
      <point x="340" y="-5"/>
      <point x="261" y="0"/>
      <point x="149" y="0" type="curve" smooth="yes"/>
      <point x="101" y="0"/>
      <point x="53" y="-5"/>
      <point x="53" y="-5" type="curve"/>
      <point x="48" y="65" type="line"/>
      <point x="111" y="77" type="line"/>
      <point x="112" y="87"/>
      <point x="120" y="143"/>
      <point x="120" y="163" type="curve" smooth="yes"/>
      <point x="120" y="512" type="line" smooth="yes"/>
      <point x="120" y="562"/>
      <point x="113" y="607"/>
      <point x="111" y="623" type="curve"/>
      <point x="49" y="635" type="line"/>
      <point x="54" y="710" type="line"/>
      <point x="54" y="710"/>
      <point x="102" y="705"/>
      <point x="150" y="705" type="curve" smooth="yes"/>
      <point x="262" y="705"/>
      <point x="342" y="710"/>
      <point x="342" y="710" type="curve"/>
    </contour>
    <contour>
      <point x="756" y="71" type="line"/>
      <point x="708" y="77" type="line"/>
      <point x="688" y="95"/>
      <point x="663" y="117"/>
      <point x="653" y="129" type="curve" smooth="yes"/>
      <point x="586" y="209"/>
      <point x="516" y="290"/>
      <point x="448" y="370" type="curve"/>
      <point x="577" y="546" type="line"/>
      <point x="598" y="569"/>
      <point x="628" y="599"/>
      <point x="653" y="623" type="curve"/>
      <point x="711" y="629" type="line"/>
      <point x="706" y="710" type="line"/>
      <point x="706" y="710"/>
      <point x="651" y="705"/>
      <point x="540" y="705" type="curve" smooth="yes"/>
      <point x="492" y="705"/>
      <point x="443" y="710"/>
      <point x="443" y="710" type="curve"/>
      <point x="438" y="635" type="line"/>
      <point x="469" y="629" type="line"/>
      <point x="441" y="577" type="line"/>
      <point x="279" y="353" type="line"/>
      <point x="279" y="353"/>
      <point x="408" y="188"/>
      <point x="429" y="164" type="curve"/>
      <point x="443" y="145"/>
      <point x="470" y="102"/>
      <point x="488" y="73" type="curve"/>
      <point x="449" y="65" type="line"/>
      <point x="454" y="-5" type="line"/>
      <point x="454" y="-5"/>
      <point x="501" y="0"/>
      <point x="549" y="0" type="curve" smooth="yes"/>
      <point x="661" y="0"/>
      <point x="751" y="-5"/>
      <point x="751" y="-5" type="curve"/>
    </contour>
  </outline>
</glyph>
<glyph name="L" format="1">
  <advance width="565"/>
  <unicode hex="004C"/>
  <outline>
    <contour>
      <point x="350" y="629" type="line"/>
      <point x="345" y="710" type="line"/>
      <point x="345" y="710"/>
      <point x="264" y="705"/>
      <point x="151" y="705" type="curve" smooth="yes"/>
      <point x="104" y="705"/>
      <point x="51" y="710"/>
      <point x="51" y="710" type="curve"/>
      <point x="46" y="635" type="line"/>
      <point x="111" y="623" type="line"/>
      <point x="113" y="607"/>
      <point x="120" y="562"/>
      <point x="120" y="512" type="curve" smooth="yes"/>
      <point x="120" y="163" type="line" smooth="yes"/>
      <point x="120" y="143"/>
      <point x="112" y="87"/>
      <point x="111" y="77" type="curve"/>
      <point x="45" y="65" type="line"/>
      <point x="50" y="-5" type="line"/>
      <point x="50" y="-5"/>
      <point x="103" y="0"/>
      <point x="150" y="0" type="curve" smooth="yes"/>
      <point x="407" y="0" type="line" smooth="yes"/>
      <point x="427" y="0"/>
      <point x="521" y="-4"/>
      <point x="521" y="-4" type="curve"/>
      <point x="540" y="14" type="line"/>
      <point x="555" y="190" type="line"/>
      <point x="485" y="195" type="line"/>
      <point x="483" y="179"/>
      <point x="477" y="153"/>
      <point x="473" y="138" type="curve"/>
      <point x="472" y="132"/>
      <point x="463" y="114"/>
      <point x="454" y="95" type="curve"/>
      <point x="435" y="91"/>
      <point x="406" y="87"/>
      <point x="377" y="87" type="curve" smooth="yes"/>
      <point x="283" y="87" type="line"/>
      <point x="280" y="108"/>
      <point x="275" y="151"/>
      <point x="275" y="193" type="curve" smooth="yes"/>
      <point x="275" y="542" type="line" smooth="yes"/>
      <point x="275" y="562"/>
      <point x="281" y="608"/>
      <point x="284" y="623" type="curve"/>
    </contour>
  </outline>
</glyph>
<glyph name="M" format="1">
  <advance width="980"/>
  <unicode hex="004D"/>
  <outline>
    <contour>
      <point x="665" y="705" type="line"/>
      <point x="645" y="685" type="line"/>
      <point x="645" y="685"/>
      <point x="612" y="572"/>
      <point x="604" y="549" type="curve" smooth="yes"/>
      <point x="492" y="221" type="line"/>
      <point x="389" y="534" type="line" smooth="yes"/>
      <point x="377" y="571"/>
      <point x="346" y="685"/>
      <point x="346" y="685" type="curve"/>
      <point x="326" y="705" type="line"/>
      <point x="185" y="705" type="line" smooth="yes"/>
      <point x="142" y="705"/>
      <point x="79" y="710"/>
      <point x="79" y="710" type="curve"/>
      <point x="74" y="638" type="line"/>
      <point x="141" y="626" type="line"/>
      <point x="144" y="608"/>
      <point x="147" y="581"/>
      <point x="147" y="569" type="curve"/>
      <point x="119" y="132" type="line"/>
      <point x="116" y="119"/>
      <point x="110" y="92"/>
      <point x="105" y="74" type="curve"/>
      <point x="37" y="62" type="line"/>
      <point x="42" y="-5" type="line"/>
      <point x="42" y="-5"/>
      <point x="101" y="0"/>
      <point x="143" y="0" type="curve" smooth="yes"/>
      <point x="251" y="0"/>
      <point x="297" y="-5"/>
      <point x="297" y="-5" type="curve"/>
      <point x="303" y="68" type="line"/>
      <point x="235" y="74" type="line"/>
      <point x="233" y="97"/>
      <point x="231" y="140"/>
      <point x="231" y="162" type="curve"/>
      <point x="250" y="518" type="line"/>
      <point x="429" y="0" type="line"/>
      <point x="521" y="0" type="line"/>
      <point x="705" y="518" type="line"/>
      <point x="721" y="162" type="line"/>
      <point x="721" y="140"/>
      <point x="719" y="97"/>
      <point x="717" y="74" type="curve"/>
      <point x="650" y="62" type="line"/>
      <point x="655" y="-5" type="line"/>
      <point x="655" y="-5"/>
      <point x="716" y="0"/>
      <point x="758" y="0" type="curve" smooth="yes"/>
      <point x="866" y="0"/>
      <point x="938" y="-5"/>
      <point x="938" y="-5" type="curve"/>
      <point x="943" y="68" type="line"/>
      <point x="876" y="74" type="line"/>
      <point x="872" y="92"/>
      <point x="865" y="119"/>
      <point x="863" y="132" type="curve"/>
      <point x="831" y="569" type="line"/>
      <point x="831" y="582"/>
      <point x="832" y="609"/>
      <point x="834" y="627" type="curve"/>
      <point x="898" y="638" type="line"/>
      <point x="894" y="710" type="line"/>
      <point x="894" y="710"/>
      <point x="814" y="705"/>
      <point x="762" y="705" type="curve" smooth="yes"/>
    </contour>
  </outline>
</glyph>
<glyph name="N" format="1">
  <advance width="802"/>
  <unicode hex="004E"/>
  <outline>
    <contour>
      <point x="782" y="629" type="line"/>
      <point x="716" y="623" type="line"/>
      <point x="714" y="611"/>
      <point x="707" y="562"/>
      <point x="707" y="542" type="curve" smooth="yes"/>
      <point x="707" y="193" type="line"/>
      <point x="707" y="0" type="line"/>
      <point x="572" y="0" type="line"/>
      <point x="247" y="450" type="line"/>
      <point x="247" y="193" type="line" smooth="yes"/>
      <point x="247" y="143"/>
      <point x="255" y="87"/>
      <point x="256" y="77" type="curve"/>
      <point x="321" y="71" type="line"/>
      <point x="316" y="-5" type="line"/>
      <point x="316" y="-5"/>
      <point x="263" y="0"/>
      <point x="150" y="0" type="curve" smooth="yes"/>
      <point x="103" y="0"/>
      <point x="50" y="-5"/>
      <point x="50" y="-5" type="curve"/>
      <point x="45" y="65" type="line"/>
      <point x="111" y="77" type="line"/>
      <point x="113" y="88"/>
      <point x="120" y="143"/>
      <point x="120" y="163" type="curve" smooth="yes"/>
      <point x="120" y="512" type="line" smooth="yes"/>
      <point x="120" y="562"/>
      <point x="113" y="612"/>
      <point x="111" y="623" type="curve"/>
      <point x="46" y="635" type="line"/>
      <point x="51" y="710" type="line"/>
      <point x="51" y="710"/>
      <point x="104" y="705"/>
      <point x="151" y="705" type="curve" smooth="yes"/>
      <point x="253" y="705" type="line"/>
      <point x="272" y="685" type="line"/>
      <point x="272" y="685"/>
      <point x="345" y="559"/>
      <point x="360" y="537" type="curve" smooth="yes"/>
      <point x="580" y="230" type="line"/>
      <point x="580" y="512" type="line" smooth="yes"/>
      <point x="580" y="549"/>
      <point x="573" y="607"/>
      <point x="571" y="623" type="curve"/>
      <point x="506" y="635" type="line"/>
      <point x="511" y="710" type="line"/>
      <point x="611" y="705" type="line"/>
      <point x="692" y="705"/>
      <point x="777" y="710"/>
      <point x="777" y="710" type="curve"/>
    </contour>
  </outline>
</glyph>
<glyph name="O" format="1">
  <advance width="768"/>
  <unicode hex="004F"/>
  <outline>
    <contour>
      <point x="741" y="578"/>
      <point x="601" y="724"/>
      <point x="384" y="724" type="curve"/>
      <point x="167" y="724"/>
      <point x="27" y="578"/>
      <point x="27" y="352" type="curve"/>
      <point x="27" y="127"/>
      <point x="167" y="-19"/>
      <point x="384" y="-19" type="curve" smooth="yes"/>
      <point x="601" y="-19"/>
      <point x="741" y="127"/>
      <point x="741" y="352" type="curve"/>
    </contour>
    <contour>
      <point x="207" y="539"/>
      <point x="264" y="627"/>
      <point x="384" y="627" type="curve"/>
      <point x="504" y="627"/>
      <point x="561" y="539"/>
      <point x="561" y="352" type="curve"/>
      <point x="561" y="166"/>
      <point x="504" y="78"/>
      <point x="384" y="78" type="curve" smooth="yes"/>
      <point x="264" y="78"/>
      <point x="207" y="166"/>
      <point x="207" y="352" type="curve"/>
    </contour>
    <contour>
      <point x="638" y="627" type="move" name="horn"/>
    </contour>
    <contour>
      <point x="384" y="0" type="move" name="bottom"/>
    </contour>
    <contour>
      <point x="383" y="705" type="move" name="top"/>
    </contour>
  </outline>
</glyph>
<glyph name="P" format="1">
  <advance width="616"/>
  <unicode hex="0050"/>
  <outline>
    <contour>
      <point x="330" y="271" type="line" smooth="yes"/>
      <point x="472" y="271"/>
      <point x="601" y="354"/>
      <point x="601" y="496" type="curve" smooth="yes"/>
      <point x="601" y="636"/>
      <point x="505" y="715"/>
      <point x="365" y="715" type="curve" smooth="yes"/>
      <point x="310" y="715"/>
      <point x="205" y="705"/>
      <point x="150" y="705" type="curve" smooth="yes"/>
      <point x="104" y="705"/>
      <point x="51" y="710"/>
      <point x="51" y="710" type="curve"/>
      <point x="46" y="635" type="line"/>
      <point x="111" y="623" type="line"/>
      <point x="113" y="607"/>
      <point x="120" y="562"/>
      <point x="120" y="512" type="curve" smooth="yes"/>
      <point x="120" y="163" type="line" smooth="yes"/>
      <point x="120" y="143"/>
      <point x="112" y="87"/>
      <point x="111" y="77" type="curve"/>
      <point x="45" y="65" type="line"/>
      <point x="50" y="-5" type="line"/>
      <point x="50" y="-5"/>
      <point x="103" y="0"/>
      <point x="150" y="0" type="curve" smooth="yes"/>
      <point x="263" y="0"/>
      <point x="354" y="-5"/>
      <point x="354" y="-5" type="curve"/>
      <point x="359" y="71" type="line"/>
      <point x="284" y="77" type="line"/>
      <point x="282" y="91"/>
      <point x="275" y="143"/>
      <point x="275" y="193" type="curve" smooth="yes"/>
      <point x="275" y="271" type="line"/>
    </contour>
    <contour>
      <point x="440" y="405"/>
      <point x="383" y="353"/>
      <point x="292" y="353" type="curve" smooth="yes"/>
      <point x="275" y="353" type="line"/>
      <point x="275" y="542" type="line" smooth="yes"/>
      <point x="275" y="558"/>
      <point x="278" y="606"/>
      <point x="280" y="632" type="curve"/>
      <point x="307" y="633" type="line"/>
      <point x="400" y="633"/>
      <point x="440" y="591"/>
      <point x="440" y="497" type="curve" smooth="yes"/>
    </contour>
  </outline>
</glyph>
<glyph name="R" format="1">
  <advance width="661"/>
  <unicode hex="0052"/>
  <outline>
    <contour>
      <point x="662" y="71" type="line"/>
      <point x="614" y="75" type="line"/>
      <point x="601" y="96"/>
      <point x="586" y="119"/>
      <point x="579" y="131" type="curve"/>
      <point x="575" y="139"/>
      <point x="519" y="221"/>
      <point x="473" y="314" type="curve"/>
      <point x="544" y="353"/>
      <point x="594" y="419"/>
      <point x="594" y="504" type="curve" smooth="yes"/>
      <point x="594" y="636"/>
      <point x="499" y="715"/>
      <point x="360" y="715" type="curve" smooth="yes"/>
      <point x="306" y="715"/>
      <point x="211" y="705"/>
      <point x="154" y="705" type="curve" smooth="yes"/>
      <point x="104" y="705"/>
      <point x="51" y="710"/>
      <point x="51" y="710" type="curve"/>
      <point x="46" y="635" type="line"/>
      <point x="111" y="623" type="line"/>
      <point x="114" y="604"/>
      <point x="120" y="561"/>
      <point x="120" y="512" type="curve" smooth="yes"/>
      <point x="120" y="163" type="line" smooth="yes"/>
      <point x="120" y="143"/>
      <point x="112" y="87"/>
      <point x="111" y="77" type="curve"/>
      <point x="45" y="65" type="line"/>
      <point x="50" y="-5" type="line"/>
      <point x="50" y="-5"/>
      <point x="103" y="0"/>
      <point x="150" y="0" type="curve" smooth="yes"/>
      <point x="263" y="0"/>
      <point x="344" y="-5"/>
      <point x="344" y="-5" type="curve"/>
      <point x="349" y="71" type="line"/>
      <point x="284" y="77" type="line"/>
      <point x="282" y="91"/>
      <point x="275" y="143"/>
      <point x="275" y="193" type="curve" smooth="yes"/>
      <point x="275" y="280" type="line"/>
      <point x="293" y="278"/>
      <point x="308" y="277"/>
      <point x="319" y="277" type="curve" smooth="yes"/>
      <point x="334" y="277" type="line"/>
      <point x="417" y="116" type="line" smooth="yes"/>
      <point x="430" y="92"/>
      <point x="466" y="0"/>
      <point x="466" y="0" type="curve"/>
      <point x="579" y="0"/>
      <point x="657" y="-5"/>
      <point x="657" y="-5" type="curve"/>
    </contour>
    <contour>
      <point x="275" y="361" type="line"/>
      <point x="275" y="542" type="line" smooth="yes"/>
      <point x="275" y="557"/>
      <point x="278" y="602"/>
      <point x="281" y="632" type="curve"/>
      <point x="302" y="633" type="line"/>
      <point x="392" y="633"/>
      <point x="433" y="590"/>
      <point x="433" y="502" type="curve" smooth="yes"/>
      <point x="433" y="410"/>
      <point x="394" y="361"/>
      <point x="299" y="361" type="curve" smooth="yes"/>
    </contour>
  </outline>
</glyph>
<glyph name="S" format="1">
  <advance width="573"/>
  <unicode hex="0053"/>
  <outline>
    <contour>
      <point x="59" y="226" type="line"/>
      <point x="44" y="33" type="line"/>
      <point x="44" y="33"/>
      <point x="142" y="-15"/>
      <point x="277" y="-15" type="curve" smooth="yes"/>
      <point x="421" y="-15"/>
      <point x="534" y="67"/>
      <point x="534" y="204" type="curve" smooth="yes"/>
      <point x="534" y="434"/>
      <point x="216" y="412"/>
      <point x="216" y="546" type="curve" smooth="yes"/>
      <point x="216" y="597"/>
      <point x="256" y="627"/>
      <point x="316" y="627" type="curve" smooth="yes"/>
      <point x="352" y="627"/>
      <point x="375" y="616"/>
      <point x="397" y="604" type="curve"/>
      <point x="404" y="587"/>
      <point x="409" y="574"/>
      <point x="409" y="570" type="curve" smooth="yes"/>
      <point x="409" y="560"/>
      <point x="409" y="496"/>
      <point x="409" y="496" type="curve"/>
      <point x="492" y="491" type="line"/>
      <point x="506" y="684" type="line"/>
      <point x="436" y="705"/>
      <point x="356" y="720"/>
      <point x="286" y="720" type="curve" smooth="yes"/>
      <point x="150" y="720"/>
      <point x="51" y="644"/>
      <point x="51" y="521" type="curve" smooth="yes"/>
      <point x="51" y="283"/>
      <point x="369" y="313"/>
      <point x="369" y="166" type="curve" smooth="yes"/>
      <point x="369" y="109"/>
      <point x="322" y="82"/>
      <point x="265" y="82" type="curve" smooth="yes"/>
      <point x="214" y="82"/>
      <point x="178" y="99"/>
      <point x="157" y="110" type="curve"/>
      <point x="150" y="127"/>
      <point x="143" y="145"/>
      <point x="143" y="151" type="curve" smooth="yes"/>
      <point x="143" y="163"/>
      <point x="142" y="221"/>
      <point x="142" y="221" type="curve"/>
    </contour>
    <contour>
      <point x="290" y="705" type="move" name="top"/>
    </contour>
    <contour>
      <point x="278" y="0" type="move" name="bottom"/>
    </contour>
  </outline>
</glyph>
<glyph name="U" format="1">
  <advance width="779"/>
  <unicode hex="0055"/>
  <outline>
    <contour>
      <point x="754" y="629" type="line"/>
      <point x="749" y="710" type="line"/>
      <point x="749" y="710"/>
      <point x="691" y="705"/>
      <point x="578" y="705" type="curve" smooth="yes"/>
      <point x="531" y="705"/>
      <point x="478" y="710"/>
      <point x="478" y="710" type="curve"/>
      <point x="473" y="635" type="line"/>
      <point x="538" y="623" type="line"/>
      <point x="540" y="608"/>
      <point x="547" y="562"/>
      <point x="547" y="512" type="curve" smooth="yes"/>
      <point x="547" y="260" type="line" smooth="yes"/>
      <point x="547" y="160"/>
      <point x="511" y="99"/>
      <point x="406" y="99" type="curve" smooth="yes"/>
      <point x="311" y="99"/>
      <point x="260" y="170"/>
      <point x="260" y="260" type="curve" smooth="yes"/>
      <point x="260" y="542" type="line" smooth="yes"/>
      <point x="260" y="562"/>
      <point x="266" y="612"/>
      <point x="269" y="623" type="curve"/>
      <point x="335" y="629" type="line"/>
      <point x="330" y="710" type="line"/>
      <point x="330" y="710"/>
      <point x="244" y="705"/>
      <point x="131" y="705" type="curve" smooth="yes"/>
      <point x="84" y="705"/>
      <point x="31" y="710"/>
      <point x="31" y="710" type="curve"/>
      <point x="26" y="635" type="line"/>
      <point x="91" y="623" type="line"/>
      <point x="94" y="609"/>
      <point x="100" y="562"/>
      <point x="100" y="512" type="curve" smooth="yes"/>
      <point x="100" y="268" type="line" smooth="yes"/>
      <point x="100" y="97"/>
      <point x="198" y="-15"/>
      <point x="389" y="-15" type="curve" smooth="yes"/>
      <point x="579" y="-15"/>
      <point x="679" y="97"/>
      <point x="679" y="268" type="curve" smooth="yes"/>
      <point x="679" y="542" type="line" smooth="yes"/>
      <point x="679" y="562"/>
      <point x="685" y="609"/>
      <point x="688" y="623" type="curve"/>
    </contour>
  </outline>
</glyph>
<glyph name="V" format="1">
  <advance width="707"/>
  <unicode hex="0056"/>
  <outline>
    <contour>
      <point x="295" y="0" type="line"/>
      <point x="410" y="0" type="line"/>
      <point x="610" y="544" type="line" smooth="yes"/>
      <point x="621" y="574"/>
      <point x="655" y="630"/>
      <point x="655" y="630" type="curve"/>
      <point x="705" y="637" type="line"/>
      <point x="700" y="710" type="line"/>
      <point x="700" y="710"/>
      <point x="636" y="705"/>
      <point x="553" y="705" type="curve" smooth="yes"/>
      <point x="506" y="705"/>
      <point x="443" y="710"/>
      <point x="443" y="710" type="curve"/>
      <point x="438" y="640" type="line"/>
      <point x="502" y="628" type="line"/>
      <point x="502" y="628"/>
      <point x="502" y="610"/>
      <point x="495" y="590" type="curve" smooth="yes"/>
      <point x="368" y="207" type="line"/>
      <point x="252" y="576" type="line" smooth="yes"/>
      <point x="246" y="594"/>
      <point x="244" y="628"/>
      <point x="244" y="628" type="curve"/>
      <point x="309" y="637" type="line"/>
      <point x="304" y="710" type="line"/>
      <point x="304" y="710"/>
      <point x="209" y="705"/>
      <point x="96" y="705" type="curve" smooth="yes"/>
      <point x="59" y="705"/>
      <point x="4" y="710"/>
      <point x="4" y="710" type="curve"/>
      <point x="-1" y="640" type="line"/>
      <point x="59" y="631" type="line"/>
      <point x="59" y="631"/>
      <point x="77" y="602"/>
      <point x="86" y="577" type="curve" smooth="yes"/>
    </contour>
  </outline>
</glyph>
<glyph name="W" format="1">
  <advance width="1029"/>
  <unicode hex="0057"/>
  <outline>
    <contour>
      <point x="1024" y="637" type="line"/>
      <point x="1019" y="710" type="line"/>
      <point x="1019" y="710"/>
      <point x="955" y="705"/>
      <point x="872" y="705" type="curve" smooth="yes"/>
      <point x="825" y="705"/>
      <point x="762" y="710"/>
      <point x="762" y="710" type="curve"/>
      <point x="757" y="640" type="line"/>
      <point x="821" y="628" type="line"/>
      <point x="821" y="628"/>
      <point x="825" y="612"/>
      <point x="819" y="590" type="curve"/>
      <point x="718" y="207" type="line"/>
      <point x="587" y="675" type="line"/>
      <point x="474" y="675" type="line"/>
      <point x="341" y="207" type="line"/>
      <point x="251" y="576" type="line"/>
      <point x="245" y="602"/>
      <point x="247" y="628"/>
      <point x="247" y="628" type="curve"/>
      <point x="312" y="637" type="line"/>
      <point x="307" y="710" type="line"/>
      <point x="307" y="710"/>
      <point x="212" y="705"/>
      <point x="99" y="705" type="curve" smooth="yes"/>
      <point x="62" y="705"/>
      <point x="7" y="710"/>
      <point x="7" y="710" type="curve"/>
      <point x="2" y="640" type="line"/>
      <point x="62" y="631" type="line"/>
      <point x="62" y="631"/>
      <point x="75" y="608"/>
      <point x="85" y="577" type="curve"/>
      <point x="268" y="0" type="line"/>
      <point x="383" y="0" type="line"/>
      <point x="517" y="423" type="line"/>
      <point x="645" y="0" type="line"/>
      <point x="760" y="0" type="line"/>
      <point x="934" y="544" type="line"/>
      <point x="947" y="584"/>
      <point x="974" y="630"/>
      <point x="974" y="630" type="curve"/>
    </contour>
    <contour>
      <point x="515" y="705" type="move" name="top"/>
    </contour>
  </outline>
</glyph>
<glyph name="X" format="1">
  <advance width="697"/>
  <unicode hex="0058"/>
  <outline>
    <contour>
      <point x="265" y="343" type="line"/>
      <point x="141" y="164" type="line" smooth="yes"/>
      <point x="127" y="144"/>
      <point x="86" y="102"/>
      <point x="59" y="74" type="curve"/>
      <point x="7" y="65" type="line"/>
      <point x="11" y="-5" type="line"/>
      <point x="11" y="-5"/>
      <point x="64" y="0"/>
      <point x="111" y="0" type="curve" smooth="yes"/>
      <point x="194" y="0"/>
      <point x="258" y="-5"/>
      <point x="258" y="-5" type="curve"/>
      <point x="264" y="71" type="line"/>
      <point x="215" y="75" type="line"/>
      <point x="225" y="96"/>
      <point x="237" y="119"/>
      <point x="246" y="132" type="curve" smooth="yes"/>
      <point x="328" y="253" type="line"/>
      <point x="406" y="142" type="line"/>
      <point x="418" y="127"/>
      <point x="433" y="97"/>
      <point x="445" y="72" type="curve"/>
      <point x="408" y="65" type="line"/>
      <point x="412" y="-5" type="line"/>
      <point x="412" y="-5"/>
      <point x="463" y="0"/>
      <point x="500" y="0" type="curve" smooth="yes"/>
      <point x="613" y="0"/>
      <point x="695" y="-5"/>
      <point x="695" y="-5" type="curve"/>
      <point x="701" y="71" type="line"/>
      <point x="650" y="76" type="line"/>
      <point x="631" y="96"/>
      <point x="612" y="119"/>
      <point x="601" y="132" type="curve"/>
      <point x="427" y="378" type="line"/>
      <point x="552" y="569" type="line"/>
      <point x="563" y="583"/>
      <point x="590" y="608"/>
      <point x="611" y="628" type="curve"/>
      <point x="676" y="636" type="line"/>
      <point x="672" y="710" type="line"/>
      <point x="672" y="710"/>
      <point x="608" y="705"/>
      <point x="525" y="705" type="curve" smooth="yes"/>
      <point x="478" y="705"/>
      <point x="425" y="710"/>
      <point x="425" y="710" type="curve"/>
      <point x="419" y="640" type="line"/>
      <point x="460" y="632" type="line"/>
      <point x="451" y="612"/>
      <point x="440" y="591"/>
      <point x="431" y="578" type="curve" smooth="yes"/>
      <point x="363" y="469" type="line"/>
      <point x="306" y="555" type="line"/>
      <point x="294" y="572"/>
      <point x="276" y="607"/>
      <point x="265" y="631" type="curve"/>
      <point x="307" y="636" type="line"/>
      <point x="304" y="710" type="line"/>
      <point x="304" y="710"/>
      <point x="222" y="705"/>
      <point x="109" y="705" type="curve" smooth="yes"/>
      <point x="72" y="705"/>
      <point x="15" y="710"/>
      <point x="15" y="710" type="curve"/>
      <point x="9" y="640" type="line"/>
      <point x="62" y="632" type="line"/>
      <point x="79" y="609"/>
      <point x="102" y="576"/>
      <point x="115" y="558" type="curve" smooth="yes"/>
    </contour>
  </outline>
</glyph>
<glyph name="Y" format="1">
  <advance width="712"/>
  <unicode hex="0059"/>
  <outline>
    <contour>
      <point x="710" y="637" type="line"/>
      <point x="705" y="710" type="line"/>
      <point x="705" y="710"/>
      <point x="641" y="705"/>
      <point x="558" y="705" type="curve" smooth="yes"/>
      <point x="511" y="705"/>
      <point x="448" y="710"/>
      <point x="448" y="710" type="curve"/>
      <point x="443" y="640" type="line"/>
      <point x="487" y="628" type="line"/>
      <point x="487" y="628"/>
      <point x="487" y="598"/>
      <point x="483" y="590" type="curve"/>
      <point x="373" y="369" type="line"/>
      <point x="268" y="576" type="line"/>
      <point x="258" y="595"/>
      <point x="251" y="628"/>
      <point x="251" y="628" type="curve"/>
      <point x="304" y="637" type="line"/>
      <point x="299" y="710" type="line"/>
      <point x="299" y="710"/>
      <point x="204" y="705"/>
      <point x="91" y="705" type="curve" smooth="yes"/>
      <point x="54" y="705"/>
      <point x="-1" y="710"/>
      <point x="-1" y="710" type="curve"/>
      <point x="-6" y="640" type="line"/>
      <point x="54" y="631" type="line"/>
      <point x="54" y="631"/>
      <point x="88" y="601"/>
      <point x="102" y="577" type="curve"/>
      <point x="300" y="212" type="line"/>
      <point x="415" y="212" type="line"/>
      <point x="588" y="544" type="line"/>
      <point x="605" y="576"/>
      <point x="650" y="630"/>
      <point x="650" y="630" type="curve"/>
    </contour>
    <contour>
      <point x="435" y="307" type="line"/>
      <point x="280" y="307" type="line"/>
      <point x="280" y="163" type="line" smooth="yes"/>
      <point x="280" y="143"/>
      <point x="272" y="87"/>
      <point x="271" y="77" type="curve"/>
      <point x="205" y="65" type="line"/>
      <point x="210" y="-5" type="line"/>
      <point x="210" y="-5"/>
      <point x="263" y="0"/>
      <point x="310" y="0" type="curve" smooth="yes"/>
      <point x="423" y="0"/>
      <point x="504" y="-5"/>
      <point x="504" y="-5" type="curve"/>
      <point x="509" y="71" type="line"/>
      <point x="444" y="77" type="line"/>
      <point x="442" y="91"/>
      <point x="435" y="143"/>
      <point x="435" y="193" type="curve" smooth="yes"/>
    </contour>
    <contour>
      <point x="356" y="705" type="move" name="top"/>
    </contour>
    <contour>
      <point x="350" y="0" type="move" name="bottom"/>
    </contour>
  </outline>
</glyph>
<glyph name="Z" format="1">
  <advance width="611"/>
  <unicode hex="005A"/>
  <outline>
    <contour>
      <point x="368" y="616" type="line"/>
      <point x="318" y="516" type="line"/>
      <point x="143" y="237" type="line" smooth="yes"/>
      <point x="119" y="196"/>
      <point x="32" y="80"/>
      <point x="32" y="80" type="curve"/>
      <point x="42" y="0" type="line"/>
      <point x="428" y="0" type="line" smooth="yes"/>
      <point x="448" y="0"/>
      <point x="543" y="-4"/>
      <point x="543" y="-4" type="curve"/>
      <point x="563" y="14" type="line"/>
      <point x="578" y="198" type="line"/>
      <point x="510" y="203" type="line"/>
      <point x="508" y="187"/>
      <point x="501" y="159"/>
      <point x="497" y="144" type="curve"/>
      <point x="496" y="138"/>
      <point x="487" y="118"/>
      <point x="477" y="97" type="curve"/>
      <point x="456" y="93"/>
      <point x="422" y="89"/>
      <point x="393" y="89" type="curve" smooth="yes"/>
      <point x="236" y="89" type="line"/>
      <point x="300" y="212" type="line"/>
      <point x="456" y="464" type="line"/>
      <point x="563" y="625" type="line"/>
      <point x="553" y="705" type="line"/>
      <point x="174" y="705" type="line" smooth="yes"/>
      <point x="154" y="705"/>
      <point x="59" y="715"/>
      <point x="59" y="715" type="curve"/>
      <point x="39" y="697" type="line"/>
      <point x="32" y="512" type="line"/>
      <point x="104" y="507" type="line"/>
      <point x="106" y="524"/>
      <point x="115" y="568"/>
      <point x="119" y="583" type="curve"/>
      <point x="132" y="611" type="line"/>
      <point x="152" y="613"/>
      <point x="184" y="616"/>
      <point x="215" y="616" type="curve" smooth="yes"/>
    </contour>
  </outline>
</glyph>
<glyph name="bracketleft" format="1">
  <advance width="265"/>
  <unicode hex="005B"/>
  <outline>
    <contour>
      <point x="157" y="40" type="line"/>
      <point x="157" y="0"/>
      <point x="166" y="-50"/>
      <point x="166" y="-50" type="curve"/>
      <point x="235" y="-59" type="line"/>
      <point x="232" y="-125" type="line"/>
      <point x="232" y="-125"/>
      <point x="133" y="-121"/>
      <point x="64" y="-121" type="curve"/>
      <point x="40" y="-92" type="line"/>
      <point x="40" y="-92"/>
      <point x="45" y="74"/>
      <point x="45" y="94" type="curve" smooth="yes"/>
      <point x="45" y="551" type="line" smooth="yes"/>
      <point x="45" y="571"/>
      <point x="40" y="733"/>
      <point x="40" y="733" type="curve"/>
      <point x="64" y="762" type="line"/>
      <point x="133" y="762"/>
      <point x="232" y="766"/>
      <point x="232" y="766" type="curve"/>
      <point x="235" y="700" type="line"/>
      <point x="166" y="691" type="line"/>
      <point x="166" y="691"/>
      <point x="157" y="641"/>
      <point x="157" y="601" type="curve" smooth="yes"/>
    </contour>
  </outline>
</glyph>
<glyph name="bracketright" format="1">
  <advance width="265"/>
  <unicode hex="005D"/>
  <outline>
    <contour>
      <point x="108" y="601" type="line"/>
      <point x="108" y="641"/>
      <point x="99" y="691"/>
      <point x="99" y="691" type="curve"/>
      <point x="30" y="700" type="line"/>
      <point x="33" y="766" type="line"/>
      <point x="33" y="766"/>
      <point x="132" y="762"/>
      <point x="201" y="762" type="curve"/>
      <point x="225" y="733" type="line"/>
      <point x="225" y="733"/>
      <point x="220" y="571"/>
      <point x="220" y="551" type="curve" smooth="yes"/>
      <point x="220" y="94" type="line" smooth="yes"/>
      <point x="220" y="74"/>
      <point x="225" y="-92"/>
      <point x="225" y="-92" type="curve"/>
      <point x="201" y="-121" type="line"/>
      <point x="132" y="-121"/>
      <point x="33" y="-125"/>
      <point x="33" y="-125" type="curve"/>
      <point x="30" y="-59" type="line"/>
      <point x="99" y="-50" type="line"/>
      <point x="99" y="-50"/>
      <point x="108" y="0"/>
      <point x="108" y="40" type="curve"/>
    </contour>
  </outline>
</glyph>
<glyph name="grave" format="1">
  <advance width="360"/>
  <unicode hex="0060"/>
  <outline>
    <contour>
      <point x="260" y="565" type="line"/>
      <point x="307" y="623" type="line"/>
      <point x="100" y="755" type="line"/>
      <point x="53" y="679" type="line"/>
      <point x="53" y="679"/>
      <point x="175" y="623"/>
      <point x="193" y="614" type="curve"/>
    </contour>
  </outline>
</glyph>
<glyph name="a" format="1">
  <advance width="523"/>
  <unicode hex="0061"/>
  <outline>
    <contour>
      <point x="321" y="0" type="line"/>
      <point x="456" y="0"/>
      <point x="505" y="-5"/>
      <point x="505" y="-5" type="curve"/>
      <point x="511" y="71" type="line"/>
      <point x="451" y="77" type="line"/>
      <point x="451" y="77"/>
      <point x="442" y="143"/>
      <point x="442" y="193" type="curve" smooth="yes"/>
      <point x="442" y="323" type="line" smooth="yes"/>
      <point x="442" y="437"/>
      <point x="365" y="503"/>
      <point x="233" y="503" type="curve" smooth="yes"/>
      <point x="189" y="503"/>
      <point x="110" y="491"/>
      <point x="50" y="476" type="curve"/>
      <point x="65" y="307" type="line"/>
      <point x="140" y="310" type="line"/>
      <point x="139" y="353" type="line"/>
      <point x="146" y="393" type="line"/>
      <point x="169" y="404"/>
      <point x="203" y="412"/>
      <point x="227" y="412" type="curve" smooth="yes"/>
      <point x="281" y="412"/>
      <point x="302" y="387"/>
      <point x="302" y="322" type="curve" smooth="yes"/>
      <point x="302" y="293" type="line"/>
      <point x="160" y="270" type="line" smooth="yes"/>
      <point x="72" y="256"/>
      <point x="28" y="210"/>
      <point x="28" y="132" type="curve" smooth="yes"/>
      <point x="28" y="44"/>
      <point x="84" y="-10"/>
      <point x="175" y="-10" type="curve" smooth="yes"/>
      <point x="238" y="-10"/>
      <point x="282" y="16"/>
      <point x="313" y="72" type="curve"/>
    </contour>
    <contour>
      <point x="302" y="228" type="line"/>
      <point x="302" y="157" type="line"/>
      <point x="292" y="117"/>
      <point x="265" y="93"/>
      <point x="230" y="93" type="curve" smooth="yes"/>
      <point x="193" y="93"/>
      <point x="176" y="113"/>
      <point x="176" y="154" type="curve" smooth="yes"/>
      <point x="176" y="191"/>
      <point x="191" y="209"/>
      <point x="228" y="216" type="curve" smooth="yes"/>
    </contour>
    <contour>
      <point x="461" y="10" type="move" name="ogonek"/>
    </contour>
    <contour>
      <point x="245" y="0" type="move" name="bottom"/>
    </contour>
    <contour>
      <point x="242" y="494" type="move" name="top"/>
    </contour>
  </outline>
</glyph>
<glyph name="b" format="1">
  <advance width="574"/>
  <unicode hex="0062"/>
  <outline>
    <contour>
      <point x="-8" y="691" type="line"/>
      <point x="67" y="674" type="line"/>
      <point x="67" y="674"/>
      <point x="77" y="607"/>
      <point x="77" y="587" type="curve" smooth="yes"/>
      <point x="77" y="163" type="line" smooth="yes"/>
      <point x="77" y="143"/>
      <point x="67" y="26"/>
      <point x="67" y="26" type="curve"/>
      <point x="162" y="-2"/>
      <point x="234" y="-10"/>
      <point x="298" y="-10" type="curve" smooth="yes"/>
      <point x="462" y="-10"/>
      <point x="549" y="90"/>
      <point x="549" y="254" type="curve" smooth="yes"/>
      <point x="549" y="392"/>
      <point x="497" y="503"/>
      <point x="359" y="503" type="curve" smooth="yes"/>
      <point x="293" y="503"/>
      <point x="251" y="476"/>
      <point x="217" y="433" type="curve"/>
      <point x="217" y="557" type="line" smooth="yes"/>
      <point x="217" y="607"/>
      <point x="227" y="739"/>
      <point x="227" y="739" type="curve"/>
      <point x="206" y="758" type="line"/>
      <point x="118" y="756" type="line" smooth="yes"/>
      <point x="76" y="756"/>
      <point x="1" y="766"/>
      <point x="1" y="766" type="curve"/>
    </contour>
    <contour>
      <point x="379" y="390"/>
      <point x="390" y="315"/>
      <point x="390" y="241" type="curve" smooth="yes"/>
      <point x="390" y="153"/>
      <point x="374" y="85"/>
      <point x="286" y="85" type="curve" smooth="yes"/>
      <point x="265" y="85"/>
      <point x="242" y="91"/>
      <point x="220" y="98" type="curve"/>
      <point x="219" y="124"/>
      <point x="217" y="163"/>
      <point x="217" y="193" type="curve" smooth="yes"/>
      <point x="217" y="260" type="line" smooth="yes"/>
      <point x="221" y="331"/>
      <point x="243" y="390"/>
      <point x="305" y="390" type="curve" smooth="yes"/>
    </contour>
  </outline>
</glyph>
<glyph name="c" format="1">
  <advance width="466"/>
  <unicode hex="0063"/>
  <outline>
    <contour>
      <point x="118" y="503"/>
      <point x="25" y="405"/>
      <point x="25" y="245" type="curve" smooth="yes"/>
      <point x="25" y="76"/>
      <point x="112" y="-15"/>
      <point x="275" y="-15" type="curve" smooth="yes"/>
      <point x="339" y="-15"/>
      <point x="405" y="11"/>
      <point x="456" y="56" type="curve"/>
      <point x="421" y="114" type="line"/>
      <point x="421" y="114"/>
      <point x="373" y="82"/>
      <point x="304" y="82" type="curve" smooth="yes"/>
      <point x="224" y="82"/>
      <point x="184" y="136"/>
      <point x="184" y="245" type="curve" smooth="yes"/>
      <point x="184" y="368"/>
      <point x="214" y="424"/>
      <point x="279" y="424" type="curve" smooth="yes"/>
      <point x="300" y="424"/>
      <point x="326" y="414"/>
      <point x="344" y="398" type="curve"/>
      <point x="346" y="385"/>
      <point x="347" y="372"/>
      <point x="348" y="359" type="curve"/>
      <point x="347" y="305" type="line"/>
      <point x="432" y="302" type="line"/>
      <point x="447" y="479" type="line"/>
      <point x="447" y="479"/>
      <point x="358" y="503"/>
      <point x="270" y="503" type="curve" smooth="yes"/>
    </contour>
  </outline>
</glyph>
<glyph name="d" format="1">
  <advance width="588"/>
  <unicode hex="0064"/>
  <outline>
    <contour>
      <point x="565" y="71" type="line"/>
      <point x="505" y="77" type="line"/>
      <point x="505" y="77"/>
      <point x="496" y="143"/>
      <point x="496" y="193" type="curve" smooth="yes"/>
      <point x="496" y="557" type="line" smooth="yes"/>
      <point x="496" y="607"/>
      <point x="506" y="739"/>
      <point x="506" y="739" type="curve"/>
      <point x="485" y="758" type="line"/>
      <point x="397" y="756" type="line" smooth="yes"/>
      <point x="355" y="756"/>
      <point x="280" y="766"/>
      <point x="280" y="766" type="curve"/>
      <point x="271" y="691" type="line"/>
      <point x="346" y="674" type="line"/>
      <point x="346" y="674"/>
      <point x="356" y="607"/>
      <point x="356" y="587" type="curve" smooth="yes"/>
      <point x="356" y="498" type="line"/>
      <point x="327" y="501"/>
      <point x="299" y="503"/>
      <point x="275" y="503" type="curve" smooth="yes"/>
      <point x="115" y="503"/>
      <point x="24" y="407"/>
      <point x="24" y="239" type="curve" smooth="yes"/>
      <point x="24" y="80"/>
      <point x="92" y="-10"/>
      <point x="214" y="-10" type="curve" smooth="yes"/>
      <point x="279" y="-10"/>
      <point x="325" y="15"/>
      <point x="367" y="75" type="curve"/>
      <point x="375" y="0" type="line"/>
      <point x="510" y="0"/>
      <point x="559" y="-5"/>
      <point x="559" y="-5" type="curve"/>
    </contour>
    <contour>
      <point x="356" y="233" type="line"/>
      <point x="351" y="147"/>
      <point x="321" y="103"/>
      <point x="268" y="103" type="curve" smooth="yes"/>
      <point x="210" y="103"/>
      <point x="183" y="150"/>
      <point x="183" y="252" type="curve" smooth="yes"/>
      <point x="183" y="362"/>
      <point x="214" y="408"/>
      <point x="287" y="408" type="curve" smooth="yes"/>
      <point x="305" y="408"/>
      <point x="328" y="404"/>
      <point x="356" y="395" type="curve"/>
    </contour>
  </outline>
</glyph>
<glyph name="f" format="1">
  <advance width="361"/>
  <unicode hex="0066"/>
  <outline>
    <contour>
      <point x="171" y="770"/>
      <point x="100" y="690"/>
      <point x="100" y="580" type="curve" smooth="yes"/>
      <point x="100" y="501" type="line"/>
      <point x="83" y="494"/>
      <point x="64" y="490"/>
      <point x="40" y="482" type="curve"/>
      <point x="43" y="419" type="line"/>
      <point x="100" y="419" type="line"/>
      <point x="100" y="163" type="line" smooth="yes"/>
      <point x="100" y="143"/>
      <point x="91" y="77"/>
      <point x="91" y="77" type="curve"/>
      <point x="35" y="65" type="line"/>
      <point x="40" y="-5" type="line"/>
      <point x="40" y="-5"/>
      <point x="93" y="0"/>
      <point x="140" y="0" type="curve" smooth="yes"/>
      <point x="253" y="0"/>
      <point x="329" y="-5"/>
      <point x="329" y="-5" type="curve"/>
      <point x="334" y="71" type="line"/>
      <point x="249" y="77" type="line"/>
      <point x="249" y="77"/>
      <point x="240" y="143"/>
      <point x="240" y="193" type="curve" smooth="yes"/>
      <point x="240" y="419" type="line"/>
      <point x="342" y="419" type="line"/>
      <point x="351" y="494" type="line"/>
      <point x="240" y="494" type="line"/>
      <point x="240" y="570" type="line" smooth="yes"/>
      <point x="240" y="650"/>
      <point x="248" y="689"/>
      <point x="298" y="689" type="curve" smooth="yes"/>
      <point x="313" y="689"/>
      <point x="326" y="685"/>
      <point x="335" y="681" type="curve"/>
      <point x="337" y="666"/>
      <point x="339" y="646"/>
      <point x="339" y="637" type="curve"/>
      <point x="339" y="592" type="line"/>
      <point x="413" y="589" type="line"/>
      <point x="428" y="756" type="line"/>
      <point x="428" y="756"/>
      <point x="350" y="770"/>
      <point x="281" y="770" type="curve" smooth="yes"/>
    </contour>
  </outline>
</glyph>
<glyph name="g" format="1">
  <advance width="524"/>
  <unicode hex="0067"/>
  <outline>
    <contour>
      <point x="505" y="418" type="line"/>
      <point x="501" y="504" type="line"/>
      <point x="370" y="482" type="line"/>
      <point x="339" y="496"/>
      <point x="302" y="503"/>
      <point x="261" y="503" type="curve" smooth="yes"/>
      <point x="132" y="503"/>
      <point x="46" y="430"/>
      <point x="46" y="320" type="curve" smooth="yes"/>
      <point x="46" y="252"/>
      <point x="80" y="198"/>
      <point x="137" y="168" type="curve"/>
      <point x="96" y="128"/>
      <point x="76" y="102"/>
      <point x="76" y="88" type="curve" smooth="yes"/>
      <point x="76" y="45"/>
      <point x="89" y="17"/>
      <point x="119" y="-4" type="curve"/>
      <point x="65" y="-35"/>
      <point x="27" y="-70"/>
      <point x="27" y="-92" type="curve" smooth="yes"/>
      <point x="27" y="-186"/>
      <point x="101" y="-235"/>
      <point x="247" y="-235" type="curve" smooth="yes"/>
      <point x="397" y="-235"/>
      <point x="515" y="-149"/>
      <point x="515" y="-39" type="curve" smooth="yes"/>
      <point x="515" y="10"/>
      <point x="497" y="41"/>
      <point x="463" y="54" type="curve" smooth="yes"/>
      <point x="438" y="63"/>
      <point x="395" y="69"/>
      <point x="258" y="84" type="curve" smooth="yes"/>
      <point x="198" y="90"/>
      <point x="175" y="100"/>
      <point x="175" y="122" type="curve" smooth="yes"/>
      <point x="175" y="128"/>
      <point x="179" y="137"/>
      <point x="189" y="149" type="curve"/>
      <point x="209" y="144"/>
      <point x="232" y="141"/>
      <point x="257" y="141" type="curve" smooth="yes"/>
      <point x="386" y="141"/>
      <point x="472" y="214"/>
      <point x="472" y="324" type="curve" smooth="yes"/>
      <point x="472" y="365"/>
      <point x="464" y="391"/>
      <point x="446" y="418" type="curve"/>
    </contour>
    <contour>
      <point x="301" y="437"/>
      <point x="320" y="401"/>
      <point x="320" y="326" type="curve" smooth="yes"/>
      <point x="320" y="245"/>
      <point x="300" y="207"/>
      <point x="258" y="207" type="curve" smooth="yes"/>
      <point x="218" y="207"/>
      <point x="198" y="243"/>
      <point x="198" y="318" type="curve" smooth="yes"/>
      <point x="198" y="399"/>
      <point x="219" y="437"/>
      <point x="261" y="437" type="curve" smooth="yes"/>
    </contour>
    <contour>
      <point x="193" y="-32"/>
      <point x="210" y="-35"/>
      <point x="230" y="-38" type="curve" smooth="yes"/>
      <point x="360" y="-58" type="line" smooth="yes"/>
      <point x="381" y="-61"/>
      <point x="393" y="-74"/>
      <point x="393" y="-92" type="curve" smooth="yes"/>
      <point x="393" y="-131"/>
      <point x="354" y="-155"/>
      <point x="291" y="-155" type="curve" smooth="yes"/>
      <point x="206" y="-155"/>
      <point x="160" y="-127"/>
      <point x="160" y="-76" type="curve" smooth="yes"/>
      <point x="160" y="-62"/>
      <point x="166" y="-44"/>
      <point x="178" y="-28" type="curve"/>
    </contour>
  </outline>
</glyph>
<glyph name="h" format="1">
  <advance width="631"/>
  <unicode hex="0068"/>
  <outline>
    <contour>
      <point x="12" y="691" type="line"/>
      <point x="87" y="674" type="line"/>
      <point x="87" y="674"/>
      <point x="97" y="607"/>
      <point x="97" y="587" type="curve" smooth="yes"/>
      <point x="97" y="163" type="line" smooth="yes"/>
      <point x="97" y="143"/>
      <point x="90" y="88"/>
      <point x="88" y="77" type="curve"/>
      <point x="22" y="65" type="line"/>
      <point x="27" y="-5" type="line"/>
      <point x="27" y="-5"/>
      <point x="80" y="0"/>
      <point x="127" y="0" type="curve" smooth="yes"/>
      <point x="240" y="0"/>
      <point x="306" y="-5"/>
      <point x="306" y="-5" type="curve"/>
      <point x="311" y="71" type="line"/>
      <point x="246" y="77" type="line"/>
      <point x="246" y="77"/>
      <point x="237" y="143"/>
      <point x="237" y="193" type="curve" smooth="yes"/>
      <point x="237" y="265" type="line" smooth="yes"/>
      <point x="237" y="355"/>
      <point x="286" y="403"/>
      <point x="336" y="403" type="curve" smooth="yes"/>
      <point x="388" y="403"/>
      <point x="410" y="363"/>
      <point x="410" y="311" type="curve" smooth="yes"/>
      <point x="410" y="163" type="line" smooth="yes"/>
      <point x="410" y="153"/>
      <point x="407" y="113"/>
      <point x="405" y="77" type="curve"/>
      <point x="349" y="65" type="line"/>
      <point x="354" y="-5" type="line"/>
      <point x="354" y="-5"/>
      <point x="393" y="0"/>
      <point x="440" y="0" type="curve" smooth="yes"/>
      <point x="553" y="0"/>
      <point x="619" y="-5"/>
      <point x="619" y="-5" type="curve"/>
      <point x="624" y="71" type="line"/>
      <point x="559" y="77" type="line"/>
      <point x="559" y="77"/>
      <point x="550" y="143"/>
      <point x="550" y="193" type="curve" smooth="yes"/>
      <point x="550" y="325" type="line" smooth="yes"/>
      <point x="550" y="441"/>
      <point x="489" y="503"/>
      <point x="373" y="503" type="curve" smooth="yes"/>
      <point x="314" y="503"/>
      <point x="271" y="477"/>
      <point x="237" y="435" type="curve"/>
      <point x="237" y="557" type="line" smooth="yes"/>
      <point x="237" y="607"/>
      <point x="243" y="696"/>
      <point x="247" y="739" type="curve"/>
      <point x="226" y="758" type="line"/>
      <point x="138" y="756" type="line" smooth="yes"/>
      <point x="96" y="756"/>
      <point x="21" y="766"/>
      <point x="21" y="766" type="curve"/>
    </contour>
    <contour>
      <point x="316" y="247" type="move" name="center"/>
    </contour>
    <contour>
      <point x="160" y="756" type="move" name="top"/>
    </contour>
  </outline>
</glyph>
<glyph name="i" format="1">
  <advance width="332"/>
  <unicode hex="0069"/>
  <outline>
    <contour>
      <point x="118" y="735"/>
      <point x="90" y="702"/>
      <point x="90" y="655" type="curve" smooth="yes"/>
      <point x="90" y="608"/>
      <point x="118" y="576"/>
      <point x="169" y="576" type="curve" smooth="yes"/>
      <point x="220" y="576"/>
      <point x="248" y="608"/>
      <point x="248" y="655" type="curve" smooth="yes"/>
      <point x="248" y="705"/>
      <point x="218" y="735"/>
      <point x="169" y="735" type="curve" smooth="yes"/>
    </contour>
    <contour>
      <point x="316" y="71" type="line"/>
      <point x="251" y="77" type="line"/>
      <point x="251" y="77"/>
      <point x="242" y="143"/>
      <point x="242" y="193" type="curve" smooth="yes"/>
      <point x="242" y="295" type="line" smooth="yes"/>
      <point x="242" y="345"/>
      <point x="252" y="477"/>
      <point x="252" y="477" type="curve"/>
      <point x="231" y="496" type="line"/>
      <point x="143" y="494" type="line" smooth="yes"/>
      <point x="101" y="494"/>
      <point x="26" y="503"/>
      <point x="26" y="503" type="curve"/>
      <point x="17" y="429" type="line"/>
      <point x="92" y="412" type="line"/>
      <point x="92" y="412"/>
      <point x="102" y="345"/>
      <point x="102" y="325" type="curve" smooth="yes"/>
      <point x="102" y="163" type="line" smooth="yes"/>
      <point x="102" y="143"/>
      <point x="93" y="77"/>
      <point x="93" y="77" type="curve"/>
      <point x="27" y="65" type="line"/>
      <point x="32" y="-5" type="line"/>
      <point x="32" y="-5"/>
      <point x="85" y="0"/>
      <point x="132" y="0" type="curve" smooth="yes"/>
      <point x="245" y="0"/>
      <point x="311" y="-5"/>
      <point x="311" y="-5" type="curve"/>
    </contour>
  </outline>
</glyph>
<glyph name="k" format="1">
  <advance width="611"/>
  <unicode hex="006B"/>
  <outline>
    <contour>
      <point x="12" y="691" type="line"/>
      <point x="87" y="674" type="line"/>
      <point x="87" y="674"/>
      <point x="97" y="607"/>
      <point x="97" y="587" type="curve" smooth="yes"/>
      <point x="97" y="163" type="line" smooth="yes"/>
      <point x="97" y="143"/>
      <point x="90" y="88"/>
      <point x="88" y="77" type="curve"/>
      <point x="22" y="65" type="line"/>
      <point x="27" y="-5" type="line"/>
      <point x="27" y="-5"/>
      <point x="80" y="0"/>
      <point x="127" y="0" type="curve" smooth="yes"/>
      <point x="240" y="0"/>
      <point x="306" y="-5"/>
      <point x="306" y="-5" type="curve"/>
      <point x="311" y="71" type="line"/>
      <point x="246" y="77" type="line"/>
      <point x="246" y="77"/>
      <point x="237" y="143"/>
      <point x="237" y="193" type="curve" smooth="yes"/>
      <point x="237" y="557" type="line" smooth="yes"/>
      <point x="237" y="607"/>
      <point x="243" y="696"/>
      <point x="247" y="739" type="curve"/>
      <point x="226" y="758" type="line"/>
      <point x="138" y="756" type="line" smooth="yes"/>
      <point x="96" y="756"/>
      <point x="21" y="766"/>
      <point x="21" y="766" type="curve"/>
    </contour>
    <contour>
      <point x="373" y="422" type="line"/>
      <point x="248" y="265" type="line"/>
      <point x="337" y="110" type="line"/>
      <point x="359" y="68" type="line"/>
      <point x="363" y="60" type="line"/>
      <point x="392" y="0" type="line"/>
      <point x="490" y="0" type="line" smooth="yes"/>
      <point x="548" y="0"/>
      <point x="603" y="-5"/>
      <point x="603" y="-5" type="curve"/>
      <point x="609" y="71" type="line"/>
      <point x="549" y="77" type="line"/>
      <point x="518" y="110"/>
      <point x="477" y="151"/>
      <point x="470" y="162" type="curve" smooth="yes"/>
      <point x="395" y="280" type="line"/>
      <point x="462" y="366" type="line" smooth="yes"/>
      <point x="475" y="383"/>
      <point x="513" y="405"/>
      <point x="544" y="423" type="curve"/>
      <point x="597" y="428" type="line"/>
      <point x="599" y="498" type="line"/>
      <point x="599" y="498"/>
      <point x="523" y="494"/>
      <point x="483" y="494" type="curve" smooth="yes"/>
      <point x="413" y="494"/>
      <point x="324" y="499"/>
      <point x="324" y="499" type="curve"/>
      <point x="319" y="428" type="line"/>
    </contour>
    <contour>
      <point x="306" y="0" type="move" name="bottom"/>
    </contour>
  </outline>
</glyph>
<glyph name="l" format="1">
  <advance width="329"/>
  <unicode hex="006C"/>
  <outline>
    <contour>
      <point x="12" y="691" type="line"/>
      <point x="87" y="674" type="line"/>
      <point x="87" y="674"/>
      <point x="97" y="607"/>
      <point x="97" y="587" type="curve" smooth="yes"/>
      <point x="97" y="163" type="line" smooth="yes"/>
      <point x="97" y="143"/>
      <point x="90" y="88"/>
      <point x="88" y="77" type="curve"/>
      <point x="22" y="65" type="line"/>
      <point x="27" y="-5" type="line"/>
      <point x="27" y="-5"/>
      <point x="80" y="0"/>
      <point x="127" y="0" type="curve" smooth="yes"/>
      <point x="240" y="0"/>
      <point x="306" y="-5"/>
      <point x="306" y="-5" type="curve"/>
      <point x="311" y="71" type="line"/>
      <point x="246" y="77" type="line"/>
      <point x="246" y="77"/>
      <point x="237" y="143"/>
      <point x="237" y="193" type="curve" smooth="yes"/>
      <point x="237" y="557" type="line" smooth="yes"/>
      <point x="237" y="607"/>
      <point x="243" y="696"/>
      <point x="247" y="739" type="curve"/>
      <point x="226" y="758" type="line"/>
      <point x="138" y="756" type="line" smooth="yes"/>
      <point x="96" y="756"/>
      <point x="21" y="766"/>
      <point x="21" y="766" type="curve"/>
    </contour>
    <contour>
      <point x="160" y="756" type="move" name="top"/>
    </contour>
    <contour>
      <point x="165" y="0" type="move" name="bottom"/>
    </contour>
    <contour>
      <point x="309" y="494" type="move" name="topright"/>
    </contour>
  </outline>
</glyph>
<glyph name="m" format="1">
  <advance width="917"/>
  <unicode hex="006D"/>
  <outline>
    <contour>
      <point x="910" y="71" type="line"/>
      <point x="845" y="77" type="line"/>
      <point x="845" y="77"/>
      <point x="836" y="143"/>
      <point x="836" y="193" type="curve" smooth="yes"/>
      <point x="836" y="325" type="line" smooth="yes"/>
      <point x="836" y="441"/>
      <point x="781" y="503"/>
      <point x="677" y="503" type="curve" smooth="yes"/>
      <point x="609" y="503"/>
      <point x="561" y="468"/>
      <point x="524" y="415" type="curve"/>
      <point x="501" y="473"/>
      <point x="453" y="503"/>
      <point x="380" y="503" type="curve" smooth="yes"/>
      <point x="308" y="503"/>
      <point x="260" y="465"/>
      <point x="222" y="407" type="curve"/>
      <point x="212" y="477" type="line"/>
      <point x="191" y="496" type="line"/>
      <point x="143" y="494" type="line"/>
      <point x="101" y="494"/>
      <point x="26" y="503"/>
      <point x="26" y="503" type="curve"/>
      <point x="17" y="429" type="line"/>
      <point x="92" y="412" type="line"/>
      <point x="92" y="412"/>
      <point x="102" y="345"/>
      <point x="102" y="325" type="curve" smooth="yes"/>
      <point x="102" y="163" type="line" smooth="yes"/>
      <point x="102" y="143"/>
      <point x="93" y="77"/>
      <point x="93" y="77" type="curve"/>
      <point x="27" y="65" type="line"/>
      <point x="32" y="-5" type="line"/>
      <point x="32" y="-5"/>
      <point x="85" y="0"/>
      <point x="132" y="0" type="curve" smooth="yes"/>
      <point x="245" y="0"/>
      <point x="311" y="-5"/>
      <point x="311" y="-5" type="curve"/>
      <point x="316" y="71" type="line"/>
      <point x="251" y="77" type="line"/>
      <point x="251" y="77"/>
      <point x="242" y="143"/>
      <point x="242" y="193" type="curve" smooth="yes"/>
      <point x="242" y="265" type="line" smooth="yes"/>
      <point x="242" y="355"/>
      <point x="287" y="403"/>
      <point x="333" y="403" type="curve" smooth="yes"/>
      <point x="380" y="403"/>
      <point x="399" y="363"/>
      <point x="399" y="311" type="curve" smooth="yes"/>
      <point x="399" y="163" type="line" smooth="yes"/>
      <point x="399" y="153"/>
      <point x="396" y="113"/>
      <point x="394" y="77" type="curve"/>
      <point x="338" y="65" type="line"/>
      <point x="343" y="-5" type="line"/>
      <point x="343" y="-5"/>
      <point x="382" y="0"/>
      <point x="429" y="0" type="curve" smooth="yes"/>
      <point x="542" y="0"/>
      <point x="608" y="-5"/>
      <point x="608" y="-5" type="curve"/>
      <point x="613" y="71" type="line"/>
      <point x="548" y="77" type="line"/>
      <point x="548" y="77"/>
      <point x="539" y="143"/>
      <point x="539" y="193" type="curve" smooth="yes"/>
      <point x="539" y="265" type="line" smooth="yes"/>
      <point x="539" y="355"/>
      <point x="584" y="403"/>
      <point x="630" y="403" type="curve" smooth="yes"/>
      <point x="677" y="403"/>
      <point x="696" y="363"/>
      <point x="696" y="311" type="curve" smooth="yes"/>
      <point x="696" y="163" type="line" smooth="yes"/>
      <point x="696" y="153"/>
      <point x="693" y="113"/>
      <point x="691" y="77" type="curve"/>
      <point x="635" y="65" type="line"/>
      <point x="640" y="-5" type="line"/>
      <point x="640" y="-5"/>
      <point x="679" y="0"/>
      <point x="726" y="0" type="curve" smooth="yes"/>
      <point x="839" y="0"/>
      <point x="905" y="-5"/>
      <point x="905" y="-5" type="curve"/>
    </contour>
  </outline>
</glyph>
<glyph name="n" format="1">
  <advance width="636"/>
  <unicode hex="006E"/>
  <outline>
    <contour>
      <point x="295" y="503"/>
      <point x="240" y="444"/>
      <point x="196" y="362" type="curve"/>
      <point x="242" y="265" type="line"/>
      <point x="242" y="355"/>
      <point x="291" y="403"/>
      <point x="341" y="403" type="curve" smooth="yes"/>
      <point x="393" y="403"/>
      <point x="415" y="363"/>
      <point x="415" y="311" type="curve" smooth="yes"/>
      <point x="415" y="163" type="line"/>
      <point x="415" y="153"/>
      <point x="412" y="113"/>
      <point x="410" y="77" type="curve"/>
      <point x="354" y="65" type="line"/>
      <point x="359" y="-5" type="line"/>
      <point x="359" y="-5"/>
      <point x="398" y="0"/>
      <point x="445" y="0" type="curve" smooth="yes"/>
      <point x="558" y="0"/>
      <point x="624" y="-5"/>
      <point x="624" y="-5" type="curve"/>
      <point x="629" y="71" type="line"/>
      <point x="564" y="77" type="line"/>
      <point x="564" y="77"/>
      <point x="555" y="143"/>
      <point x="555" y="193" type="curve" smooth="yes"/>
      <point x="555" y="325" type="line" smooth="yes"/>
      <point x="555" y="441"/>
      <point x="497" y="503"/>
      <point x="388" y="503" type="curve" smooth="yes"/>
    </contour>
    <contour>
      <point x="17" y="429" type="line"/>
      <point x="92" y="412" type="line"/>
      <point x="92" y="412"/>
      <point x="102" y="345"/>
      <point x="102" y="325" type="curve" smooth="yes"/>
      <point x="102" y="163" type="line"/>
      <point x="102" y="143"/>
      <point x="93" y="77"/>
      <point x="93" y="77" type="curve"/>
      <point x="27" y="65" type="line"/>
      <point x="32" y="-5" type="line"/>
      <point x="32" y="-5"/>
      <point x="85" y="0"/>
      <point x="132" y="0" type="curve" smooth="yes"/>
      <point x="245" y="0"/>
      <point x="311" y="-5"/>
      <point x="311" y="-5" type="curve"/>
      <point x="316" y="71" type="line"/>
      <point x="251" y="77" type="line"/>
      <point x="251" y="77"/>
      <point x="242" y="143"/>
      <point x="242" y="193" type="curve" smooth="yes"/>
      <point x="242" y="265" type="line"/>
      <point x="212" y="477" type="line"/>
      <point x="191" y="496" type="line"/>
      <point x="143" y="494" type="line" smooth="yes"/>
      <point x="101" y="494"/>
      <point x="26" y="503"/>
      <point x="26" y="503" type="curve"/>
    </contour>
    <contour>
      <point x="362" y="494" type="move" name="top"/>
    </contour>
    <contour>
      <point x="0" y="0" type="move" name="bottom"/>
    </contour>
  </outline>
</glyph>
<glyph name="o" format="1">
  <advance width="544"/>
  <unicode hex="006F"/>
  <outline>
    <contour>
      <point x="519" y="411"/>
      <point x="431" y="503"/>
      <point x="272" y="503" type="curve" smooth="yes"/>
      <point x="113" y="503"/>
      <point x="25" y="411"/>
      <point x="25" y="244" type="curve" smooth="yes"/>
      <point x="25" y="78"/>
      <point x="113" y="-15"/>
      <point x="272" y="-15" type="curve" smooth="yes"/>
      <point x="431" y="-15"/>
      <point x="519" y="78"/>
      <point x="519" y="244" type="curve" smooth="yes"/>
    </contour>
    <contour>
      <point x="360" y="121"/>
      <point x="334" y="70"/>
      <point x="272" y="70" type="curve" smooth="yes"/>
      <point x="210" y="70"/>
      <point x="184" y="121"/>
      <point x="184" y="244" type="curve" smooth="yes"/>
      <point x="184" y="367"/>
      <point x="210" y="418"/>
      <point x="272" y="418" type="curve" smooth="yes"/>
      <point x="334" y="418"/>
      <point x="360" y="367"/>
      <point x="360" y="244" type="curve" smooth="yes"/>
    </contour>
  </outline>
</glyph>
<glyph name="p" format="1">
  <advance width="589"/>
  <unicode hex="0070"/>
  <outline>
    <contour>
      <point x="303" y="503"/>
      <point x="254" y="473"/>
      <point x="212" y="404" type="curve"/>
      <point x="202" y="477" type="line"/>
      <point x="181" y="496" type="line"/>
      <point x="133" y="494" type="line" smooth="yes"/>
      <point x="84" y="494"/>
      <point x="16" y="503"/>
      <point x="16" y="503" type="curve"/>
      <point x="7" y="429" type="line"/>
      <point x="82" y="412" type="line"/>
      <point x="82" y="412"/>
      <point x="92" y="345"/>
      <point x="92" y="325" type="curve" smooth="yes"/>
      <point x="92" y="-66" type="line" smooth="yes"/>
      <point x="92" y="-86"/>
      <point x="82" y="-157"/>
      <point x="82" y="-157" type="curve"/>
      <point x="32" y="-169" type="line"/>
      <point x="37" y="-234" type="line"/>
      <point x="37" y="-234"/>
      <point x="90" y="-229"/>
      <point x="137" y="-229" type="curve" smooth="yes"/>
      <point x="250" y="-229"/>
      <point x="316" y="-234"/>
      <point x="316" y="-234" type="curve"/>
      <point x="321" y="-163" type="line"/>
      <point x="242" y="-157" type="line"/>
      <point x="242" y="-157"/>
      <point x="232" y="-86"/>
      <point x="232" y="-36" type="curve" smooth="yes"/>
      <point x="232" y="-5" type="line"/>
      <point x="260" y="-8"/>
      <point x="288" y="-10"/>
      <point x="313" y="-10" type="curve" smooth="yes"/>
      <point x="473" y="-10"/>
      <point x="564" y="86"/>
      <point x="564" y="254" type="curve" smooth="yes"/>
      <point x="564" y="413"/>
      <point x="496" y="503"/>
      <point x="374" y="503" type="curve" smooth="yes"/>
    </contour>
    <contour>
      <point x="378" y="390"/>
      <point x="405" y="343"/>
      <point x="405" y="241" type="curve" smooth="yes"/>
      <point x="405" y="131"/>
      <point x="374" y="85"/>
      <point x="301" y="85" type="curve" smooth="yes"/>
      <point x="282" y="85"/>
      <point x="259" y="90"/>
      <point x="232" y="99" type="curve"/>
      <point x="232" y="260" type="line" smooth="yes"/>
      <point x="237" y="345"/>
      <point x="267" y="390"/>
      <point x="320" y="390" type="curve" smooth="yes"/>
    </contour>
  </outline>
</glyph>
<glyph name="q" format="1">
  <advance width="571"/>
  <unicode hex="0071"/>
  <outline>
    <contour>
      <point x="116" y="502"/>
      <point x="25" y="406"/>
      <point x="25" y="238" type="curve" smooth="yes"/>
      <point x="25" y="79"/>
      <point x="93" y="-11"/>
      <point x="215" y="-11" type="curve" smooth="yes"/>
      <point x="296" y="-11"/>
      <point x="347" y="27"/>
      <point x="398" y="126" type="curve"/>
      <point x="357" y="232" type="line"/>
      <point x="352" y="146"/>
      <point x="322" y="102"/>
      <point x="269" y="102" type="curve" smooth="yes"/>
      <point x="211" y="102"/>
      <point x="184" y="149"/>
      <point x="184" y="251" type="curve" smooth="yes"/>
      <point x="184" y="361"/>
      <point x="215" y="407"/>
      <point x="288" y="407" type="curve" smooth="yes"/>
      <point x="320" y="407"/>
      <point x="364" y="394"/>
      <point x="432" y="365" type="curve"/>
      <point x="507" y="466" type="line"/>
      <point x="430" y="489"/>
      <point x="342" y="502"/>
      <point x="276" y="502" type="curve" smooth="yes"/>
    </contour>
    <contour>
      <point x="556" y="-164" type="line"/>
      <point x="507" y="-158" type="line"/>
      <point x="507" y="-158"/>
      <point x="497" y="-87"/>
      <point x="497" y="-37" type="curve" smooth="yes"/>
      <point x="497" y="329" type="line" smooth="yes"/>
      <point x="497" y="349"/>
      <point x="507" y="466"/>
      <point x="507" y="466" type="curve"/>
      <point x="352" y="422" type="line"/>
      <point x="352" y="422"/>
      <point x="357" y="349"/>
      <point x="357" y="299" type="curve" smooth="yes"/>
      <point x="357" y="-67" type="line" smooth="yes"/>
      <point x="357" y="-87"/>
      <point x="347" y="-158"/>
      <point x="347" y="-158" type="curve"/>
      <point x="267" y="-170" type="line"/>
      <point x="272" y="-235" type="line"/>
      <point x="272" y="-235"/>
      <point x="325" y="-230"/>
      <point x="372" y="-230" type="curve" smooth="yes"/>
      <point x="485" y="-230"/>
      <point x="551" y="-235"/>
      <point x="551" y="-235" type="curve"/>
    </contour>
  </outline>
</glyph>
<glyph name="r" format="1">
  <advance width="458"/>
  <unicode hex="0072"/>
  <outline>
    <contour>
      <point x="212" y="477" type="line"/>
      <point x="191" y="496" type="line"/>
      <point x="143" y="494" type="line" smooth="yes"/>
      <point x="101" y="494"/>
      <point x="26" y="504"/>
      <point x="26" y="504" type="curve"/>
      <point x="17" y="429" type="line"/>
      <point x="92" y="412" type="line"/>
      <point x="92" y="412"/>
      <point x="102" y="345"/>
      <point x="102" y="325" type="curve" smooth="yes"/>
      <point x="102" y="163" type="line" smooth="yes"/>
      <point x="102" y="143"/>
      <point x="93" y="77"/>
      <point x="93" y="77" type="curve"/>
      <point x="25" y="65" type="line"/>
      <point x="30" y="-5" type="line"/>
      <point x="30" y="-5"/>
      <point x="93" y="0"/>
      <point x="140" y="0" type="curve" smooth="yes"/>
      <point x="253" y="0"/>
      <point x="329" y="-5"/>
      <point x="329" y="-5" type="curve"/>
      <point x="334" y="71" type="line"/>
      <point x="251" y="77" type="line"/>
      <point x="251" y="77"/>
      <point x="242" y="143"/>
      <point x="242" y="193" type="curve" smooth="yes"/>
      <point x="242" y="265" type="line"/>
      <point x="242" y="355"/>
      <point x="291" y="403"/>
      <point x="341" y="403" type="curve" smooth="yes"/>
      <point x="343" y="403"/>
      <point x="345" y="403"/>
      <point x="347" y="402" type="curve"/>
      <point x="349" y="390"/>
      <point x="355" y="358"/>
      <point x="355" y="350" type="curve" smooth="yes"/>
      <point x="355" y="295" type="line"/>
      <point x="429" y="292" type="line"/>
      <point x="444" y="493" type="line"/>
      <point x="444" y="493"/>
      <point x="398" y="503"/>
      <point x="362" y="503" type="curve" smooth="yes"/>
      <point x="302" y="503"/>
      <point x="256" y="466"/>
      <point x="221" y="411" type="curve"/>
    </contour>
    <contour>
      <point x="239" y="494" type="move" name="top"/>
    </contour>
    <contour>
      <point x="168" y="0" type="move" name="bottom"/>
    </contour>
  </outline>
</glyph>
<glyph name="s" format="1">
  <advance width="429"/>
  <unicode hex="0073"/>
  <outline>
    <contour>
      <point x="108" y="503"/>
      <point x="33" y="456"/>
      <point x="33" y="354" type="curve" smooth="yes"/>
      <point x="33" y="163"/>
      <point x="274" y="191"/>
      <point x="274" y="112" type="curve" smooth="yes"/>
      <point x="274" y="84"/>
      <point x="245" y="69"/>
      <point x="210" y="69" type="curve" smooth="yes"/>
      <point x="182" y="69"/>
      <point x="149" y="80"/>
      <point x="122" y="91" type="curve"/>
      <point x="122" y="90"/>
      <point x="113" y="123"/>
      <point x="113" y="128" type="curve" smooth="yes"/>
      <point x="113" y="133"/>
      <point x="113" y="173"/>
      <point x="113" y="173" type="curve"/>
      <point x="42" y="178" type="line"/>
      <point x="30" y="13" type="line"/>
      <point x="30" y="13"/>
      <point x="134" y="-10"/>
      <point x="207" y="-10" type="curve" smooth="yes"/>
      <point x="324" y="-10"/>
      <point x="402" y="44"/>
      <point x="402" y="146" type="curve" smooth="yes"/>
      <point x="402" y="335"/>
      <point x="152" y="311"/>
      <point x="152" y="385" type="curve" smooth="yes"/>
      <point x="152" y="405"/>
      <point x="170" y="423"/>
      <point x="217" y="423" type="curve" smooth="yes"/>
      <point x="248" y="423"/>
      <point x="269" y="415"/>
      <point x="287" y="407" type="curve"/>
      <point x="292" y="397"/>
      <point x="301" y="374"/>
      <point x="301" y="369" type="curve" smooth="yes"/>
      <point x="301" y="326" type="line"/>
      <point x="368" y="321" type="line"/>
      <point x="380" y="479" type="line"/>
      <point x="339" y="492"/>
      <point x="291" y="503"/>
      <point x="220" y="503" type="curve" smooth="yes"/>
    </contour>
    <contour>
      <point x="215" y="494" type="move" name="top"/>
    </contour>
    <contour>
      <point x="213" y="0" type="move" name="bottom"/>
    </contour>
  </outline>
</glyph>
<glyph name="t" format="1">
  <advance width="358"/>
  <unicode hex="0074"/>
  <outline>
    <contour>
      <point x="327" y="100" type="line"/>
      <point x="327" y="100"/>
      <point x="299" y="80"/>
      <point x="273" y="80" type="curve" smooth="yes"/>
      <point x="240" y="80"/>
      <point x="221" y="110"/>
      <point x="221" y="143" type="curve" smooth="yes"/>
      <point x="221" y="419" type="line"/>
      <point x="331" y="419" type="line"/>
      <point x="340" y="494" type="line"/>
      <point x="221" y="494" type="line"/>
      <point x="221" y="607" type="line"/>
      <point x="166" y="611" type="line"/>
      <point x="166" y="611"/>
      <point x="124" y="541"/>
      <point x="111" y="524" type="curve"/>
      <point x="106" y="517"/>
      <point x="42" y="493"/>
      <point x="14" y="482" type="curve"/>
      <point x="17" y="419" type="line"/>
      <point x="81" y="419" type="line"/>
      <point x="81" y="156" type="line" smooth="yes"/>
      <point x="81" y="46"/>
      <point x="122" y="-10"/>
      <point x="231" y="-10" type="curve" smooth="yes"/>
      <point x="291" y="-10"/>
      <point x="331" y="17"/>
      <point x="364" y="43" type="curve"/>
    </contour>
    <contour>
      <point x="179" y="247" type="move" name="center"/>
    </contour>
    <contour>
      <point x="229" y="0" type="move" name="bottom"/>
    </contour>
  </outline>
</glyph>
<glyph name="w" format="1">
  <advance width="833"/>
  <unicode hex="0077"/>
  <outline>
    <contour>
      <point x="828" y="428" type="line"/>
      <point x="823" y="499" type="line"/>
      <point x="823" y="499"/>
      <point x="777" y="494"/>
      <point x="737" y="494" type="curve" smooth="yes"/>
      <point x="667" y="494"/>
      <point x="595" y="499"/>
      <point x="595" y="499" type="curve"/>
      <point x="590" y="428" type="line"/>
      <point x="648" y="424" type="line"/>
      <point x="642" y="398"/>
      <point x="634" y="367"/>
      <point x="630" y="355" type="curve"/>
      <point x="565" y="148" type="line"/>
      <point x="472" y="494" type="line"/>
      <point x="384" y="494" type="line"/>
      <point x="278" y="148" type="line"/>
      <point x="222" y="353" type="line" smooth="yes"/>
      <point x="219" y="365"/>
      <point x="214" y="393"/>
      <point x="208" y="424" type="curve"/>
      <point x="274" y="428" type="line"/>
      <point x="269" y="499" type="line"/>
      <point x="269" y="499"/>
      <point x="186" y="494"/>
      <point x="146" y="494" type="curve" smooth="yes"/>
      <point x="76" y="494"/>
      <point x="7" y="503"/>
      <point x="7" y="503" type="curve"/>
      <point x="2" y="434" type="line"/>
      <point x="57" y="423" type="line"/>
      <point x="71" y="392"/>
      <point x="83" y="357"/>
      <point x="87" y="344" type="curve" smooth="yes"/>
      <point x="95" y="322"/>
      <point x="207" y="0"/>
      <point x="207" y="0" type="curve"/>
      <point x="336" y="0" type="line"/>
      <point x="417" y="241" type="line"/>
      <point x="491" y="0" type="line"/>
      <point x="621" y="0" type="line"/>
      <point x="738" y="319" type="line" smooth="yes"/>
      <point x="743" y="333"/>
      <point x="766" y="382"/>
      <point x="785" y="422" type="curve"/>
    </contour>
    <contour>
      <point x="417" y="494" type="move" name="top"/>
    </contour>
  </outline>
</glyph>
<glyph name="x" format="1">
  <advance width="575"/>
  <unicode hex="0078"/>
  <outline>
    <contour>
      <point x="283" y="429" type="line"/>
      <point x="236" y="425" type="line"/>
      <point x="260" y="384" type="line"/>
      <point x="298" y="322" type="line"/>
      <point x="334" y="381" type="line"/>
      <point x="362" y="425" type="line"/>
      <point x="328" y="429" type="line"/>
      <point x="333" y="499" type="line"/>
      <point x="333" y="499"/>
      <point x="391" y="494"/>
      <point x="459" y="494" type="curve" smooth="yes"/>
      <point x="498" y="494"/>
      <point x="546" y="499"/>
      <point x="546" y="499" type="curve"/>
      <point x="551" y="429" type="line"/>
      <point x="515" y="423" type="line"/>
      <point x="419" y="311" type="line"/>
      <point x="377" y="254" type="line"/>
      <point x="438" y="171" type="line"/>
      <point x="526" y="75" type="line"/>
      <point x="567" y="64" type="line"/>
      <point x="564" y="-9" type="line"/>
      <point x="564" y="-9"/>
      <point x="476" y="0"/>
      <point x="408" y="0" type="curve" smooth="yes"/>
      <point x="369" y="0"/>
      <point x="307" y="-5"/>
      <point x="307" y="-5" type="curve"/>
      <point x="302" y="69" type="line"/>
      <point x="342" y="73" type="line"/>
      <point x="329" y="95" type="line"/>
      <point x="272" y="181" type="line"/>
      <point x="213" y="90" type="line"/>
      <point x="205" y="73" type="line"/>
      <point x="237" y="70" type="line"/>
      <point x="232" y="-5" type="line"/>
      <point x="232" y="-5"/>
      <point x="175" y="0"/>
      <point x="106" y="0" type="curve" smooth="yes"/>
      <point x="67" y="0"/>
      <point x="19" y="-5"/>
      <point x="19" y="-5" type="curve"/>
      <point x="14" y="69" type="line"/>
      <point x="52" y="76" type="line"/>
      <point x="144" y="184" type="line"/>
      <point x="194" y="252" type="line"/>
      <point x="144" y="323" type="line"/>
      <point x="50" y="427" type="line"/>
      <point x="17" y="435" type="line"/>
      <point x="22" y="503" type="line"/>
      <point x="22" y="503"/>
      <point x="109" y="494"/>
      <point x="177" y="494" type="curve" smooth="yes"/>
      <point x="216" y="494"/>
      <point x="278" y="499"/>
      <point x="278" y="499" type="curve"/>
    </contour>
  </outline>
</glyph>
<glyph name="y" format="1">
  <advance width="571"/>
  <unicode hex="0079"/>
  <outline>
    <contour>
      <point x="301" y="158" type="line"/>
      <point x="238" y="356" type="line" smooth="yes"/>
      <point x="233" y="370"/>
      <point x="226" y="402"/>
      <point x="224" y="423" type="curve"/>
      <point x="266" y="428" type="line"/>
      <point x="262" y="499" type="line"/>
      <point x="262" y="499"/>
      <point x="193" y="494"/>
      <point x="149" y="494" type="curve" smooth="yes"/>
      <point x="84" y="494"/>
      <point x="10" y="503"/>
      <point x="10" y="503" type="curve"/>
      <point x="4" y="434" type="line"/>
      <point x="67" y="423" type="line"/>
      <point x="79" y="401"/>
      <point x="100" y="348"/>
      <point x="109" y="325" type="curve" smooth="yes"/>
      <point x="233" y="0" type="line"/>
      <point x="202" y="-83" type="line" smooth="yes"/>
      <point x="195" y="-103"/>
      <point x="184" y="-124"/>
      <point x="171" y="-139" type="curve"/>
      <point x="158" y="-143"/>
      <point x="141" y="-145"/>
      <point x="127" y="-145" type="curve"/>
      <point x="72" y="-143" type="line"/>
      <point x="61" y="-222" type="line"/>
      <point x="259" y="-235" type="line"/>
      <point x="477" y="328" type="line" smooth="yes"/>
      <point x="484" y="348"/>
      <point x="508" y="404"/>
      <point x="519" y="423" type="curve"/>
      <point x="568" y="428" type="line"/>
      <point x="564" y="499" type="line"/>
      <point x="564" y="499"/>
      <point x="499" y="494"/>
      <point x="455" y="494" type="curve" smooth="yes"/>
      <point x="390" y="494"/>
      <point x="336" y="499"/>
      <point x="336" y="499" type="curve"/>
      <point x="330" y="428" type="line"/>
      <point x="374" y="423" type="line"/>
      <point x="373" y="404"/>
      <point x="366" y="370"/>
      <point x="362" y="358" type="curve" smooth="yes"/>
    </contour>
    <contour>
      <point x="286" y="494" type="move" name="top"/>
    </contour>
    <contour>
      <point x="460" y="0" type="move" name="bottom"/>
    </contour>
  </outline>
</glyph>
<glyph name="z" format="1">
  <advance width="460"/>
  <unicode hex="007A"/>
  <outline>
    <contour>
      <point x="28" y="477" type="line"/>
      <point x="23" y="307" type="line"/>
      <point x="99" y="304" type="line"/>
      <point x="103" y="361" type="line"/>
      <point x="103" y="368"/>
      <point x="112" y="394"/>
      <point x="116" y="403" type="curve"/>
      <point x="138" y="406"/>
      <point x="175" y="414"/>
      <point x="181" y="414" type="curve" smooth="yes"/>
      <point x="260" y="414" type="line"/>
      <point x="248" y="388"/>
      <point x="234" y="362"/>
      <point x="227" y="352" type="curve" smooth="yes"/>
      <point x="105" y="168" type="line" smooth="yes"/>
      <point x="91" y="146"/>
      <point x="21" y="70"/>
      <point x="21" y="70" type="curve"/>
      <point x="35" y="0" type="line"/>
      <point x="326" y="0" type="line" smooth="yes"/>
      <point x="346" y="0"/>
      <point x="420" y="-3"/>
      <point x="420" y="-3" type="curve"/>
      <point x="440" y="17" type="line"/>
      <point x="451" y="171" type="line"/>
      <point x="382" y="177" type="line"/>
      <point x="382" y="176"/>
      <point x="376" y="137"/>
      <point x="375" y="133" type="curve"/>
      <point x="375" y="127"/>
      <point x="362" y="98"/>
      <point x="359" y="91" type="curve"/>
      <point x="336" y="88"/>
      <point x="293" y="80"/>
      <point x="287" y="80" type="curve" smooth="yes"/>
      <point x="206" y="80" type="line"/>
      <point x="218" y="106"/>
      <point x="231" y="132"/>
      <point x="238" y="142" type="curve"/>
      <point x="358" y="327" type="line"/>
      <point x="435" y="425" type="line"/>
      <point x="428" y="494" type="line"/>
      <point x="141" y="494" type="line" smooth="yes"/>
      <point x="121" y="494"/>
      <point x="49" y="497"/>
      <point x="49" y="497" type="curve"/>
    </contour>
  </outline>
</glyph>
<glyph name="bar" format="1">
  <advance width="279"/>
  <unicode hex="007C"/>
  <outline>
    <contour>
      <point x="187" y="-122" type="line"/>
      <point x="187" y="752" type="line"/>
      <point x="92" y="760" type="line"/>
      <point x="92" y="-113" type="line"/>
    </contour>
  </outline>
</glyph>
<glyph name="asciitilde" format="1">
  <advance width="604"/>
  <unicode hex="007E"/>
  <outline>
    <contour>
      <point x="366" y="160"/>
      <point x="235" y="220"/>
      <point x="181" y="220" type="curve" smooth="yes"/>
      <point x="151" y="220"/>
      <point x="114" y="171"/>
      <point x="114" y="171" type="curve"/>
      <point x="60" y="216" type="line"/>
      <point x="60" y="216"/>
      <point x="128" y="332"/>
      <point x="178" y="332" type="curve" smooth="yes"/>
      <point x="248" y="332"/>
      <point x="369" y="272"/>
      <point x="423" y="272" type="curve" smooth="yes"/>
      <point x="453" y="272"/>
      <point x="490" y="321"/>
      <point x="490" y="321" type="curve"/>
      <point x="544" y="276" type="line"/>
      <point x="544" y="276"/>
      <point x="476" y="160"/>
      <point x="426" y="160" type="curve" smooth="yes"/>
    </contour>
  </outline>
</glyph>
<glyph name="cent" format="1">
  <advance width="506"/>
  <unicode hex="00A2"/>
  <outline>
    <contour>
      <point x="327" y="553" type="line"/>
      <point x="332" y="686" type="line"/>
      <point x="268" y="689" type="line"/>
      <point x="262" y="553" type="line"/>
    </contour>
    <contour>
      <point x="245" y="132" type="line"/>
      <point x="238" y="-39" type="line"/>
      <point x="303" y="-42" type="line"/>
      <point x="310" y="132" type="line"/>
    </contour>
    <contour>
      <point x="124" y="583"/>
      <point x="40" y="475"/>
      <point x="40" y="325" type="curve" smooth="yes"/>
      <point x="40" y="159"/>
      <point x="124" y="65"/>
      <point x="290" y="65" type="curve" smooth="yes"/>
      <point x="354" y="65"/>
      <point x="420" y="91"/>
      <point x="471" y="136" type="curve"/>
      <point x="436" y="194" type="line"/>
      <point x="436" y="194"/>
      <point x="388" y="162"/>
      <point x="319" y="162" type="curve" smooth="yes"/>
      <point x="224" y="162"/>
      <point x="199" y="236"/>
      <point x="199" y="325" type="curve" smooth="yes"/>
      <point x="199" y="420"/>
      <point x="209" y="504"/>
      <point x="304" y="504" type="curve" smooth="yes"/>
      <point x="329" y="504"/>
      <point x="354" y="491"/>
      <point x="369" y="478" type="curve"/>
      <point x="373" y="439" type="line"/>
      <point x="372" y="385" type="line"/>
      <point x="447" y="382" type="line"/>
      <point x="462" y="559" type="line"/>
      <point x="462" y="559"/>
      <point x="373" y="583"/>
      <point x="285" y="583" type="curve" smooth="yes"/>
    </contour>
  </outline>
</glyph>
<glyph name="sterling" format="1">
  <advance width="616"/>
  <unicode hex="00A3"/>
  <outline>
    <contour>
      <point x="134" y="467" type="line"/>
      <point x="134" y="163" type="line" smooth="yes"/>
      <point x="134" y="143"/>
      <point x="125" y="77"/>
      <point x="125" y="77" type="curve"/>
      <point x="288" y="77" type="line"/>
      <point x="288" y="77"/>
      <point x="279" y="143"/>
      <point x="279" y="193" type="curve" smooth="yes"/>
      <point x="279" y="488" type="line"/>
    </contour>
    <contour>
      <point x="125" y="77" type="line"/>
      <point x="59" y="65" type="line"/>
      <point x="64" y="-5" type="line"/>
      <point x="64" y="-5"/>
      <point x="117" y="0"/>
      <point x="164" y="0" type="curve"/>
      <point x="293" y="77" type="line"/>
    </contour>
    <contour>
      <point x="156" y="0" type="line"/>
      <point x="438" y="0" type="line" smooth="yes"/>
      <point x="458" y="0"/>
      <point x="552" y="-4"/>
      <point x="552" y="-4" type="curve"/>
      <point x="571" y="14" type="line"/>
      <point x="508" y="100" type="line"/>
      <point x="508" y="100"/>
      <point x="458" y="87"/>
      <point x="408" y="87" type="curve" smooth="yes"/>
      <point x="189" y="87" type="line"/>
    </contour>
    <contour>
      <point x="571" y="14" type="line"/>
      <point x="586" y="190" type="line"/>
      <point x="516" y="195" type="line"/>
      <point x="514" y="179"/>
      <point x="508" y="153"/>
      <point x="504" y="138" type="curve" smooth="yes"/>
      <point x="501" y="123"/>
      <point x="455" y="38"/>
      <point x="455" y="38" type="curve"/>
    </contour>
    <contour>
      <point x="566" y="635" type="line"/>
      <point x="501" y="651"/>
      <point x="428" y="667"/>
      <point x="363" y="667" type="curve" smooth="yes"/>
      <point x="233" y="667"/>
      <point x="134" y="597"/>
      <point x="134" y="467" type="curve"/>
      <point x="279" y="488" type="line"/>
      <point x="279" y="538"/>
      <point x="312" y="579"/>
      <point x="362" y="579" type="curve" smooth="yes"/>
      <point x="402" y="579"/>
      <point x="435" y="574"/>
      <point x="474" y="557" type="curve"/>
    </contour>
    <contour>
      <point x="472" y="557"/>
      <point x="479" y="526"/>
      <point x="479" y="520" type="curve" smooth="yes"/>
      <point x="482" y="475" type="line"/>
      <point x="554" y="472" type="line"/>
      <point x="566" y="635" type="line"/>
      <point x="566" y="635"/>
      <point x="468" y="569"/>
      <point x="468" y="569" type="curve"/>
    </contour>
    <contour>
      <point x="47" y="328" type="line"/>
      <point x="457" y="347" type="line"/>
      <point x="455" y="411" type="line"/>
      <point x="45" y="393" type="line"/>
    </contour>
    <contour>
      <point x="52" y="222" type="line"/>
      <point x="462" y="241" type="line"/>
      <point x="460" y="305" type="line"/>
      <point x="50" y="287" type="line"/>
    </contour>
  </outline>
</glyph>
<glyph name="yen" format="1">
  <advance width="654"/>
  <unicode hex="00A5"/>
  <outline>
    <contour>
      <point x="401" y="234" type="line"/>
      <point x="557" y="241" type="line"/>
      <point x="555" y="305" type="line"/>
      <point x="414" y="299" type="line"/>
      <point x="439" y="342" type="line"/>
      <point x="552" y="347" type="line"/>
      <point x="550" y="411" type="line"/>
      <point x="478" y="408" type="line"/>
      <point x="526" y="489" type="line"/>
      <point x="533" y="503"/>
      <point x="569" y="547"/>
      <point x="593" y="576" type="curve"/>
      <point x="642" y="581" type="line"/>
      <point x="637" y="657" type="line"/>
      <point x="637" y="657"/>
      <point x="600" y="652"/>
      <point x="487" y="652" type="curve" smooth="yes"/>
      <point x="446" y="652"/>
      <point x="382" y="657"/>
      <point x="382" y="657" type="curve"/>
      <point x="377" y="587" type="line"/>
      <point x="446" y="575" type="line"/>
      <point x="437" y="549" type="line"/>
      <point x="343" y="383" type="line"/>
      <point x="256" y="538" type="line"/>
      <point x="253" y="545"/>
      <point x="247" y="560"/>
      <point x="241" y="576" type="curve"/>
      <point x="296" y="581" type="line"/>
      <point x="291" y="657" type="line"/>
      <point x="291" y="657"/>
      <point x="225" y="652"/>
      <point x="112" y="652" type="curve" smooth="yes"/>
      <point x="65" y="652"/>
      <point x="17" y="657"/>
      <point x="17" y="657" type="curve"/>
      <point x="12" y="587" type="line"/>
      <point x="61" y="576" type="line"/>
      <point x="78" y="556"/>
      <point x="99" y="529"/>
      <point x="106" y="516" type="curve" smooth="yes"/>
      <point x="173" y="396" type="line"/>
      <point x="100" y="393" type="line"/>
      <point x="102" y="328" type="line"/>
      <point x="209" y="333" type="line"/>
      <point x="232" y="292" type="line"/>
      <point x="105" y="287" type="line"/>
      <point x="107" y="222" type="line"/>
      <point x="256" y="228" type="line"/>
      <point x="256" y="163" type="line" smooth="yes"/>
      <point x="256" y="143"/>
      <point x="247" y="77"/>
      <point x="247" y="77" type="curve"/>
      <point x="181" y="65" type="line"/>
      <point x="186" y="-5" type="line"/>
      <point x="186" y="-5"/>
      <point x="244" y="0"/>
      <point x="291" y="0" type="curve" smooth="yes"/>
      <point x="404" y="0"/>
      <point x="470" y="-5"/>
      <point x="470" y="-5" type="curve"/>
      <point x="475" y="71" type="line"/>
      <point x="410" y="77" type="line"/>
      <point x="410" y="77"/>
      <point x="401" y="143"/>
      <point x="401" y="193" type="curve" smooth="yes"/>
    </contour>
  </outline>
</glyph>
<glyph name="brokenbar" format="1">
  <advance width="279"/>
  <unicode hex="00A6"/>
  <outline>
    <contour>
      <point x="92" y="760" type="line"/>
      <point x="92" y="400" type="line"/>
      <point x="187" y="392" type="line"/>
      <point x="187" y="752" type="line"/>
    </contour>
    <contour>
      <point x="187" y="-122" type="line"/>
      <point x="187" y="205" type="line"/>
      <point x="92" y="212" type="line"/>
      <point x="92" y="-113" type="line"/>
    </contour>
  </outline>
</glyph>
<glyph name="section" format="1">
  <advance width="574"/>
  <unicode hex="00A7"/>
  <outline>
    <contour>
      <point x="450" y="219" type="line"/>
      <point x="450" y="219"/>
      <point x="504" y="280"/>
      <point x="504" y="339" type="curve" smooth="yes"/>
      <point x="504" y="483"/>
      <point x="233" y="479"/>
      <point x="233" y="574" type="curve" smooth="yes"/>
      <point x="233" y="615"/>
      <point x="265" y="639"/>
      <point x="313" y="639" type="curve" smooth="yes"/>
      <point x="349" y="639"/>
      <point x="370" y="633"/>
      <point x="386" y="620" type="curve"/>
      <point x="388" y="611"/>
      <point x="390" y="604"/>
      <point x="390" y="600" type="curve" smooth="yes"/>
      <point x="390" y="546" type="line"/>
      <point x="461" y="541" type="line"/>
      <point x="473" y="691" type="line"/>
      <point x="413" y="708"/>
      <point x="345" y="720"/>
      <point x="285" y="720" type="curve" smooth="yes"/>
      <point x="168" y="720"/>
      <point x="80" y="665"/>
      <point x="80" y="559" type="curve" smooth="yes"/>
      <point x="80" y="349"/>
      <point x="434" y="354"/>
      <point x="434" y="229" type="curve"/>
    </contour>
    <contour>
      <point x="134" y="396" type="line"/>
      <point x="134" y="396"/>
      <point x="80" y="335"/>
      <point x="80" y="276" type="curve" smooth="yes"/>
      <point x="80" y="132"/>
      <point x="351" y="136"/>
      <point x="351" y="41" type="curve" smooth="yes"/>
      <point x="351" y="0"/>
      <point x="317" y="-24"/>
      <point x="266" y="-24" type="curve" smooth="yes"/>
      <point x="228" y="-24"/>
      <point x="198" y="-18"/>
      <point x="179" y="-6" type="curve"/>
      <point x="176" y="7"/>
      <point x="174" y="19"/>
      <point x="174" y="25" type="curve" smooth="yes"/>
      <point x="174" y="79" type="line"/>
      <point x="103" y="84" type="line"/>
      <point x="91" y="-76" type="line"/>
      <point x="153" y="-93"/>
      <point x="232" y="-105"/>
      <point x="294" y="-105" type="curve" smooth="yes"/>
      <point x="414" y="-105"/>
      <point x="504" y="-50"/>
      <point x="504" y="56" type="curve" smooth="yes"/>
      <point x="504" y="266"/>
      <point x="150" y="261"/>
      <point x="150" y="386" type="curve"/>
    </contour>
  </outline>
</glyph>
<glyph name="copyright" format="1">
  <advance width="845"/>
  <unicode hex="00A9"/>
  <outline>
    <contour>
      <point x="788" y="454"/>
      <point x="625" y="615"/>
      <point x="422" y="615" type="curve" smooth="yes"/>
      <point x="222" y="615"/>
      <point x="57" y="452"/>
      <point x="57" y="250" type="curve" smooth="yes"/>
      <point x="57" y="44"/>
      <point x="224" y="-115"/>
      <point x="422" y="-115" type="curve" smooth="yes"/>
      <point x="624" y="-115"/>
      <point x="788" y="52"/>
      <point x="788" y="250" type="curve" smooth="yes"/>
    </contour>
    <contour>
      <point x="718" y="88"/>
      <point x="586" y="-46"/>
      <point x="422" y="-46" type="curve" smooth="yes"/>
      <point x="260" y="-46"/>
      <point x="126" y="88"/>
      <point x="126" y="250" type="curve" smooth="yes"/>
      <point x="126" y="416"/>
      <point x="260" y="546"/>
      <point x="422" y="546" type="curve" smooth="yes"/>
      <point x="585" y="546"/>
      <point x="718" y="411"/>
      <point x="718" y="250" type="curve" smooth="yes"/>
    </contour>
    <contour>
      <point x="564" y="167" type="line"/>
      <point x="517" y="166" type="line"/>
      <point x="517" y="166"/>
      <point x="515" y="145"/>
      <point x="514" y="138" type="curve"/>
      <point x="514" y="135"/>
      <point x="505" y="113"/>
      <point x="505" y="113" type="curve"/>
      <point x="477" y="107"/>
      <point x="460" y="105"/>
      <point x="434" y="105" type="curve" smooth="yes"/>
      <point x="368" y="105"/>
      <point x="345" y="172"/>
      <point x="345" y="254" type="curve" smooth="yes"/>
      <point x="345" y="337"/>
      <point x="368" y="402"/>
      <point x="435" y="402" type="curve" smooth="yes"/>
      <point x="458" y="402"/>
      <point x="473" y="400"/>
      <point x="497" y="396" type="curve"/>
      <point x="500" y="390"/>
      <point x="504" y="376"/>
      <point x="504" y="375" type="curve" smooth="yes"/>
      <point x="507" y="336" type="line"/>
      <point x="556" y="334" type="line"/>
      <point x="565" y="443" type="line"/>
      <point x="526" y="452"/>
      <point x="487" y="463"/>
      <point x="435" y="463" type="curve" smooth="yes"/>
      <point x="293" y="463"/>
      <point x="222" y="377"/>
      <point x="222" y="253" type="curve" smooth="yes"/>
      <point x="222" y="130"/>
      <point x="293" y="44"/>
      <point x="435" y="44" type="curve" smooth="yes"/>
      <point x="486" y="44"/>
      <point x="530" y="55"/>
      <point x="569" y="64" type="curve"/>
    </contour>
  </outline>
</glyph>
<glyph name="ordfeminine" format="1">
  <advance width="354"/>
  <unicode hex="00AA"/>
  <outline>
    <contour>
      <point x="210" y="450" type="line"/>
      <point x="307" y="450"/>
      <point x="339" y="447"/>
      <point x="339" y="447" type="curve"/>
      <point x="343" y="498" type="line"/>
      <point x="304" y="502" type="line"/>
      <point x="304" y="502"/>
      <point x="299" y="546"/>
      <point x="299" y="579" type="curve" smooth="yes"/>
      <point x="299" y="664" type="line" smooth="yes"/>
      <point x="299" y="733"/>
      <point x="244" y="777"/>
      <point x="155" y="777" type="curve" smooth="yes"/>
      <point x="126" y="777"/>
      <point x="72" y="769"/>
      <point x="34" y="759" type="curve"/>
      <point x="44" y="645" type="line"/>
      <point x="96" y="647" type="line"/>
      <point x="95" y="680" type="line"/>
      <point x="100" y="705" type="line"/>
      <point x="115" y="712"/>
      <point x="137" y="717"/>
      <point x="152" y="717" type="curve" smooth="yes"/>
      <point x="184" y="717"/>
      <point x="199" y="702"/>
      <point x="199" y="661" type="curve" smooth="yes"/>
      <point x="199" y="642" type="line"/>
      <point x="107" y="628" type="line" smooth="yes"/>
      <point x="49" y="619"/>
      <point x="20" y="589"/>
      <point x="20" y="538" type="curve" smooth="yes"/>
      <point x="20" y="479"/>
      <point x="57" y="443"/>
      <point x="118" y="443" type="curve" smooth="yes"/>
      <point x="159" y="443"/>
      <point x="185" y="459"/>
      <point x="206" y="496" type="curve"/>
    </contour>
    <contour>
      <point x="199" y="598" type="line"/>
      <point x="199" y="551" type="line"/>
      <point x="192" y="528"/>
      <point x="178" y="516"/>
      <point x="159" y="516" type="curve" smooth="yes"/>
      <point x="136" y="516"/>
      <point x="126" y="527"/>
      <point x="126" y="553" type="curve" smooth="yes"/>
      <point x="126" y="577"/>
      <point x="135" y="588"/>
      <point x="159" y="593" type="curve"/>
    </contour>
  </outline>
</glyph>
<glyph name="guillemotleft" format="1">
  <advance width="444"/>
  <unicode hex="00AB"/>
  <outline>
    <contour>
      <point x="240" y="429" type="line"/>
      <point x="173" y="474" type="line"/>
      <point x="20" y="242" type="line"/>
      <point x="173" y="10" type="line"/>
      <point x="240" y="55" type="line"/>
      <point x="135" y="242" type="line"/>
    </contour>
    <contour>
      <point x="414" y="429" type="line"/>
      <point x="347" y="474" type="line"/>
      <point x="194" y="242" type="line"/>
      <point x="347" y="10" type="line"/>
      <point x="414" y="55" type="line"/>
      <point x="309" y="242" type="line"/>
    </contour>
  </outline>
</glyph>
<glyph name="logicalnot" format="1">
  <advance width="585"/>
  <unicode hex="00AC"/>
  <outline>
    <contour>
      <point x="65" y="207" type="line"/>
      <point x="65" y="308" type="line"/>
      <point x="520" y="308" type="line"/>
      <point x="520" y="65" type="line"/>
      <point x="424" y="65" type="line"/>
      <point x="426" y="211" type="line"/>
    </contour>
  </outline>
</glyph>
<glyph name="macron" format="1">
  <advance width="360"/>
  <unicode hex="00AF"/>
  <outline>
    <contour>
      <point x="19" y="669" type="line"/>
      <point x="19" y="596" type="line"/>
      <point x="334" y="596" type="line"/>
      <point x="341" y="669" type="line"/>
    </contour>
  </outline>
</glyph>
<glyph name="degree" format="1">
  <advance width="381"/>
  <unicode hex="00B0"/>
  <outline>
    <contour>
      <point x="351" y="609"/>
      <point x="289" y="666"/>
      <point x="190" y="666" type="curve" smooth="yes"/>
      <point x="92" y="666"/>
      <point x="30" y="609"/>
      <point x="30" y="517" type="curve" smooth="yes"/>
      <point x="30" y="425"/>
      <point x="92" y="368"/>
      <point x="190" y="368" type="curve" smooth="yes"/>
      <point x="289" y="368"/>
      <point x="351" y="425"/>
      <point x="351" y="517" type="curve" smooth="yes"/>
    </contour>
    <contour>
      <point x="127" y="564"/>
      <point x="145" y="605"/>
      <point x="191" y="605" type="curve" smooth="yes"/>
      <point x="236" y="605"/>
      <point x="254" y="564"/>
      <point x="254" y="517" type="curve" smooth="yes"/>
      <point x="254" y="470"/>
      <point x="236" y="429"/>
      <point x="191" y="429" type="curve" smooth="yes"/>
      <point x="145" y="429"/>
      <point x="127" y="470"/>
      <point x="127" y="517" type="curve" smooth="yes"/>
    </contour>
  </outline>
</glyph>
<glyph name="plusminus" format="1">
  <advance width="601"/>
  <unicode hex="00B1"/>
  <outline>
    <contour>
      <point x="528" y="400" type="line"/>
      <point x="347" y="400" type="line"/>
      <point x="345" y="562" type="line"/>
      <point x="250" y="562" type="line"/>
      <point x="250" y="400" type="line"/>
      <point x="73" y="400" type="line"/>
      <point x="73" y="300" type="line"/>
      <point x="250" y="302" type="line"/>
      <point x="250" y="137" type="line"/>
      <point x="350" y="137" type="line"/>
      <point x="348" y="303" type="line"/>
      <point x="528" y="305" type="line"/>
    </contour>
    <contour>
      <point x="73" y="91" type="line"/>
      <point x="73" y="0" type="line"/>
      <point x="528" y="0" type="line"/>
      <point x="528" y="96" type="line"/>
    </contour>
  </outline>
</glyph>
<glyph name="acute" format="1">
  <advance width="360"/>
  <unicode hex="00B4"/>
  <outline>
    <contour>
      <point x="260" y="755" type="line"/>
      <point x="53" y="623" type="line"/>
      <point x="100" y="565" type="line"/>
      <point x="167" y="614" type="line"/>
      <point x="185" y="623"/>
      <point x="307" y="679"/>
      <point x="307" y="679" type="curve"/>
    </contour>
  </outline>
</glyph>
<glyph name="mu" format="1">
  <advance width="591"/>
  <unicode hex="00B5"/>
  <outline>
    <contour>
      <point x="125" y="188" type="line"/>
      <point x="125" y="72"/>
      <point x="153" y="-4"/>
      <point x="269" y="-4" type="curve" smooth="yes"/>
      <point x="357" y="-4"/>
      <point x="407" y="55"/>
      <point x="434" y="137" type="curve"/>
      <point x="368" y="234" type="line"/>
      <point x="368" y="144"/>
      <point x="319" y="96"/>
      <point x="269" y="96" type="curve" smooth="yes"/>
      <point x="217" y="96"/>
      <point x="195" y="136"/>
      <point x="195" y="188" type="curve"/>
    </contour>
    <contour>
      <point x="195" y="-69" type="line"/>
      <point x="195" y="-69"/>
      <point x="195" y="296"/>
      <point x="195" y="295" type="curve" smooth="yes"/>
      <point x="195" y="345"/>
      <point x="205" y="475"/>
      <point x="205" y="475" type="curve"/>
      <point x="184" y="494" type="line"/>
      <point x="50" y="494" type="line"/>
      <point x="50" y="494"/>
      <point x="55" y="345"/>
      <point x="55" y="325" type="curve" smooth="yes"/>
      <point x="55" y="-39" type="line" smooth="yes"/>
      <point x="55" y="-89"/>
      <point x="40" y="-199"/>
      <point x="40" y="-199" type="curve"/>
      <point x="61" y="-218" type="line"/>
      <point x="200" y="-218" type="line"/>
    </contour>
    <contour>
      <point x="570" y="55" type="line"/>
      <point x="510" y="85"/>
      <point x="507" y="80"/>
      <point x="507" y="167" type="curve" smooth="yes"/>
      <point x="507" y="305" type="line" smooth="yes"/>
      <point x="508" y="360"/>
      <point x="518" y="475"/>
      <point x="518" y="475" type="curve"/>
      <point x="497" y="494" type="line"/>
      <point x="363" y="494" type="line"/>
      <point x="363" y="494"/>
      <point x="367" y="373"/>
      <point x="368" y="335" type="curve"/>
      <point x="368" y="203" type="line"/>
      <point x="396" y="-12"/>
      <point x="431" y="-3"/>
      <point x="551" y="-15" type="curve"/>
    </contour>
  </outline>
</glyph>
<glyph name="paragraph" format="1">
  <advance width="625"/>
  <unicode hex="00B6"/>
  <outline>
    <contour>
      <point x="27" y="370"/>
      <point x="137" y="291"/>
      <point x="268" y="291" type="curve"/>
      <point x="309" y="330" type="line"/>
      <point x="309" y="705" type="line"/>
      <point x="294" y="707"/>
      <point x="264" y="709"/>
      <point x="247" y="709" type="curve" smooth="yes"/>
      <point x="122" y="709"/>
      <point x="27" y="626"/>
      <point x="27" y="501" type="curve" smooth="yes"/>
    </contour>
    <contour>
      <point x="350" y="-13" type="line"/>
      <point x="264" y="-25" type="line"/>
      <point x="269" y="-95" type="line"/>
      <point x="269" y="-95"/>
      <point x="322" y="-90"/>
      <point x="369" y="-90" type="curve" smooth="yes"/>
      <point x="443" y="-90"/>
      <point x="477" y="-93"/>
      <point x="504" y="-94" type="curve"/>
      <point x="523" y="-76" type="line"/>
    </contour>
    <contour>
      <point x="359" y="512" type="line"/>
      <point x="359" y="73" type="line" smooth="yes"/>
      <point x="359" y="53"/>
      <point x="350" y="-13"/>
      <point x="350" y="-13" type="curve"/>
      <point x="523" y="-76" type="line"/>
      <point x="523" y="-76"/>
      <point x="514" y="53"/>
      <point x="514" y="103" type="curve" smooth="yes"/>
      <point x="514" y="542" type="line"/>
    </contour>
    <contour>
      <point x="514" y="542" type="line"/>
      <point x="514" y="562"/>
      <point x="518" y="630"/>
      <point x="518" y="630" type="curve"/>
      <point x="359" y="705" type="line"/>
      <point x="359" y="705"/>
      <point x="359" y="562"/>
      <point x="359" y="512" type="curve"/>
    </contour>
    <contour>
      <point x="518" y="623" type="line"/>
      <point x="584" y="629" type="line"/>
      <point x="579" y="710" type="line"/>
      <point x="579" y="710"/>
      <point x="563" y="705"/>
      <point x="450" y="705" type="curve" smooth="yes"/>
      <point x="359" y="705" type="line"/>
    </contour>
  </outline>
</glyph>
<glyph name="cedilla" format="1">
  <advance width="360"/>
  <unicode hex="00B8"/>
  <outline>
    <contour>
      <point x="215" y="10" type="line"/>
      <point x="149" y="10" type="line"/>
      <point x="138" y="-102" type="line"/>
      <point x="149" y="-116" type="line"/>
      <point x="170" y="-115" type="line"/>
      <point x="194" y="-115"/>
      <point x="212" y="-121"/>
      <point x="212" y="-146" type="curve" smooth="yes"/>
      <point x="212" y="-171"/>
      <point x="189" y="-179"/>
      <point x="165" y="-179" type="curve" smooth="yes"/>
      <point x="145" y="-179"/>
      <point x="126" y="-173"/>
      <point x="110" y="-168" type="curve"/>
      <point x="92" y="-217" type="line"/>
      <point x="109" y="-225"/>
      <point x="151" y="-235"/>
      <point x="188" y="-235" type="curve" smooth="yes"/>
      <point x="251" y="-235"/>
      <point x="302" y="-209"/>
      <point x="302" y="-146" type="curve" smooth="yes"/>
      <point x="302" y="-92"/>
      <point x="260" y="-60"/>
      <point x="201" y="-59" type="curve"/>
    </contour>
  </outline>
</glyph>
<glyph name="guillemetright" format="1">
  <advance width="444"/>
  <unicode hex="00BB"/>
  <outline>
    <contour>
      <point x="250" y="242" type="line"/>
      <point x="97" y="474" type="line"/>
      <point x="30" y="429" type="line"/>
      <point x="135" y="242" type="line"/>
      <point x="30" y="55" type="line"/>
      <point x="97" y="10" type="line"/>
    </contour>
    <contour>
      <point x="424" y="242" type="line"/>
      <point x="271" y="474" type="line"/>
      <point x="204" y="429" type="line"/>
      <point x="309" y="242" type="line"/>
      <point x="204" y="55" type="line"/>
      <point x="271" y="10" type="line"/>
    </contour>
  </outline>
</glyph>
<glyph name="questiondown" format="1">
  <advance width="422"/>
  <unicode hex="00BF"/>
  <outline>
    <contour>
      <point x="144" y="-102"/>
      <point x="177" y="-160"/>
      <point x="251" y="-160" type="curve" smooth="yes"/>
      <point x="278" y="-160"/>
      <point x="303" y="-154"/>
      <point x="318" y="-144" type="curve"/>
      <point x="322" y="-130"/>
      <point x="324" y="-95"/>
      <point x="324" y="-88" type="curve" smooth="yes"/>
      <point x="322" y="-52" type="line"/>
      <point x="390" y="-47" type="line"/>
      <point x="402" y="-195" type="line"/>
      <point x="349" y="-219"/>
      <point x="301" y="-234"/>
      <point x="241" y="-234" type="curve" smooth="yes"/>
      <point x="98" y="-234"/>
      <point x="10" y="-160"/>
      <point x="10" y="-27" type="curve" smooth="yes"/>
      <point x="10" y="95"/>
      <point x="95" y="168"/>
      <point x="220" y="172" type="curve"/>
      <point x="217" y="252" type="line"/>
      <point x="234" y="268" type="line"/>
      <point x="243" y="267"/>
      <point x="292" y="264"/>
      <point x="334" y="264" type="curve"/>
      <point x="337" y="261" type="line"/>
      <point x="337" y="131" type="line"/>
      <point x="306" y="97" type="line"/>
      <point x="289" y="99"/>
      <point x="260" y="100"/>
      <point x="247" y="100" type="curve" smooth="yes"/>
      <point x="182" y="100"/>
      <point x="144" y="43"/>
      <point x="144" y="-28" type="curve" smooth="yes"/>
    </contour>
    <contour>
      <point x="326" y="508"/>
      <point x="354" y="478"/>
      <point x="354" y="428" type="curve" smooth="yes"/>
      <point x="354" y="381"/>
      <point x="328" y="349"/>
      <point x="280" y="349" type="curve" smooth="yes"/>
      <point x="232" y="349"/>
      <point x="206" y="381"/>
      <point x="206" y="428" type="curve" smooth="yes"/>
      <point x="206" y="475"/>
      <point x="232" y="508"/>
      <point x="280" y="508" type="curve" smooth="yes"/>
    </contour>
  </outline>
</glyph>
<glyph name="AE" format="1">
  <advance width="912"/>
  <unicode hex="00C6"/>
  <outline>
    <contour>
      <point x="880" y="697" type="line"/>
      <point x="861" y="715" type="line"/>
      <point x="861" y="715"/>
      <point x="767" y="705"/>
      <point x="747" y="705" type="curve" smooth="yes"/>
      <point x="416" y="705" type="line" smooth="yes"/>
      <point x="369" y="705"/>
      <point x="316" y="710"/>
      <point x="316" y="710" type="curve"/>
      <point x="311" y="635" type="line"/>
      <point x="375" y="623" type="line"/>
      <point x="112" y="161" type="line" smooth="yes"/>
      <point x="104" y="147"/>
      <point x="76" y="107"/>
      <point x="52" y="74" type="curve"/>
      <point x="1" y="65" type="line"/>
      <point x="6" y="-5" type="line"/>
      <point x="6" y="-5"/>
      <point x="59" y="0"/>
      <point x="106" y="0" type="curve" smooth="yes"/>
      <point x="189" y="0"/>
      <point x="253" y="-5"/>
      <point x="253" y="-5" type="curve"/>
      <point x="258" y="71" type="line"/>
      <point x="189" y="77" type="line"/>
      <point x="197" y="95"/>
      <point x="203" y="112"/>
      <point x="205" y="115" type="curve" smooth="yes"/>
      <point x="244" y="184" type="line"/>
      <point x="461" y="184" type="line"/>
      <point x="469" y="132" type="line" smooth="yes"/>
      <point x="471" y="120"/>
      <point x="471" y="88"/>
      <point x="471" y="77" type="curve"/>
      <point x="404" y="65" type="line"/>
      <point x="409" y="-5" type="line"/>
      <point x="409" y="-5"/>
      <point x="453" y="0"/>
      <point x="490" y="0" type="curve" smooth="yes"/>
      <point x="761" y="0" type="line" smooth="yes"/>
      <point x="781" y="0"/>
      <point x="875" y="-4"/>
      <point x="875" y="-4" type="curve"/>
      <point x="894" y="14" type="line"/>
      <point x="909" y="190" type="line"/>
      <point x="839" y="195" type="line"/>
      <point x="837" y="179"/>
      <point x="831" y="153"/>
      <point x="827" y="138" type="curve" smooth="yes"/>
      <point x="826" y="132"/>
      <point x="817" y="114"/>
      <point x="808" y="95" type="curve"/>
      <point x="788" y="91"/>
      <point x="760" y="87"/>
      <point x="731" y="87" type="curve" smooth="yes"/>
      <point x="630" y="87" type="line"/>
      <point x="610" y="193" type="line"/>
      <point x="591" y="317" type="line"/>
      <point x="594" y="318"/>
      <point x="605" y="319"/>
      <point x="609" y="319" type="curve" smooth="yes"/>
      <point x="665" y="319" type="line" smooth="yes"/>
      <point x="685" y="319"/>
      <point x="729" y="313"/>
      <point x="729" y="313" type="curve"/>
      <point x="738" y="253" type="line"/>
      <point x="802" y="259" type="line"/>
      <point x="802" y="259"/>
      <point x="799" y="336"/>
      <point x="799" y="386" type="curve" smooth="yes"/>
      <point x="799" y="406"/>
      <point x="800" y="466"/>
      <point x="800" y="466" type="curve"/>
      <point x="738" y="471" type="line"/>
      <point x="729" y="407" type="line"/>
      <point x="729" y="407"/>
      <point x="705" y="398"/>
      <point x="685" y="398" type="curve" smooth="yes"/>
      <point x="604" y="398" type="line" smooth="yes"/>
      <point x="598" y="398"/>
      <point x="582" y="399"/>
      <point x="578" y="400" type="curve"/>
      <point x="556" y="542" type="line" smooth="yes"/>
      <point x="554" y="558"/>
      <point x="551" y="600"/>
      <point x="550" y="618" type="curve"/>
      <point x="717" y="618" type="line" smooth="yes"/>
      <point x="747" y="618"/>
      <point x="777" y="615"/>
      <point x="797" y="613" type="curve"/>
      <point x="801" y="603"/>
      <point x="805" y="594"/>
      <point x="806" y="590" type="curve"/>
      <point x="810" y="575"/>
      <point x="813" y="547"/>
      <point x="815" y="531" type="curve"/>
      <point x="887" y="536" type="line"/>
    </contour>
    <contour>
      <point x="290" y="266" type="line"/>
      <point x="413" y="487" type="line"/>
      <point x="415" y="479" type="line"/>
      <point x="448" y="268" type="line"/>
    </contour>
    <contour>
      <point x="536" y="705" type="move" name="top"/>
    </contour>
  </outline>
</glyph>
<glyph name="Ccedilla" format="1">
  <advance width="637"/>
  <unicode hex="00C7"/>
  <outline>
    <contour>
      <point x="406" y="-14" type="line"/>
      <point x="479" y="-11"/>
      <point x="545" y="5"/>
      <point x="602" y="19" type="curve"/>
      <point x="594" y="191" type="line"/>
      <point x="519" y="189" type="line"/>
      <point x="516" y="142" type="line"/>
      <point x="516" y="134"/>
      <point x="502" y="100"/>
      <point x="500" y="93" type="curve"/>
      <point x="455" y="83"/>
      <point x="419" y="78"/>
      <point x="376" y="78" type="curve" smooth="yes"/>
      <point x="253" y="78"/>
      <point x="207" y="200"/>
      <point x="207" y="353" type="curve" smooth="yes"/>
      <point x="207" y="506"/>
      <point x="254" y="627"/>
      <point x="377" y="627" type="curve" smooth="yes"/>
      <point x="416" y="627"/>
      <point x="448" y="622"/>
      <point x="489" y="613" type="curve"/>
      <point x="494" y="600"/>
      <point x="501" y="578"/>
      <point x="501" y="572" type="curve"/>
      <point x="504" y="511" type="line"/>
      <point x="581" y="507" type="line"/>
      <point x="593" y="686" type="line"/>
      <point x="528" y="702"/>
      <point x="463" y="720"/>
      <point x="377" y="720" type="curve" smooth="yes"/>
      <point x="145" y="720"/>
      <point x="27" y="570"/>
      <point x="27" y="352" type="curve" smooth="yes"/>
      <point x="27" y="145"/>
      <point x="133" y="0"/>
      <point x="343" y="-14" type="curve"/>
      <point x="334" y="-102" type="line"/>
      <point x="345" y="-116" type="line"/>
      <point x="366" y="-115" type="line"/>
      <point x="390" y="-115"/>
      <point x="408" y="-121"/>
      <point x="408" y="-146" type="curve" smooth="yes"/>
      <point x="408" y="-171"/>
      <point x="385" y="-179"/>
      <point x="361" y="-179" type="curve" smooth="yes"/>
      <point x="341" y="-179"/>
      <point x="322" y="-173"/>
      <point x="306" y="-168" type="curve"/>
      <point x="288" y="-217" type="line"/>
      <point x="305" y="-225"/>
      <point x="347" y="-235"/>
      <point x="384" y="-235" type="curve" smooth="yes"/>
      <point x="447" y="-235"/>
      <point x="498" y="-209"/>
      <point x="498" y="-146" type="curve" smooth="yes"/>
      <point x="498" y="-92"/>
      <point x="456" y="-60"/>
      <point x="397" y="-59" type="curve"/>
    </contour>
  </outline>
</glyph>
<glyph name="Eth" format="1">
  <advance width="684"/>
  <unicode hex="00D0"/>
  <outline>
    <contour>
      <point x="37" y="635" type="line"/>
      <point x="102" y="623" type="line"/>
      <point x="102" y="623"/>
      <point x="111" y="562"/>
      <point x="111" y="512" type="curve" smooth="yes"/>
      <point x="111" y="395" type="line"/>
      <point x="42" y="395" type="line"/>
      <point x="42" y="322" type="line"/>
      <point x="111" y="322" type="line"/>
      <point x="111" y="163" type="line" smooth="yes"/>
      <point x="111" y="143"/>
      <point x="102" y="77"/>
      <point x="102" y="77" type="curve"/>
      <point x="36" y="65" type="line"/>
      <point x="41" y="-5" type="line"/>
      <point x="41" y="-5"/>
      <point x="94" y="0"/>
      <point x="141" y="0" type="curve" smooth="yes"/>
      <point x="201" y="0"/>
      <point x="288" y="-6"/>
      <point x="351" y="-6" type="curve" smooth="yes"/>
      <point x="583" y="-6"/>
      <point x="703" y="141"/>
      <point x="703" y="352" type="curve" smooth="yes"/>
      <point x="703" y="567"/>
      <point x="583" y="715"/>
      <point x="351" y="715" type="curve" smooth="yes"/>
      <point x="302" y="715"/>
      <point x="190" y="705"/>
      <point x="142" y="705" type="curve" smooth="yes"/>
      <point x="95" y="705"/>
      <point x="42" y="710"/>
      <point x="42" y="710" type="curve"/>
    </contour>
    <contour>
      <point x="266" y="322" type="line"/>
      <point x="359" y="322" type="line"/>
      <point x="364" y="395" type="line"/>
      <point x="266" y="395" type="line"/>
      <point x="266" y="542" type="line" smooth="yes"/>
      <point x="266" y="558"/>
      <point x="269" y="607"/>
      <point x="270" y="624" type="curve"/>
      <point x="293" y="628"/>
      <point x="317" y="632"/>
      <point x="337" y="632" type="curve" smooth="yes"/>
      <point x="484" y="632"/>
      <point x="536" y="506"/>
      <point x="536" y="354" type="curve" smooth="yes"/>
      <point x="536" y="199"/>
      <point x="485" y="77"/>
      <point x="335" y="77" type="curve" smooth="yes"/>
      <point x="308" y="77"/>
      <point x="281" y="79"/>
      <point x="270" y="80" type="curve"/>
      <point x="269" y="92"/>
      <point x="266" y="149"/>
      <point x="266" y="193" type="curve" smooth="yes"/>
    </contour>
  </outline>
</glyph>
<glyph name="multiply" format="1">
  <advance width="556"/>
  <unicode hex="00D7"/>
  <outline>
    <contour>
      <point x="496" y="98" type="line"/>
      <point x="425" y="26" type="line"/>
      <point x="60" y="390" type="line"/>
      <point x="128" y="459" type="line"/>
    </contour>
    <contour>
      <point x="422" y="460" type="line"/>
      <point x="494" y="389" type="line"/>
      <point x="130" y="24" type="line"/>
      <point x="61" y="92" type="line"/>
    </contour>
  </outline>
</glyph>
<glyph name="Oslash" format="1">
  <advance width="768"/>
  <unicode hex="00D8"/>
  <outline>
    <contour>
      <point x="663" y="809" type="line"/>
      <point x="604" y="838" type="line"/>
      <point x="107" y="-108" type="line"/>
      <point x="164" y="-137" type="line"/>
    </contour>
    <contour>
      <point x="741" y="578"/>
      <point x="601" y="724"/>
      <point x="384" y="724" type="curve"/>
      <point x="167" y="724"/>
      <point x="27" y="578"/>
      <point x="27" y="352" type="curve"/>
      <point x="27" y="127"/>
      <point x="167" y="-19"/>
      <point x="384" y="-19" type="curve" smooth="yes"/>
      <point x="601" y="-19"/>
      <point x="741" y="127"/>
      <point x="741" y="352" type="curve"/>
    </contour>
    <contour>
      <point x="207" y="539"/>
      <point x="264" y="627"/>
      <point x="384" y="627" type="curve"/>
      <point x="504" y="627"/>
      <point x="561" y="539"/>
      <point x="561" y="352" type="curve"/>
      <point x="561" y="166"/>
      <point x="504" y="78"/>
      <point x="384" y="78" type="curve" smooth="yes"/>
      <point x="264" y="78"/>
      <point x="207" y="166"/>
      <point x="207" y="352" type="curve"/>
    </contour>
    <contour>
      <point x="379" y="705" type="move" name="top"/>
    </contour>
  </outline>
</glyph>
<glyph name="Thorn" format="1">
  <advance width="600"/>
  <unicode hex="00DE"/>
  <outline>
    <contour>
      <point x="345" y="629" type="line"/>
      <point x="340" y="710" type="line"/>
      <point x="340" y="710"/>
      <point x="259" y="705"/>
      <point x="146" y="705" type="curve" smooth="yes"/>
      <point x="99" y="705"/>
      <point x="46" y="710"/>
      <point x="46" y="710" type="curve"/>
      <point x="41" y="635" type="line"/>
      <point x="106" y="623" type="line"/>
      <point x="108" y="607"/>
      <point x="115" y="562"/>
      <point x="115" y="512" type="curve" smooth="yes"/>
      <point x="115" y="163" type="line" smooth="yes"/>
      <point x="115" y="143"/>
      <point x="107" y="87"/>
      <point x="106" y="77" type="curve"/>
      <point x="40" y="65" type="line"/>
      <point x="45" y="-5" type="line"/>
      <point x="45" y="-5"/>
      <point x="98" y="0"/>
      <point x="145" y="0" type="curve" smooth="yes"/>
      <point x="258" y="0"/>
      <point x="339" y="-5"/>
      <point x="339" y="-5" type="curve"/>
      <point x="344" y="71" type="line"/>
      <point x="279" y="77" type="line"/>
      <point x="278" y="87"/>
      <point x="274" y="114"/>
      <point x="272" y="146" type="curve"/>
      <point x="346" y="146" type="line" smooth="yes"/>
      <point x="482" y="146"/>
      <point x="596" y="222"/>
      <point x="596" y="358" type="curve" smooth="yes"/>
      <point x="596" y="492"/>
      <point x="500" y="570"/>
      <point x="360" y="570" type="curve" smooth="yes"/>
      <point x="337" y="570"/>
      <point x="305" y="568"/>
      <point x="271" y="566" type="curve"/>
      <point x="273" y="587"/>
      <point x="277" y="613"/>
      <point x="279" y="623" type="curve"/>
    </contour>
    <contour>
      <point x="270" y="228" type="line"/>
      <point x="270" y="487" type="line"/>
      <point x="284" y="488"/>
      <point x="295" y="488"/>
      <point x="302" y="488" type="curve" smooth="yes"/>
      <point x="395" y="488"/>
      <point x="435" y="446"/>
      <point x="435" y="359" type="curve" smooth="yes"/>
      <point x="435" y="273"/>
      <point x="378" y="228"/>
      <point x="287" y="228" type="curve" smooth="yes"/>
    </contour>
  </outline>
</glyph>
<glyph name="acircumflex" format="1">
  <advance width="523"/>
  <unicode hex="00E2"/>
  <outline>
    <contour>
      <point x="91" y="564" type="line"/>
      <point x="158" y="617" type="line"/>
      <point x="168" y="622"/>
      <point x="209" y="644"/>
      <point x="242" y="662" type="curve"/>
      <point x="275" y="644"/>
      <point x="316" y="622"/>
      <point x="326" y="617" type="curve"/>
      <point x="393" y="564" type="line"/>
      <point x="440" y="622" type="line"/>
      <point x="242" y="765" type="line"/>
      <point x="44" y="622" type="line"/>
    </contour>
    <contour>
      <point x="511" y="71" type="line"/>
      <point x="451" y="77" type="line"/>
      <point x="451" y="77"/>
      <point x="442" y="143"/>
      <point x="442" y="193" type="curve" smooth="yes"/>
      <point x="442" y="323" type="line" smooth="yes"/>
      <point x="442" y="437"/>
      <point x="365" y="503"/>
      <point x="233" y="503" type="curve" smooth="yes"/>
      <point x="189" y="503"/>
      <point x="110" y="491"/>
      <point x="50" y="476" type="curve"/>
      <point x="65" y="307" type="line"/>
      <point x="140" y="310" type="line"/>
      <point x="139" y="353" type="line"/>
      <point x="146" y="393" type="line"/>
      <point x="169" y="404"/>
      <point x="203" y="412"/>
      <point x="227" y="412" type="curve" smooth="yes"/>
      <point x="281" y="412"/>
      <point x="302" y="387"/>
      <point x="302" y="322" type="curve" smooth="yes"/>
      <point x="302" y="293" type="line"/>
      <point x="160" y="270" type="line" smooth="yes"/>
      <point x="72" y="256"/>
      <point x="28" y="210"/>
      <point x="28" y="132" type="curve" smooth="yes"/>
      <point x="28" y="44"/>
      <point x="84" y="-10"/>
      <point x="175" y="-10" type="curve" smooth="yes"/>
      <point x="238" y="-10"/>
      <point x="282" y="16"/>
      <point x="313" y="72" type="curve"/>
      <point x="321" y="0" type="line"/>
      <point x="456" y="0"/>
      <point x="505" y="-5"/>
      <point x="505" y="-5" type="curve"/>
    </contour>
    <contour>
      <point x="302" y="228" type="line"/>
      <point x="302" y="157" type="line"/>
      <point x="292" y="117"/>
      <point x="265" y="93"/>
      <point x="230" y="93" type="curve" smooth="yes"/>
      <point x="193" y="93"/>
      <point x="176" y="113"/>
      <point x="176" y="154" type="curve" smooth="yes"/>
      <point x="176" y="191"/>
      <point x="191" y="209"/>
      <point x="228" y="216" type="curve" smooth="yes"/>
    </contour>
  </outline>
</glyph>
<glyph name="atilde" format="1">
  <advance width="523"/>
  <unicode hex="00E3"/>
  <outline>
    <contour>
      <point x="367" y="723" type="line"/>
      <point x="367" y="723"/>
      <point x="345" y="685"/>
      <point x="321" y="685" type="curve" smooth="yes"/>
      <point x="279" y="685"/>
      <point x="198" y="723"/>
      <point x="156" y="723" type="curve" smooth="yes"/>
      <point x="113" y="723"/>
      <point x="67" y="618"/>
      <point x="67" y="618" type="curve"/>
      <point x="114" y="590" type="line"/>
      <point x="114" y="590"/>
      <point x="139" y="632"/>
      <point x="163" y="632" type="curve" smooth="yes"/>
      <point x="206" y="632"/>
      <point x="285" y="594"/>
      <point x="328" y="594" type="curve" smooth="yes"/>
      <point x="371" y="594"/>
      <point x="416" y="695"/>
      <point x="416" y="695" type="curve"/>
    </contour>
    <contour>
      <point x="321" y="0" type="line"/>
      <point x="456" y="0"/>
      <point x="505" y="-5"/>
      <point x="505" y="-5" type="curve"/>
      <point x="511" y="71" type="line"/>
      <point x="451" y="77" type="line"/>
      <point x="451" y="77"/>
      <point x="442" y="143"/>
      <point x="442" y="193" type="curve" smooth="yes"/>
      <point x="442" y="323" type="line" smooth="yes"/>
      <point x="442" y="437"/>
      <point x="365" y="503"/>
      <point x="233" y="503" type="curve" smooth="yes"/>
      <point x="189" y="503"/>
      <point x="110" y="491"/>
      <point x="50" y="476" type="curve"/>
      <point x="65" y="307" type="line"/>
      <point x="140" y="310" type="line"/>
      <point x="139" y="353" type="line"/>
      <point x="146" y="393" type="line"/>
      <point x="169" y="404"/>
      <point x="203" y="412"/>
      <point x="227" y="412" type="curve" smooth="yes"/>
      <point x="281" y="412"/>
      <point x="302" y="387"/>
      <point x="302" y="322" type="curve" smooth="yes"/>
      <point x="302" y="293" type="line"/>
      <point x="160" y="270" type="line" smooth="yes"/>
      <point x="72" y="256"/>
      <point x="28" y="210"/>
      <point x="28" y="132" type="curve" smooth="yes"/>
      <point x="28" y="44"/>
      <point x="84" y="-10"/>
      <point x="175" y="-10" type="curve" smooth="yes"/>
      <point x="238" y="-10"/>
      <point x="282" y="16"/>
      <point x="313" y="72" type="curve"/>
    </contour>
    <contour>
      <point x="302" y="228" type="line"/>
      <point x="302" y="157" type="line"/>
      <point x="292" y="117"/>
      <point x="265" y="93"/>
      <point x="230" y="93" type="curve" smooth="yes"/>
      <point x="193" y="93"/>
      <point x="176" y="113"/>
      <point x="176" y="154" type="curve" smooth="yes"/>
      <point x="176" y="191"/>
      <point x="191" y="209"/>
      <point x="228" y="216" type="curve" smooth="yes"/>
    </contour>
  </outline>
</glyph>
<glyph name="ae" format="1">
  <advance width="727"/>
  <unicode hex="00E6"/>
  <outline>
    <contour>
      <point x="56" y="309" type="line"/>
      <point x="131" y="312" type="line"/>
      <point x="131" y="361" type="line"/>
      <point x="134" y="400" type="line"/>
      <point x="162" y="413"/>
      <point x="196" y="422"/>
      <point x="218" y="422" type="curve" smooth="yes"/>
      <point x="269" y="422"/>
      <point x="293" y="391"/>
      <point x="293" y="323" type="curve" smooth="yes"/>
      <point x="293" y="284" type="line"/>
      <point x="151" y="270" type="line" smooth="yes"/>
      <point x="65" y="262"/>
      <point x="19" y="214"/>
      <point x="19" y="132" type="curve" smooth="yes"/>
      <point x="19" y="47"/>
      <point x="82" y="-10"/>
      <point x="176" y="-10" type="curve" smooth="yes"/>
      <point x="251" y="-10"/>
      <point x="301" y="16"/>
      <point x="345" y="77" type="curve"/>
      <point x="385" y="15"/>
      <point x="442" y="-15"/>
      <point x="521" y="-15" type="curve" smooth="yes"/>
      <point x="599" y="-15"/>
      <point x="665" y="9"/>
      <point x="717" y="56" type="curve"/>
      <point x="682" y="114" type="line"/>
      <point x="682" y="114"/>
      <point x="634" y="81"/>
      <point x="561" y="81" type="curve" smooth="yes"/>
      <point x="476" y="81"/>
      <point x="441" y="121"/>
      <point x="435" y="224" type="curve"/>
      <point x="705" y="240" type="line"/>
      <point x="726" y="279" type="line"/>
      <point x="726" y="420"/>
      <point x="648" y="503"/>
      <point x="517" y="503" type="curve" smooth="yes"/>
      <point x="459" y="503"/>
      <point x="410" y="489"/>
      <point x="372" y="461" type="curve"/>
      <point x="336" y="489"/>
      <point x="286" y="503"/>
      <point x="224" y="503" type="curve" smooth="yes"/>
      <point x="178" y="503"/>
      <point x="108" y="493"/>
      <point x="41" y="476" type="curve"/>
    </contour>
    <contour>
      <point x="549" y="424"/>
      <point x="569" y="388"/>
      <point x="569" y="311" type="curve"/>
      <point x="568" y="303" type="line"/>
      <point x="436" y="294" type="line"/>
      <point x="439" y="380"/>
      <point x="462" y="424"/>
      <point x="506" y="424" type="curve" smooth="yes"/>
    </contour>
    <contour>
      <point x="293" y="214" type="line"/>
      <point x="293" y="182" type="line" smooth="yes"/>
      <point x="293" y="124"/>
      <point x="268" y="93"/>
      <point x="221" y="93" type="curve" smooth="yes"/>
      <point x="184" y="93"/>
      <point x="167" y="111"/>
      <point x="167" y="152" type="curve" smooth="yes"/>
      <point x="167" y="188"/>
      <point x="180" y="202"/>
      <point x="219" y="207" type="curve" smooth="yes"/>
    </contour>
  </outline>
</glyph>
<glyph name="ccedilla" format="1">
  <advance width="466"/>
  <unicode hex="00E7"/>
  <outline>
    <contour>
      <point x="303" y="-13" type="line"/>
      <point x="358" y="-7"/>
      <point x="412" y="18"/>
      <point x="456" y="56" type="curve"/>
      <point x="421" y="114" type="line"/>
      <point x="421" y="114"/>
      <point x="373" y="82"/>
      <point x="304" y="82" type="curve" smooth="yes"/>
      <point x="224" y="82"/>
      <point x="184" y="136"/>
      <point x="184" y="245" type="curve" smooth="yes"/>
      <point x="184" y="368"/>
      <point x="214" y="424"/>
      <point x="279" y="424" type="curve" smooth="yes"/>
      <point x="300" y="424"/>
      <point x="326" y="414"/>
      <point x="344" y="398" type="curve"/>
      <point x="346" y="385"/>
      <point x="347" y="372"/>
      <point x="348" y="359" type="curve"/>
      <point x="347" y="305" type="line"/>
      <point x="432" y="302" type="line"/>
      <point x="447" y="479" type="line"/>
      <point x="447" y="479"/>
      <point x="358" y="503"/>
      <point x="270" y="503" type="curve" smooth="yes"/>
      <point x="118" y="503"/>
      <point x="25" y="405"/>
      <point x="25" y="245" type="curve" smooth="yes"/>
      <point x="25" y="89"/>
      <point x="99" y="-1"/>
      <point x="240" y="-13" type="curve"/>
      <point x="231" y="-102" type="line"/>
      <point x="242" y="-116" type="line"/>
      <point x="263" y="-115" type="line"/>
      <point x="287" y="-115"/>
      <point x="305" y="-121"/>
      <point x="305" y="-146" type="curve" smooth="yes"/>
      <point x="305" y="-171"/>
      <point x="282" y="-179"/>
      <point x="258" y="-179" type="curve" smooth="yes"/>
      <point x="238" y="-179"/>
      <point x="219" y="-173"/>
      <point x="203" y="-168" type="curve"/>
      <point x="185" y="-217" type="line"/>
      <point x="202" y="-225"/>
      <point x="244" y="-235"/>
      <point x="281" y="-235" type="curve" smooth="yes"/>
      <point x="344" y="-235"/>
      <point x="395" y="-209"/>
      <point x="395" y="-146" type="curve" smooth="yes"/>
      <point x="395" y="-92"/>
      <point x="353" y="-60"/>
      <point x="294" y="-59" type="curve"/>
    </contour>
  </outline>
</glyph>
<glyph name="egrave" format="1">
  <advance width="498"/>
  <unicode hex="00E8"/>
  <outline>
    <contour>
      <point x="321" y="565" type="line"/>
      <point x="368" y="623" type="line"/>
      <point x="161" y="755" type="line"/>
      <point x="114" y="679" type="line"/>
      <point x="114" y="679"/>
      <point x="236" y="623"/>
      <point x="254" y="614" type="curve"/>
    </contour>
    <contour>
      <point x="454" y="221" type="line"/>
      <point x="475" y="260" type="line"/>
      <point x="484" y="412"/>
      <point x="408" y="503"/>
      <point x="266" y="503" type="curve" smooth="yes"/>
      <point x="122" y="503"/>
      <point x="25" y="410"/>
      <point x="25" y="242" type="curve" smooth="yes"/>
      <point x="25" y="79"/>
      <point x="117" y="-15"/>
      <point x="270" y="-15" type="curve" smooth="yes"/>
      <point x="348" y="-15"/>
      <point x="414" y="9"/>
      <point x="466" y="56" type="curve"/>
      <point x="431" y="114" type="line"/>
      <point x="431" y="114"/>
      <point x="383" y="81"/>
      <point x="310" y="81" type="curve" smooth="yes"/>
      <point x="231" y="81"/>
      <point x="192" y="118"/>
      <point x="185" y="221" type="curve"/>
    </contour>
    <contour>
      <point x="317" y="302" type="line"/>
      <point x="185" y="295" type="line"/>
      <point x="188" y="370"/>
      <point x="204" y="424"/>
      <point x="255" y="424" type="curve" smooth="yes"/>
      <point x="298" y="424"/>
      <point x="318" y="386"/>
      <point x="318" y="310" type="curve"/>
    </contour>
  </outline>
</glyph>
<glyph name="ecircumflex" format="1">
  <advance width="498"/>
  <unicode hex="00EA"/>
  <outline>
    <contour>
      <point x="110" y="564" type="line"/>
      <point x="177" y="617" type="line"/>
      <point x="187" y="622"/>
      <point x="228" y="644"/>
      <point x="261" y="662" type="curve"/>
      <point x="294" y="644"/>
      <point x="335" y="622"/>
      <point x="345" y="617" type="curve"/>
      <point x="412" y="564" type="line"/>
      <point x="459" y="622" type="line"/>
      <point x="261" y="765" type="line"/>
      <point x="63" y="622" type="line"/>
    </contour>
    <contour>
      <point x="454" y="221" type="line"/>
      <point x="475" y="260" type="line"/>
      <point x="484" y="412"/>
      <point x="408" y="503"/>
      <point x="266" y="503" type="curve" smooth="yes"/>
      <point x="122" y="503"/>
      <point x="25" y="410"/>
      <point x="25" y="242" type="curve" smooth="yes"/>
      <point x="25" y="79"/>
      <point x="117" y="-15"/>
      <point x="270" y="-15" type="curve" smooth="yes"/>
      <point x="348" y="-15"/>
      <point x="414" y="9"/>
      <point x="466" y="56" type="curve"/>
      <point x="431" y="114" type="line"/>
      <point x="431" y="114"/>
      <point x="383" y="81"/>
      <point x="310" y="81" type="curve" smooth="yes"/>
      <point x="231" y="81"/>
      <point x="192" y="118"/>
      <point x="185" y="221" type="curve"/>
    </contour>
    <contour>
      <point x="317" y="302" type="line"/>
      <point x="185" y="295" type="line"/>
      <point x="188" y="370"/>
      <point x="204" y="424"/>
      <point x="255" y="424" type="curve" smooth="yes"/>
      <point x="298" y="424"/>
      <point x="318" y="386"/>
      <point x="318" y="310" type="curve"/>
    </contour>
  </outline>
</glyph>
<glyph name="eth" format="1">
  <advance width="516"/>
  <unicode hex="00F0"/>
  <outline>
    <contour>
      <point x="473" y="687" type="line"/>
      <point x="441" y="744" type="line"/>
      <point x="334" y="688" type="line"/>
      <point x="291" y="724"/>
      <point x="242" y="752"/>
      <point x="187" y="770" type="curve"/>
      <point x="162" y="711" type="line"/>
      <point x="197" y="692"/>
      <point x="226" y="670"/>
      <point x="249" y="645" type="curve"/>
      <point x="154" y="595" type="line"/>
      <point x="186" y="540" type="line"/>
      <point x="290" y="593" type="line"/>
      <point x="349" y="500"/>
      <point x="362" y="385"/>
      <point x="362" y="279" type="curve" smooth="yes"/>
      <point x="362" y="172"/>
      <point x="343" y="77"/>
      <point x="268" y="77" type="curve" smooth="yes"/>
      <point x="193" y="77"/>
      <point x="181" y="161"/>
      <point x="181" y="236" type="curve" smooth="yes"/>
      <point x="181" y="311"/>
      <point x="193" y="396"/>
      <point x="268" y="396" type="curve" smooth="yes"/>
      <point x="286" y="396"/>
      <point x="300" y="392"/>
      <point x="308" y="390" type="curve"/>
      <point x="320" y="460" type="line"/>
      <point x="307" y="470"/>
      <point x="277" y="483"/>
      <point x="238" y="483" type="curve" smooth="yes"/>
      <point x="108" y="483"/>
      <point x="21" y="387"/>
      <point x="21" y="243" type="curve" smooth="yes"/>
      <point x="21" y="83"/>
      <point x="108" y="-15"/>
      <point x="268" y="-15" type="curve" smooth="yes"/>
      <point x="430" y="-15"/>
      <point x="521" y="90"/>
      <point x="521" y="252" type="curve" smooth="yes"/>
      <point x="521" y="404"/>
      <point x="472" y="542"/>
      <point x="383" y="641" type="curve"/>
    </contour>
  </outline>
</glyph>
<glyph name="ntilde" format="1">
  <advance width="636"/>
  <unicode hex="00F1"/>
  <outline>
    <contour>
      <point x="629" y="71" type="line"/>
      <point x="564" y="77" type="line"/>
      <point x="564" y="77"/>
      <point x="555" y="143"/>
      <point x="555" y="193" type="curve" smooth="yes"/>
      <point x="555" y="325" type="line" smooth="yes"/>
      <point x="555" y="441"/>
      <point x="497" y="503"/>
      <point x="388" y="503" type="curve" smooth="yes"/>
      <point x="312" y="503"/>
      <point x="262" y="464"/>
      <point x="222" y="406" type="curve"/>
      <point x="212" y="477" type="line"/>
      <point x="191" y="496" type="line"/>
      <point x="143" y="494" type="line"/>
      <point x="101" y="494"/>
      <point x="26" y="503"/>
      <point x="26" y="503" type="curve"/>
      <point x="17" y="429" type="line"/>
      <point x="92" y="412" type="line"/>
      <point x="92" y="412"/>
      <point x="102" y="345"/>
      <point x="102" y="325" type="curve" smooth="yes"/>
      <point x="102" y="201" type="line"/>
      <point x="95" y="195"/>
      <point x="87" y="191"/>
      <point x="79" y="191" type="curve" smooth="yes"/>
      <point x="37" y="191"/>
      <point x="-44" y="229"/>
      <point x="-86" y="229" type="curve" smooth="yes"/>
      <point x="-129" y="229"/>
      <point x="-175" y="124"/>
      <point x="-175" y="124" type="curve"/>
      <point x="-128" y="96" type="line"/>
      <point x="-128" y="96"/>
      <point x="-103" y="138"/>
      <point x="-79" y="138" type="curve" smooth="yes"/>
      <point x="-36" y="138"/>
      <point x="43" y="100"/>
      <point x="86" y="100" type="curve" smooth="yes"/>
      <point x="89" y="100"/>
      <point x="93" y="101"/>
      <point x="96" y="102" type="curve"/>
      <point x="93" y="77" type="line"/>
      <point x="27" y="65" type="line"/>
      <point x="32" y="-5" type="line"/>
      <point x="32" y="-5"/>
      <point x="85" y="0"/>
      <point x="132" y="0" type="curve" smooth="yes"/>
      <point x="245" y="0"/>
      <point x="311" y="-5"/>
      <point x="311" y="-5" type="curve"/>
      <point x="316" y="71" type="line"/>
      <point x="251" y="77" type="line"/>
      <point x="251" y="77"/>
      <point x="242" y="143"/>
      <point x="242" y="193" type="curve" smooth="yes"/>
      <point x="242" y="265" type="line" smooth="yes"/>
      <point x="242" y="355"/>
      <point x="291" y="403"/>
      <point x="341" y="403" type="curve" smooth="yes"/>
      <point x="393" y="403"/>
      <point x="415" y="363"/>
      <point x="415" y="311" type="curve" smooth="yes"/>
      <point x="415" y="163" type="line" smooth="yes"/>
      <point x="415" y="153"/>
      <point x="412" y="113"/>
      <point x="410" y="77" type="curve"/>
      <point x="354" y="65" type="line"/>
      <point x="359" y="-5" type="line"/>
      <point x="359" y="-5"/>
      <point x="398" y="0"/>
      <point x="445" y="0" type="curve" smooth="yes"/>
      <point x="558" y="0"/>
      <point x="624" y="-5"/>
      <point x="624" y="-5" type="curve"/>
    </contour>
  </outline>
</glyph>
<glyph name="ograve" format="1">
  <advance width="544"/>
  <unicode hex="00F2"/>
  <outline>
    <contour>
      <point x="113" y="503"/>
      <point x="25" y="411"/>
      <point x="25" y="244" type="curve" smooth="yes"/>
      <point x="25" y="221"/>
      <point x="27" y="198"/>
      <point x="30" y="178" type="curve"/>
      <point x="-100" y="261" type="line"/>
      <point x="-147" y="185" type="line"/>
      <point x="-147" y="185"/>
      <point x="-25" y="129"/>
      <point x="-7" y="120" type="curve"/>
      <point x="60" y="71" type="line"/>
      <point x="67" y="80" type="line"/>
      <point x="108" y="18"/>
      <point x="177" y="-15"/>
      <point x="272" y="-15" type="curve" smooth="yes"/>
      <point x="431" y="-15"/>
      <point x="519" y="78"/>
      <point x="519" y="244" type="curve" smooth="yes"/>
      <point x="519" y="411"/>
      <point x="431" y="503"/>
      <point x="272" y="503" type="curve" smooth="yes"/>
    </contour>
    <contour>
      <point x="210" y="70"/>
      <point x="184" y="121"/>
      <point x="184" y="244" type="curve" smooth="yes"/>
      <point x="184" y="367"/>
      <point x="210" y="418"/>
      <point x="272" y="418" type="curve" smooth="yes"/>
      <point x="334" y="418"/>
      <point x="360" y="367"/>
      <point x="360" y="244" type="curve" smooth="yes"/>
      <point x="360" y="121"/>
      <point x="334" y="70"/>
      <point x="272" y="70" type="curve" smooth="yes"/>
    </contour>
  </outline>
</glyph>
<glyph name="oacute" format="1">
  <advance width="544"/>
  <unicode hex="00F3"/>
  <outline>
    <contour>
      <point x="113" y="503"/>
      <point x="25" y="411"/>
      <point x="25" y="244" type="curve" smooth="yes"/>
      <point x="25" y="234"/>
      <point x="25" y="224"/>
      <point x="26" y="214" type="curve"/>
      <point x="-107" y="129" type="line"/>
      <point x="-60" y="71" type="line"/>
      <point x="7" y="120" type="line"/>
      <point x="40" y="136" type="line"/>
      <point x="72" y="38"/>
      <point x="152" y="-15"/>
      <point x="272" y="-15" type="curve" smooth="yes"/>
      <point x="431" y="-15"/>
      <point x="519" y="78"/>
      <point x="519" y="244" type="curve" smooth="yes"/>
      <point x="519" y="411"/>
      <point x="431" y="503"/>
      <point x="272" y="503" type="curve" smooth="yes"/>
    </contour>
    <contour>
      <point x="210" y="70"/>
      <point x="184" y="121"/>
      <point x="184" y="244" type="curve" smooth="yes"/>
      <point x="184" y="367"/>
      <point x="210" y="418"/>
      <point x="272" y="418" type="curve" smooth="yes"/>
      <point x="334" y="418"/>
      <point x="360" y="367"/>
      <point x="360" y="244" type="curve" smooth="yes"/>
      <point x="360" y="121"/>
      <point x="334" y="70"/>
      <point x="272" y="70" type="curve" smooth="yes"/>
    </contour>
  </outline>
</glyph>
<glyph name="ocircumflex" format="1">
  <advance width="544"/>
  <unicode hex="00F4"/>
  <outline>
    <contour>
      <point x="116" y="503"/>
      <point x="28" y="414"/>
      <point x="25" y="253" type="curve"/>
      <point x="0" y="271" type="line"/>
      <point x="-198" y="128" type="line"/>
      <point x="-151" y="70" type="line"/>
      <point x="-84" y="123" type="line"/>
      <point x="-74" y="128"/>
      <point x="-33" y="150"/>
      <point x="0" y="168" type="curve"/>
      <point x="37" y="148" type="line"/>
      <point x="66" y="43"/>
      <point x="147" y="-15"/>
      <point x="272" y="-15" type="curve" smooth="yes"/>
      <point x="431" y="-15"/>
      <point x="519" y="78"/>
      <point x="519" y="244" type="curve" smooth="yes"/>
      <point x="519" y="411"/>
      <point x="431" y="503"/>
      <point x="272" y="503" type="curve" smooth="yes"/>
    </contour>
    <contour>
      <point x="235" y="70"/>
      <point x="211" y="88"/>
      <point x="198" y="128" type="curve" smooth="yes"/>
      <point x="188" y="156"/>
      <point x="184" y="194"/>
      <point x="184" y="244" type="curve" smooth="yes"/>
      <point x="184" y="367"/>
      <point x="210" y="418"/>
      <point x="272" y="418" type="curve" smooth="yes"/>
      <point x="334" y="418"/>
      <point x="360" y="367"/>
      <point x="360" y="244" type="curve" smooth="yes"/>
      <point x="360" y="121"/>
      <point x="334" y="70"/>
      <point x="272" y="70" type="curve" smooth="yes"/>
    </contour>
  </outline>
</glyph>
<glyph name="otilde" format="1">
  <advance width="544"/>
  <unicode hex="00F5"/>
  <outline>
    <contour>
      <point x="113" y="503"/>
      <point x="25" y="411"/>
      <point x="25" y="244" type="curve" smooth="yes"/>
      <point x="25" y="229"/>
      <point x="26" y="215"/>
      <point x="27" y="201" type="curve"/>
      <point x="-12" y="212"/>
      <point x="-58" y="229"/>
      <point x="-86" y="229" type="curve" smooth="yes"/>
      <point x="-129" y="229"/>
      <point x="-175" y="124"/>
      <point x="-175" y="124" type="curve"/>
      <point x="-128" y="96" type="line"/>
      <point x="-128" y="96"/>
      <point x="-103" y="138"/>
      <point x="-79" y="138" type="curve" smooth="yes"/>
      <point x="-46" y="138"/>
      <point x="10" y="115"/>
      <point x="53" y="105" type="curve"/>
      <point x="90" y="27"/>
      <point x="165" y="-15"/>
      <point x="272" y="-15" type="curve" smooth="yes"/>
      <point x="431" y="-15"/>
      <point x="519" y="78"/>
      <point x="519" y="244" type="curve" smooth="yes"/>
      <point x="519" y="411"/>
      <point x="431" y="503"/>
      <point x="272" y="503" type="curve" smooth="yes"/>
    </contour>
    <contour>
      <point x="210" y="70"/>
      <point x="184" y="121"/>
      <point x="184" y="244" type="curve" smooth="yes"/>
      <point x="184" y="367"/>
      <point x="210" y="418"/>
      <point x="272" y="418" type="curve" smooth="yes"/>
      <point x="334" y="418"/>
      <point x="360" y="367"/>
      <point x="360" y="244" type="curve" smooth="yes"/>
      <point x="360" y="121"/>
      <point x="334" y="70"/>
      <point x="272" y="70" type="curve" smooth="yes"/>
    </contour>
  </outline>
</glyph>
<glyph name="odieresis" format="1">
  <advance width="544"/>
  <unicode hex="00F6"/>
  <outline>
    <contour>
      <point x="113" y="503"/>
      <point x="25" y="411"/>
      <point x="25" y="244" type="curve" smooth="yes"/>
      <point x="25" y="78"/>
      <point x="113" y="-15"/>
      <point x="272" y="-15" type="curve" smooth="yes"/>
      <point x="431" y="-15"/>
      <point x="519" y="78"/>
      <point x="519" y="244" type="curve" smooth="yes"/>
      <point x="519" y="411"/>
      <point x="431" y="503"/>
      <point x="272" y="503" type="curve" smooth="yes"/>
    </contour>
    <contour>
      <point x="210" y="70"/>
      <point x="184" y="121"/>
      <point x="184" y="244" type="curve" smooth="yes"/>
      <point x="184" y="367"/>
      <point x="210" y="418"/>
      <point x="272" y="418" type="curve" smooth="yes"/>
      <point x="334" y="418"/>
      <point x="360" y="367"/>
      <point x="360" y="244" type="curve" smooth="yes"/>
      <point x="360" y="121"/>
      <point x="334" y="70"/>
      <point x="272" y="70" type="curve" smooth="yes"/>
    </contour>
    <contour>
      <point x="-162" y="231"/>
      <point x="-186" y="202"/>
      <point x="-186" y="161" type="curve" smooth="yes"/>
      <point x="-186" y="120"/>
      <point x="-162" y="92"/>
      <point x="-118" y="92" type="curve" smooth="yes"/>
      <point x="-74" y="92"/>
      <point x="-51" y="120"/>
      <point x="-51" y="161" type="curve" smooth="yes"/>
      <point x="-51" y="205"/>
      <point x="-76" y="231"/>
      <point x="-118" y="231" type="curve" smooth="yes"/>
    </contour>
  </outline>
</glyph>
<glyph name="divide" format="1">
  <advance width="591"/>
  <unicode hex="00F7"/>
  <outline>
    <contour>
      <point x="68" y="203" type="line"/>
      <point x="68" y="308" type="line"/>
      <point x="523" y="308" type="line"/>
      <point x="523" y="208" type="line"/>
    </contour>
    <contour>
      <point x="341" y="516"/>
      <point x="369" y="486"/>
      <point x="369" y="436" type="curve" smooth="yes"/>
      <point x="369" y="389"/>
      <point x="343" y="357"/>
      <point x="295" y="357" type="curve" smooth="yes"/>
      <point x="247" y="357"/>
      <point x="221" y="389"/>
      <point x="221" y="436" type="curve" smooth="yes"/>
      <point x="221" y="483"/>
      <point x="247" y="516"/>
      <point x="295" y="516" type="curve" smooth="yes"/>
    </contour>
    <contour>
      <point x="341" y="153"/>
      <point x="369" y="123"/>
      <point x="369" y="73" type="curve" smooth="yes"/>
      <point x="369" y="26"/>
      <point x="343" y="-6"/>
      <point x="295" y="-6" type="curve" smooth="yes"/>
      <point x="247" y="-6"/>
      <point x="221" y="26"/>
      <point x="221" y="73" type="curve" smooth="yes"/>
      <point x="221" y="120"/>
      <point x="247" y="153"/>
      <point x="295" y="153" type="curve" smooth="yes"/>
    </contour>
  </outline>
</glyph>
<glyph name="oslash" format="1">
  <advance width="532"/>
  <unicode hex="00F8"/>
  <outline>
    <contour>
      <point x="479" y="569" type="line"/>
      <point x="420" y="598" type="line"/>
      <point x="362" y="489" type="line"/>
      <point x="334" y="498"/>
      <point x="302" y="503"/>
      <point x="266" y="503" type="curve" smooth="yes"/>
      <point x="107" y="503"/>
      <point x="19" y="411"/>
      <point x="19" y="244" type="curve" smooth="yes"/>
      <point x="19" y="141"/>
      <point x="53" y="67"/>
      <point x="116" y="24" type="curve"/>
      <point x="66" y="-70" type="line"/>
      <point x="123" y="-99" type="line"/>
      <point x="174" y="-3" type="line"/>
      <point x="202" y="-11"/>
      <point x="232" y="-15"/>
      <point x="266" y="-15" type="curve" smooth="yes"/>
      <point x="425" y="-15"/>
      <point x="513" y="78"/>
      <point x="513" y="244" type="curve" smooth="yes"/>
      <point x="513" y="345"/>
      <point x="481" y="418"/>
      <point x="421" y="460" type="curve"/>
    </contour>
    <contour>
      <point x="178" y="367"/>
      <point x="204" y="418"/>
      <point x="266" y="418" type="curve" smooth="yes"/>
      <point x="286" y="418"/>
      <point x="303" y="413"/>
      <point x="316" y="401" type="curve"/>
      <point x="185" y="154" type="line"/>
      <point x="180" y="178"/>
      <point x="178" y="208"/>
      <point x="178" y="244" type="curve" smooth="yes"/>
    </contour>
    <contour>
      <point x="247" y="70"/>
      <point x="232" y="74"/>
      <point x="220" y="84" type="curve"/>
      <point x="348" y="325" type="line"/>
      <point x="352" y="302"/>
      <point x="354" y="275"/>
      <point x="354" y="244" type="curve" smooth="yes"/>
      <point x="354" y="121"/>
      <point x="328" y="70"/>
      <point x="266" y="70" type="curve" smooth="yes"/>
    </contour>
  </outline>
</glyph>
<glyph name="ugrave" format="1">
  <advance width="622"/>
  <unicode hex="00F9"/>
  <outline>
    <contour>
      <point x="361" y="565" type="line"/>
      <point x="408" y="623" type="line"/>
      <point x="201" y="755" type="line"/>
      <point x="154" y="679" type="line"/>
      <point x="154" y="679"/>
      <point x="276" y="623"/>
      <point x="294" y="614" type="curve"/>
    </contour>
    <contour>
      <point x="308" y="429" type="line"/>
      <point x="383" y="412" type="line"/>
      <point x="383" y="412"/>
      <point x="393" y="345"/>
      <point x="393" y="325" type="curve" smooth="yes"/>
      <point x="393" y="234" type="line" smooth="yes"/>
      <point x="393" y="144"/>
      <point x="345" y="96"/>
      <point x="295" y="96" type="curve" smooth="yes"/>
      <point x="243" y="96"/>
      <point x="222" y="136"/>
      <point x="222" y="188" type="curve" smooth="yes"/>
      <point x="222" y="295" type="line" smooth="yes"/>
      <point x="222" y="345"/>
      <point x="232" y="477"/>
      <point x="232" y="477" type="curve"/>
      <point x="211" y="496" type="line"/>
      <point x="138" y="494" type="line" smooth="yes"/>
      <point x="96" y="494"/>
      <point x="26" y="503"/>
      <point x="26" y="503" type="curve"/>
      <point x="17" y="429" type="line"/>
      <point x="72" y="415" type="line"/>
      <point x="72" y="415"/>
      <point x="82" y="345"/>
      <point x="82" y="325" type="curve" smooth="yes"/>
      <point x="82" y="174" type="line" smooth="yes"/>
      <point x="82" y="58"/>
      <point x="142" y="-4"/>
      <point x="258" y="-4" type="curve" smooth="yes"/>
      <point x="323" y="-4"/>
      <point x="367" y="28"/>
      <point x="403" y="78" type="curve"/>
      <point x="412" y="0" type="line"/>
      <point x="547" y="0"/>
      <point x="596" y="-5"/>
      <point x="596" y="-5" type="curve"/>
      <point x="602" y="71" type="line"/>
      <point x="542" y="77" type="line"/>
      <point x="542" y="77"/>
      <point x="533" y="143"/>
      <point x="533" y="193" type="curve" smooth="yes"/>
      <point x="533" y="295" type="line" smooth="yes"/>
      <point x="533" y="345"/>
      <point x="543" y="477"/>
      <point x="543" y="477" type="curve"/>
      <point x="522" y="496" type="line"/>
      <point x="434" y="494" type="line" smooth="yes"/>
      <point x="392" y="494"/>
      <point x="317" y="503"/>
      <point x="317" y="503" type="curve"/>
    </contour>
  </outline>
</glyph>
<glyph name="ucircumflex" format="1">
  <advance width="622"/>
  <unicode hex="00FB"/>
  <outline>
    <contour>
      <point x="150" y="564" type="line"/>
      <point x="217" y="617" type="line"/>
      <point x="227" y="622"/>
      <point x="268" y="644"/>
      <point x="301" y="662" type="curve"/>
      <point x="334" y="644"/>
      <point x="375" y="622"/>
      <point x="385" y="617" type="curve"/>
      <point x="452" y="564" type="line"/>
      <point x="499" y="622" type="line"/>
      <point x="301" y="765" type="line"/>
      <point x="103" y="622" type="line"/>
    </contour>
    <contour>
      <point x="602" y="71" type="line"/>
      <point x="542" y="77" type="line"/>
      <point x="542" y="77"/>
      <point x="533" y="143"/>
      <point x="533" y="193" type="curve" smooth="yes"/>
      <point x="533" y="295" type="line" smooth="yes"/>
      <point x="533" y="345"/>
      <point x="543" y="477"/>
      <point x="543" y="477" type="curve"/>
      <point x="522" y="496" type="line"/>
      <point x="434" y="494" type="line" smooth="yes"/>
      <point x="392" y="494"/>
      <point x="317" y="503"/>
      <point x="317" y="503" type="curve"/>
      <point x="308" y="429" type="line"/>
      <point x="383" y="412" type="line"/>
      <point x="383" y="412"/>
      <point x="393" y="345"/>
      <point x="393" y="325" type="curve" smooth="yes"/>
      <point x="393" y="234" type="line" smooth="yes"/>
      <point x="393" y="144"/>
      <point x="345" y="96"/>
      <point x="295" y="96" type="curve" smooth="yes"/>
      <point x="243" y="96"/>
      <point x="222" y="136"/>
      <point x="222" y="188" type="curve" smooth="yes"/>
      <point x="222" y="295" type="line" smooth="yes"/>
      <point x="222" y="345"/>
      <point x="232" y="477"/>
      <point x="232" y="477" type="curve"/>
      <point x="211" y="496" type="line"/>
      <point x="138" y="494" type="line" smooth="yes"/>
      <point x="96" y="494"/>
      <point x="26" y="503"/>
      <point x="26" y="503" type="curve"/>
      <point x="17" y="429" type="line"/>
      <point x="72" y="415" type="line"/>
      <point x="72" y="415"/>
      <point x="82" y="345"/>
      <point x="82" y="325" type="curve" smooth="yes"/>
      <point x="82" y="174" type="line" smooth="yes"/>
      <point x="82" y="58"/>
      <point x="142" y="-4"/>
      <point x="258" y="-4" type="curve" smooth="yes"/>
      <point x="323" y="-4"/>
      <point x="367" y="28"/>
      <point x="403" y="78" type="curve"/>
      <point x="412" y="0" type="line"/>
      <point x="547" y="0"/>
      <point x="596" y="-5"/>
      <point x="596" y="-5" type="curve"/>
    </contour>
  </outline>
</glyph>
